<svg width="262" height="326" viewBox="0 0 262 326" fill="none" xmlns="http://www.w3.org/2000/svg">
<path d="M60.9521 324.33H60.936C51.875 324.33 44.5297 331.672 44.5297 340.729V445.562C44.5297 454.619 51.875 461.961 60.936 461.961H60.9521C70.0131 461.961 77.3584 454.619 77.3584 445.562V340.729C77.3584 331.672 70.0131 324.33 60.9521 324.33Z" fill="#A9D49E"/>
<path d="M159.003 324.33H158.987C149.926 324.33 142.58 331.672 142.58 340.729V445.562C142.58 454.619 149.926 461.961 158.987 461.961H159.003C168.064 461.961 175.409 454.619 175.409 445.562V340.729C175.409 331.672 168.064 324.33 159.003 324.33Z" fill="#A9D49E"/>
<path d="M171.291 386.052C213.6 386.052 247.897 332.902 247.897 267.338C247.897 201.774 213.6 148.624 171.291 148.624C128.983 148.624 94.6854 201.774 94.6854 267.338C94.6854 332.902 128.983 386.052 171.291 386.052Z" fill="#71BD5F"/>
<path d="M24.3125 162.021C24.3125 162.021 15.8186 299.458 5.79075 327.72C-4.23713 355.982 47.3879 417.558 107.458 413.846C188.618 408.826 201.843 362.341 201.843 362.341C201.843 362.341 237.401 278.943 180.189 157.082C137.542 66.2428 26.008 137.197 24.3125 162.005V162.021Z" fill="#8AC67A"/>
<path d="M21.6641 220.756C31.692 228.681 42.7372 235.251 54.509 240.254C66.2809 245.258 78.6825 248.518 91.391 250.39C94.9597 250.923 98.7383 251.52 101.823 253.522C104.535 255.281 106.667 258.17 106.57 261.511C106.538 262.286 107.717 262.641 108.072 261.915C109.38 259.219 110.817 256.201 113.449 254.571C116.63 252.602 120.764 253.441 124.284 253.538C132.051 253.732 139.819 252.925 147.457 251.504C155.095 250.084 162.297 248.147 169.515 245.807C175.506 243.854 181.432 241.545 186.906 238.382C192.945 234.912 198.339 230.344 202.15 224.469C202.715 223.597 201.326 222.79 200.761 223.662C193.753 234.46 181.513 240.157 169.676 244.063C155.111 248.857 139.706 252.311 124.284 251.924C120.425 251.827 116.097 251.036 112.626 253.183C109.735 254.974 108.104 258.138 106.667 261.108L108.169 261.511C108.362 255.346 102.711 251.343 97.3496 249.89C94.1361 249.019 90.7935 248.712 87.4993 248.179C84.2051 247.647 81.0563 247.001 77.859 246.242C65.0536 243.208 52.7005 238.382 41.2354 231.942C34.7762 228.326 28.6077 224.194 22.7945 219.61C21.9871 218.965 20.8406 220.111 21.648 220.756H21.6641Z" fill="#CAE4C1"/>
<path d="M15.5441 279.072C25.8626 287.239 37.3277 293.938 49.3741 299.2C61.4204 304.461 74.2096 308.351 87.3056 310.24C91.0196 310.772 94.9597 311.289 98.2216 313.258C101.112 315.001 103.454 317.987 103.34 321.49C103.308 322.264 104.487 322.62 104.842 321.893C106.554 318.358 108.572 314.452 112.771 313.549C115.048 313.064 117.422 313.371 119.715 313.468C122.217 313.565 124.72 313.565 127.207 313.468C136.912 313.08 146.52 311.305 155.902 308.836C169.709 305.188 183.241 299.829 195.481 292.453C201.342 288.918 207.527 284.738 211.322 278.911C211.887 278.039 210.498 277.232 209.933 278.104C206.542 283.317 201.052 287.11 195.868 290.322C189.7 294.164 183.128 297.376 176.442 300.184C169.757 302.993 163.475 305.091 156.774 306.931C147.247 309.53 137.477 311.418 127.595 311.838C124.898 311.951 122.217 311.967 119.521 311.838C116.824 311.709 114.337 311.434 111.818 312.112C107.491 313.29 105.262 317.325 103.437 321.07L104.939 321.474C105.149 314.937 98.916 310.982 93.2642 309.643C89.97 308.852 86.5789 308.545 83.2363 307.964C79.8937 307.383 76.7771 306.689 73.5798 305.882C60.2901 302.492 47.4686 297.23 35.5191 290.5C28.9146 286.788 22.5684 282.607 16.626 277.91C15.8186 277.265 14.6721 278.411 15.4795 279.056L15.5441 279.072Z" fill="#CAE4C1"/>
<path d="M8.24512 324.912C19.1934 333.579 31.5466 340.536 44.1905 346.395C56.8343 352.254 70.2533 357.306 84.0759 359.678C88.2744 360.405 92.6989 360.631 96.639 362.39C100.224 363.988 103.47 367.281 103.34 371.445C103.308 372.22 104.487 372.575 104.842 371.848C106.473 368.507 108.379 364.682 112.254 363.633C114.353 363.052 116.598 363.278 118.746 363.391C121.119 363.504 123.493 363.536 125.867 363.471C135.249 363.229 144.566 361.648 153.657 359.372C160.617 357.629 167.496 355.498 174.246 353.077C180.996 350.656 187.197 348.073 193.284 344.765C199.372 341.456 205.299 337.582 209.029 331.852C209.594 330.98 208.205 330.173 207.64 331.045C204.314 336.145 198.92 339.745 193.704 342.682C187.617 346.12 181.141 348.848 174.585 351.237C159.132 356.87 142.79 361.357 126.254 361.841C123.638 361.922 121.022 361.89 118.406 361.744C116.049 361.615 113.61 361.47 111.334 362.229C107.297 363.584 105.197 367.442 103.453 371.041L104.955 371.445C105.068 367.975 103.114 364.876 100.45 362.794C97.4625 360.469 93.6839 359.565 90.0022 358.968C86.5465 358.419 83.107 357.935 79.6836 357.177C76.2603 356.418 73.0953 355.563 69.8657 354.594C55.5425 350.252 41.7198 344.054 28.7369 336.63C22.0193 332.788 15.4633 328.592 9.39162 323.782C8.58422 323.136 7.43772 324.282 8.24512 324.928V324.912Z" fill="#CAE4C1"/>
<path d="M106.554 261.512C106.409 266.338 106.247 271.147 106.053 275.973C105.682 285.706 105.246 295.423 104.648 305.139C103.954 316.276 102.533 327.365 102.323 338.534C102.081 351.382 102.985 364.214 103.647 377.046C103.954 383.082 104.342 389.119 105.181 395.107C105.94 400.514 107.038 406.034 109.428 410.973C109.929 412.006 110.494 413.007 111.14 413.959C111.721 414.815 113.126 414.008 112.529 413.152C109.606 408.875 108.282 403.645 107.361 398.609C106.247 392.621 105.779 386.52 105.424 380.435C104.697 367.959 103.873 355.45 103.873 342.957C103.873 335.661 104.229 328.382 104.988 321.135C105.44 316.858 105.747 312.564 106.037 308.271C106.683 298.522 107.135 288.757 107.539 278.992C107.765 273.262 108.169 267.5 108.153 261.786C108.153 261.689 108.153 261.608 108.153 261.512C108.185 260.479 106.57 260.479 106.538 261.512H106.554Z" fill="#CAE4C1"/>
<path d="M180.189 157.098C180.189 176.224 145.293 191.719 102.259 191.719C59.2246 191.719 24.3289 176.224 24.3289 157.098C24.3289 153.143 25.8306 149.334 28.5919 145.783C28.5919 146.09 28.5758 146.397 28.5758 146.703C28.5758 165.83 61.453 181.325 102 181.325C142.548 181.325 175.199 165.83 175.199 146.703C175.199 146.138 175.167 145.59 175.118 145.041C178.267 148.785 180.189 152.853 180.189 157.098Z" fill="#CAE4C1"/>
<path d="M19.7587 163.667C19.7587 163.667 -6.32024 174.772 -17.204 210.443C-24.6159 234.718 -21.2086 261.253 -6.67549 282.074C2.54499 295.294 16.19 306.414 35.2607 303.122C77.6653 295.826 30.707 226.406 30.707 226.406C30.707 226.406 28.5109 214.026 27.3644 210.604C26.0241 206.617 18.5476 177.645 19.7587 163.667Z" fill="#A9D49E"/>
<path d="M186.325 158.421C186.325 158.421 188.15 144.298 199.098 135.631C199.098 135.631 201.698 80.5593 236.594 72.1662C242.375 70.7781 248.43 72.376 252.612 76.5887C259.701 83.7229 267.097 99.6213 257.231 134.033C241.276 189.637 199.098 196.917 199.098 196.917L186.325 158.405V158.421Z" fill="#A9D49E"/>
<path d="M25.4752 213.073C23.166 213.267 21.1152 211.524 20.9376 209.216L18.9353 197.885C17.8211 191.542 17.2882 185.118 17.3528 178.678L17.482 166.508C17.2882 164.2 19.0322 162.15 21.3413 161.972C23.6505 161.779 25.7013 163.522 25.8789 165.83L25.7497 178C25.6851 184.44 26.218 190.864 27.3322 197.207L29.3346 208.538C29.5283 210.846 27.7844 212.896 25.4752 213.073Z" fill="#CAE4C1"/>
<path d="M183.047 154.774C185.243 154.031 187.649 155.225 188.392 157.421L193.075 167.944C195.691 173.819 197.758 179.937 199.243 186.199L202.053 198.03C202.796 200.225 201.601 202.63 199.405 203.373C197.209 204.115 194.803 202.921 194.06 200.726L191.25 188.895C189.765 182.632 187.698 176.515 185.082 170.64L180.399 160.116C179.656 157.921 180.851 155.516 183.047 154.774Z" fill="#CAE4C1"/>
<path d="M161.522 56.639C161.328 55.8965 161.166 55.1702 161.005 54.4277C153.125 17.6595 115.274 -5.9057 78.1982 1.29299C41.1226 8.49168 18.7092 41.3054 22.6654 76.734C23.0046 79.8007 23.7474 82.8028 24.6516 85.7566C27.4452 94.7953 32.6449 119.942 28.5756 144.072C24.1026 170.511 75.3401 180.034 91.0359 181.131C95.8802 181.47 109.138 181.325 113.239 180.905C130.275 179.178 176.281 172.512 175.393 150.674C173.52 104.689 163.282 63.4664 161.522 56.639Z" fill="#A9D49E"/>
<path d="M67.9603 71.6653C70.6001 71.6653 72.7401 69.5263 72.7401 66.8877C72.7401 64.2491 70.6001 62.1101 67.9603 62.1101C65.3205 62.1101 63.1805 64.2491 63.1805 66.8877C63.1805 69.5263 65.3205 71.6653 67.9603 71.6653Z" fill="#0E9561"/>
<path d="M89.7275 68.6634C92.3674 68.6634 94.5073 66.5244 94.5073 63.8858C94.5073 61.2472 92.3674 59.1082 89.7275 59.1082C87.0877 59.1082 84.9478 61.2472 84.9478 63.8858C84.9478 66.5244 87.0877 68.6634 89.7275 68.6634Z" fill="#0E9561"/>
<path d="M123.325 77.1799L114.738 78.3891C113.431 78.5732 112.521 79.7815 112.705 81.0879C112.889 82.3942 114.098 83.3041 115.405 83.12L123.991 81.9107C125.298 81.7267 126.209 80.5184 126.025 79.212C125.84 77.9056 124.632 76.9958 123.325 77.1799Z" fill="#CAE4C1"/>
<path d="M44.5479 88.2682L35.9612 89.4775C34.6543 89.6616 33.744 90.8698 33.9282 92.1762C34.1123 93.4826 35.3211 94.3925 36.6281 94.2084L45.2148 92.9991C46.5218 92.815 47.432 91.6068 47.2478 90.3004C47.0637 88.994 45.8549 88.0842 44.5479 88.2682Z" fill="#CAE4C1"/>
<path d="M111.834 92.2611C111.899 92.7937 111.527 93.2779 110.995 93.3587C110.478 93.4232 109.977 93.052 109.913 92.5355L109.719 91.1151C107.523 91.3572 92.6182 93.3587 83.8983 103.947C83.6077 104.27 83.3331 104.609 83.0909 104.964C82.7034 104.641 82.2997 104.35 81.896 104.092C70.5763 96.3608 55.7524 98.5236 53.5563 98.8949L53.7501 100.315C53.8308 100.848 53.4594 101.332 52.9266 101.413C52.4098 101.493 51.9092 101.122 51.8285 100.59L51.0211 94.8436C50.9565 94.3109 51.3279 93.8106 51.8446 93.746C51.8931 93.746 51.9415 93.7299 51.99 93.7299C52.4583 93.7299 52.862 94.085 52.9427 94.5692L53.2011 96.4254C69.0099 94.198 78.1174 98.7012 81.8475 101.235C82.3158 101.558 82.9133 101.461 83.2847 101.042C86.2559 97.5229 93.7647 90.8407 109.364 88.6456L109.105 86.7733C109.105 86.7733 109.089 86.6765 109.089 86.628C109.089 86.1761 109.444 85.7564 109.929 85.6757C110.446 85.6112 110.946 85.9824 111.011 86.5151L111.834 92.2611Z" fill="#0E9561"/>
<path d="M62.1797 59.8187C62.3573 58.3822 63.5846 57.1555 64.9733 56.8811C66.362 56.6067 67.9284 57.3814 68.6227 58.6243C69.1395 59.5281 70.5282 58.705 70.0114 57.8172C68.9295 55.9288 66.6688 54.9119 64.5373 55.3316C62.4058 55.7512 60.8071 57.6881 60.5487 59.8187C60.5003 60.2545 60.9524 60.6257 61.3561 60.6257C61.8406 60.6257 62.1151 60.2545 62.1635 59.8187H62.1797Z" fill="#168F5E"/>
<path d="M83.8341 56.0257C84.0117 54.5892 85.239 53.3625 86.6277 53.0881C88.0164 52.8137 89.5828 53.5885 90.2771 54.8313C90.7939 55.7352 92.1826 54.912 91.6659 54.0243C90.5839 52.1358 88.3232 51.119 86.1917 51.5386C84.0602 51.9583 82.4615 53.8951 82.2032 56.0257C82.1547 56.4615 82.6069 56.8327 83.0106 56.8327C83.495 56.8327 83.7695 56.4615 83.818 56.0257H83.8341Z" fill="#168F5E"/>
<path d="M75.0493 82.0441C75.5487 82.0441 75.9536 81.6394 75.9536 81.1402C75.9536 80.641 75.5487 80.2363 75.0493 80.2363C74.5499 80.2363 74.145 80.641 74.145 81.1402C74.145 81.6394 74.5499 82.0441 75.0493 82.0441Z" fill="#057749"/>
<path d="M83.4462 80.8658C83.9456 80.8658 84.3504 80.4612 84.3504 79.962C84.3504 79.4628 83.9456 79.0581 83.4462 79.0581C82.9467 79.0581 82.5419 79.4628 82.5419 79.962C82.5419 80.4612 82.9467 80.8658 83.4462 80.8658Z" fill="#057749"/>
<path d="M71.7874 91.1152L70.8024 90.6956C70.0273 90.3727 69.0746 89.3398 69.3975 88.565L73.2246 81.0274C73.5476 80.2526 74.4518 79.8814 75.2269 80.2203C76.002 80.5432 76.3734 81.447 76.0343 82.2218L74.0158 90.405C73.6929 91.1798 72.5625 91.4542 71.7874 91.1152Z" fill="#057749"/>
</svg>
