<svg width="661" height="497" viewBox="0 0 661 497" fill="none" xmlns="http://www.w3.org/2000/svg">
<g clip-path="url(#clip0_190_1303)">
<path d="M637.326 234.645C591.91 125.169 472.123 46.9855 331.538 46.9855C190.952 46.9855 67.628 127.525 23.7689 239.499C21.3165 245.719 19.1471 252.035 17.2136 258.444C56.5925 377.015 181.52 463.681 329.557 463.681C477.593 463.681 606.86 373.952 643.834 252.176C641.9 246.238 639.731 240.394 637.326 234.645Z" fill="#71BD5F"/>
<path d="M643.834 252.176C606.86 373.952 480.14 463.681 329.557 463.681C178.974 463.681 56.5925 377.015 17.2136 258.444C19.1471 252.035 21.3165 245.72 23.7689 239.499C69.1371 349.022 188.925 427.205 329.557 427.205C470.189 427.205 593.466 346.712 637.326 234.645C639.731 240.394 641.9 246.238 643.834 252.176Z" fill="#8AC67A"/>
<path d="M634.779 280.546C597.805 402.322 471.085 492.052 320.502 492.052C169.919 492.052 47.5377 405.385 8.15875 286.814C10.0923 280.405 12.2617 274.09 14.714 267.869C60.0823 377.392 179.87 455.575 320.502 455.575C461.134 455.575 584.412 375.083 628.271 263.015C630.676 268.765 632.845 274.608 634.779 280.546Z" fill="#8AC67A"/>
<path d="M634.779 254.862C597.805 376.638 471.085 466.368 320.502 466.368C169.919 466.368 47.5377 379.701 8.15875 261.13C10.0923 254.721 12.2617 248.406 14.714 242.185C60.0823 351.708 179.87 429.891 320.502 429.891C461.134 429.891 584.412 349.399 628.271 237.331C630.676 243.08 632.845 248.924 634.779 254.862Z" fill="#E7F2E6"/>
<path d="M552.059 221.402C552.059 99.1078 452.881 0 330.5 0C208.119 0 108.94 99.1078 108.94 221.402V344.827L166.523 370.276C207.034 414.811 265.513 442.804 330.5 442.804C395.487 442.804 458.588 412.502 499.24 364.809L552.059 340.397V221.402Z" fill="#A9D49E"/>
<path d="M181.709 342.188C181.709 342.188 90.7366 307.361 43.4347 248.83C18.3454 217.726 7.30985 239.028 2.49949 265.796C-2.97112 296.192 0.754553 327.485 12.073 356.232C32.635 408.637 77.7203 495.586 150.677 496.953C255.185 498.932 254.525 426.451 254.525 426.451C254.525 426.451 264.711 377.675 181.709 342.188Z" fill="#C6E1C1"/>
<path d="M479.338 342.188C479.338 342.188 570.311 307.361 617.612 248.83C642.702 217.726 653.737 239.028 658.548 265.796C664.018 296.192 660.293 327.485 648.974 356.232C628.412 408.637 583.327 495.586 510.37 496.953C405.862 498.932 406.523 426.451 406.523 426.451C406.523 426.451 396.336 377.675 479.338 342.188Z" fill="#C6E1C1"/>
<path d="M298.384 194.587C306.093 194.587 312.343 188.341 312.343 180.637C312.343 172.933 306.093 166.688 298.384 166.688C290.674 166.688 284.424 172.933 284.424 180.637C284.424 188.341 290.674 194.587 298.384 194.587Z" fill="#0E9561"/>
<path d="M362.616 194.728C370.326 194.728 376.576 188.483 376.576 180.779C376.576 173.075 370.326 166.829 362.616 166.829C354.907 166.829 348.657 173.075 348.657 180.779C348.657 188.483 354.907 194.728 362.616 194.728Z" fill="#0E9561"/>
<path d="M459.342 232.901H434.017C430.162 232.901 427.037 236.024 427.037 239.876C427.037 243.728 430.162 246.851 434.017 246.851H459.342C463.197 246.851 466.322 243.728 466.322 239.876C466.322 236.024 463.197 232.901 459.342 232.901Z" fill="#CAE4C1"/>
<path d="M226.983 232.901H201.658C197.803 232.901 194.678 236.024 194.678 239.876C194.678 243.728 197.803 246.851 201.658 246.851H226.983C230.838 246.851 233.963 243.728 233.963 239.876C233.963 236.024 230.838 232.901 226.983 232.901Z" fill="#CAE4C1"/>
<path d="M418.973 271.828C418.973 273.383 417.652 274.655 416.096 274.655C414.587 274.655 413.266 273.336 413.314 271.828V267.633C406.9 267.445 362.946 267.162 333.424 294.213C332.434 295.014 331.538 295.91 330.689 296.805C329.698 295.721 328.661 294.731 327.576 293.789C298.006 266.832 254.242 267.068 247.734 267.209V271.404C247.734 272.959 246.46 274.231 244.904 274.231C243.395 274.231 242.074 272.959 242.074 271.404V254.485C242.074 252.93 243.395 251.61 244.904 251.657C245.045 251.657 245.187 251.657 245.328 251.657C246.696 251.846 247.686 253.024 247.734 254.485V259.952C294.328 259.952 318.851 276.635 328.614 285.542C329.84 286.626 331.632 286.673 332.858 285.542C342.903 276.54 367.332 260.329 413.361 260.329V254.815C413.361 254.815 413.361 254.532 413.361 254.391C413.549 253.071 414.728 252.034 416.19 251.987C417.7 251.987 419.02 253.307 418.973 254.862V271.828Z" fill="#0E9561"/>
<path d="M288.857 158.111C289.942 154.152 293.573 150.806 297.724 150.476C301.874 150.146 306.354 152.691 307.957 156.697C308.429 157.875 309.514 158.723 310.881 158.346C312.013 158.016 313.003 156.65 312.532 155.424C310.174 149.581 304.184 145.292 297.724 145.763C291.263 146.235 285.933 150.759 284.283 156.838C283.481 159.76 288.056 161.033 288.81 158.111H288.857Z" fill="#168F5E"/>
<path d="M353.043 155.943C354.127 151.984 357.759 148.638 361.909 148.308C366.059 147.978 370.539 150.523 372.143 154.529C372.614 155.707 373.699 156.555 375.067 156.178C376.198 155.849 377.189 154.482 376.717 153.257C374.359 147.413 368.37 143.124 361.909 143.596C355.448 144.067 350.119 148.591 348.468 154.67C347.666 157.592 352.241 158.865 352.995 155.943H353.043Z" fill="#168F5E"/>
<path d="M318.427 230.026C319.885 230.026 321.068 228.845 321.068 227.387C321.068 225.93 319.885 224.748 318.427 224.748C316.968 224.748 315.786 225.93 315.786 227.387C315.786 228.845 316.968 230.026 318.427 230.026Z" fill="#057749"/>
<path d="M343.186 230.026C344.645 230.026 345.827 228.845 345.827 227.387C345.827 225.93 344.645 224.748 343.186 224.748C341.728 224.748 340.545 225.93 340.545 227.387C340.545 228.845 341.728 230.026 343.186 230.026Z" fill="#057749"/>
<path d="M304.939 254.909L302.251 253.307C300.129 252.035 297.771 248.689 299.044 246.568L313.192 226.303C314.465 224.183 317.201 223.523 319.323 224.748C321.445 226.02 322.105 228.754 320.879 230.875L311.73 253.684C310.457 255.805 307.061 256.087 304.986 254.862L304.939 254.909Z" fill="#057749"/>
</g>
<defs>
<clipPath id="clip0_190_1303">
<rect width="661" height="497" fill="white"/>
</clipPath>
</defs>
</svg>
