<svg width="60" height="151" viewBox="0 0 60 151" fill="none" xmlns="http://www.w3.org/2000/svg">
<g id="Group">
<path id="Vector" d="M53.4201 4.81479L7.04008 4.36479C5.43008 4.34479 1.26008 11.1748 1.25008 12.8748L1.19008 18.5848L0.0600814 134.635L8.14084e-05 140.585V140.775C-0.0199186 143.075 3.65008 150.015 5.62008 150.035L52.0001 150.485C53.6101 150.505 57.7801 143.155 57.8001 141.335V141.145L57.8601 135.195L59.0001 19.1348L59.0601 13.4248C59.0801 11.2848 55.4001 4.82479 53.4401 4.80479L53.4201 4.81479Z" fill="#DEDEDE"/>
<path id="Vector_2" d="M7.33752 0.0163221L53.2253 0.464837C54.1453 0.473828 54.8879 1.23112 54.8789 2.15108L54.8628 3.801C54.8538 4.72096 54.0965 5.46359 53.1766 5.4546L7.28875 5.00608C6.3688 4.99709 5.62616 4.2398 5.63515 3.31984L5.65128 1.66992C5.66027 0.749964 6.41757 0.00733027 7.33752 0.0163221Z" fill="#D2D2D2"/>
<path id="Vector_3" d="M59.0358 14.7851L1.23853 14.2202L0.0118297 139.724L57.8091 140.289L59.0358 14.7851Z" fill="#EA5B5B"/>
</g>
</svg>
