<svg width="33" height="100" viewBox="0 0 33 100" fill="none" xmlns="http://www.w3.org/2000/svg">
<g id="Group 788">
<path id="Vector" d="M32.1158 33.9908C32.1158 33.6313 33 32.4683 33 31.7388C33 24.1266 29.0266 17.7038 24.7621 14.6642C20.8804 11.8943 20.999 6.12695 20.999 6.12695H12.001C12.001 6.12695 12.001 12.0687 8.23787 14.6642C3.92485 17.6404 0 24.1266 0 31.7441C0 32.4736 0.884169 33.6366 0.884169 33.9961V67.3523C0.884169 68.0871 0 68.8219 0 69.5461V92.7686C0 92.7686 1.48799 99.9209 6.74449 99.9209C10.1949 99.9209 11.3702 97.3042 11.3702 97.3042C11.3702 97.3042 12.4161 100.005 16.4973 100.005C20.5785 100.005 21.6244 97.3042 21.6244 97.3042C21.6244 97.3042 22.7997 99.9209 26.2501 99.9209C31.5066 99.9209 32.9946 92.7686 32.9946 92.7686V69.5461C32.9946 68.8219 32.1104 68.0871 32.1104 67.3523V33.9961L32.1158 33.9908Z" fill="#DDDDDD"/>
<path id="Vector_2" d="M32.1212 34.6621H0.884155V66.4642H32.1212V34.6621Z" fill="#FC5B58"/>
<path id="Vector_3" d="M20.7457 0H12.152C11.2319 0 10.4861 0.731321 10.4861 1.63345V6.48094C10.4861 7.38307 11.2319 8.1144 12.152 8.1144H20.7457C21.6657 8.1144 22.4116 7.38307 22.4116 6.48094V1.63345C22.4116 0.731321 21.6657 0 20.7457 0Z" fill="#FC5B58"/>
<path id="Vector_4" d="M21.6568 7.75488H11.2409C10.824 7.75488 10.4861 8.08623 10.4861 8.49496V8.5954C10.4861 9.00413 10.824 9.33547 11.2409 9.33547H21.6568C22.0737 9.33547 22.4116 9.00413 22.4116 8.5954V8.49496C22.4116 8.08623 22.0737 7.75488 21.6568 7.75488Z" fill="#FC5B58"/>
<path id="Vector_5" d="M16.4487 8.1144H21.0475C21.8023 8.1144 22.4115 7.51705 22.4115 6.77697V1.33742C22.4115 0.597346 21.8023 0 21.0475 0H16.4487V8.1144Z" fill="#E24D4D"/>
<path id="Vector_6" d="M16.4487 9.33547H21.7052C22.0934 9.33547 22.4115 9.02358 22.4115 8.64297V8.44738C22.4115 8.06677 22.0934 7.75488 21.7052 7.75488H16.4487V9.33547Z" fill="#E24D4D"/>
</g>
</svg>
