<svg width="57" height="138" viewBox="0 0 57 138" fill="none" xmlns="http://www.w3.org/2000/svg">
<path d="M28.27 138H52.03C56.55 138 56.55 130.67 56.55 128.17V55.1598C56.55 49.3298 53.16 40.8298 50 34.1598C46.84 27.4898 44.35 19.4898 44.35 14.8198C44.35 10.1498 44.58 7.98982 45.48 7.98982C46.38 7.98982 46.83 6.31982 45.48 6.31982H11.06C9.70999 6.31982 10.16 7.98982 11.06 7.98982C11.96 7.98982 12.19 10.1598 12.19 14.8198C12.19 19.4798 9.70999 27.4898 6.53999 34.1598C3.37999 40.8298 -0.0100098 49.3298 -0.0100098 55.1598V128.17C-0.0100098 130.67 -0.0100093 138 4.50999 138H28.27Z" fill="#DDDDDD"/>
<path d="M46.19 0H10.36C9.63102 0 9.04004 0.590984 9.04004 1.32V5C9.04004 5.72902 9.63102 6.32 10.36 6.32H46.19C46.9191 6.32 47.51 5.72902 47.51 5V1.32C47.51 0.590984 46.9191 0 46.19 0Z" fill="#CCCACA"/>
<path d="M57 62H0V93H57V62Z" fill="#2E5E7F"/>
</svg>
