<svg width="38" height="101" viewBox="0 0 38 101" fill="none" xmlns="http://www.w3.org/2000/svg">
<path d="M18.5732 99.9221L32.2173 100.025C37.1243 100.064 37.274 95.6397 37.2939 93.9993C37.3138 92.359 37.7327 58.1082 37.7826 53.8101C37.8325 49.512 35.5884 47.4536 35.5884 47.4536C35.5884 47.4536 37.8724 46.2233 37.9222 42.1855C37.9721 38.1397 35.9474 37.0908 35.9474 37.0908C37.6131 35.9394 38.0918 35.8684 37.9921 29.165C37.8923 22.4694 33.7732 17.3826 31.8083 14.2044C29.8435 11.0262 25.1758 5.9394 25.1858 4.92994L19.7301 4.89051L14.2745 4.85107C14.2645 5.86054 9.46713 10.8842 7.43248 14.023C5.39783 17.1697 1.14902 22.1933 0.879724 28.8889C0.620407 35.5845 1.08917 35.6713 2.73484 36.8463C2.73484 36.8463 0.680249 37.8637 0.630381 41.9094C0.580512 45.9552 2.83458 47.217 2.83458 47.217C2.83458 47.217 0.540617 49.2438 0.490748 53.5419C0.440879 57.8243 0.0219816 92.0672 0.00203405 93.7154C-0.0179135 95.3637 0.0120081 99.7801 4.92907 99.8195C9.83615 99.859 18.5732 99.9221 18.5732 99.9221Z" fill="#B4E0F5"/>
<path d="M18.5732 99.9217L32.2173 100.024C37.1244 100.064 37.274 95.6394 37.294 93.999C37.3139 92.3586 37.7328 58.1078 37.7827 53.8097C37.8326 49.5116 35.5885 47.4532 35.5885 47.4532C35.5885 47.4532 37.8725 46.2229 37.9223 42.1851C37.9722 38.1393 35.9475 37.0905 35.9475 37.0905C37.6131 35.939 38.0919 35.8681 37.9921 29.1646C37.8924 22.469 33.7732 17.3822 31.8084 14.204C29.8436 11.0258 25.1759 5.93903 25.1858 4.92957L19.7302 4.89014L18.5732 99.9217Z" fill="#B4E0F5"/>
<path d="M24.4064 0.0909195L15.1711 0.0208184C13.6564 0.0093207 12.4167 0.970946 12.4021 2.16867L12.3808 3.92726C12.3662 5.12499 13.5824 6.10525 15.0971 6.11675L24.3324 6.18685C25.8471 6.19835 27.0868 5.23673 27.1014 4.039L27.1227 2.28041C27.1373 1.08268 25.9211 0.102417 24.4064 0.0909195Z" fill="#294B8E"/>
<path d="M0.486147 53.5194L0.114868 84.1016L37.405 84.3846L37.7763 53.8024L0.486147 53.5194Z" fill="#294B8E"/>
</svg>
