<svg width="113" height="121" viewBox="0 0 113 121" fill="none" xmlns="http://www.w3.org/2000/svg">
<g id="Group 772">
<path id="Vector" d="M21.0527 16.2369H109.721L109.79 16.1569C113.64 11.5001 113.64 4.73463 109.79 0.0877587L109.721 0.0078125H21.0527L21.4916 0.48749C25.6108 4.95448 25.4412 11.8998 21.1325 16.1669L21.0527 16.2469V16.2369Z" fill="#B5B5B6"/>
<path id="Vector_2" d="M92.0668 120.996H11.1088V9.6313C11.1088 4.4248 15.2878 0.217631 20.4443 0.217631H99.647C99.647 0.217631 107.865 -0.272039 107.706 0.217631C101.941 0.327557 102.23 16.4567 102.23 16.4567V110.753C102.23 116.409 97.6821 120.996 92.0668 120.996Z" fill="#DCDDDD"/>
<path id="Vector_3" d="M91.9471 120.996H3.27928L3.20946 120.916C-0.640459 116.259 -0.640459 109.494 3.20946 104.847L3.27928 104.767H91.9471L91.5083 105.247C87.3891 109.714 86.6909 117.329 91.9471 121.006V120.996Z" fill="#B5B5B6"/>
</g>
</svg>
