<svg width="113" height="104" viewBox="0 0 113 104" fill="none" xmlns="http://www.w3.org/2000/svg">
<g id="_&#234;&#178;&#169;&#235;&#166;&#172;_&#235;&#170;&#168;&#235;&#147;&#156;" clip-path="url(#clip0_437_1017)">
<path id="Vector" d="M112.55 17.99L89.41 0H74.2C73.74 9.18 66.18 16.48 56.89 16.48C47.6 16.48 40.03 9.18 39.57 0H23.09V0.04L0 17.99L16.55 39.29L24.73 32.57V103.79H87.78V32.53L96 39.28L112.55 17.98V17.99Z" fill="#A1A080"/>
<path id="Vector_2" d="M56.2499 16.47L56.2299 16.45C47.2399 16.11 40.0199 8.96 39.5699 0V21.84L56.2499 16.47Z" fill="#7D7C63"/>
<path id="Vector_3" d="M74.2 0.0297852C73.74 8.97978 66.52 16.1198 57.54 16.4498L57.52 16.4698L74.2 21.8398V0.0297852Z" fill="#7D7C63"/>
<path id="Vector_4" d="M65.16 35.8198V40.6298C65.16 44.7898 68.53 48.1498 72.68 48.1498C76.83 48.1498 80.2 44.7798 80.2 40.6298V35.8198H65.16Z" fill="#7D7C63"/>
<path id="Vector_5" d="M56.89 16.48C57.42 44.44 57.43 75.82 56.89 103.78C56.35 75.82 56.36 44.44 56.89 16.48Z" fill="#7D7C63"/>
<path id="Vector_6" d="M53.94 25.9798C53.94 26.5098 53.51 26.9298 52.99 26.9298C52.47 26.9298 52.04 26.4998 52.04 25.9798C52.04 25.4598 52.47 25.0298 52.99 25.0298C53.51 25.0298 53.94 25.4598 53.94 25.9798Z" fill="#7D7C63"/>
<path id="Vector_7" d="M53.94 43.5301C53.94 44.0601 53.51 44.4801 52.99 44.4801C52.47 44.4801 52.04 44.0501 52.04 43.5301C52.04 43.0101 52.47 42.5801 52.99 42.5801C53.51 42.5801 53.94 43.0101 53.94 43.5301Z" fill="#7D7C63"/>
<path id="Vector_8" d="M53.94 61.0901C53.94 61.6201 53.51 62.0401 52.99 62.0401C52.47 62.0401 52.04 61.6101 52.04 61.0901C52.04 60.5701 52.47 60.1401 52.99 60.1401C53.51 60.1401 53.94 60.5601 53.94 61.0901Z" fill="#7D7C63"/>
<path id="Vector_9" d="M53.94 78.6399C53.94 79.1699 53.51 79.5899 52.99 79.5899C52.47 79.5899 52.04 79.1599 52.04 78.6399C52.04 78.1199 52.47 77.6899 52.99 77.6899C53.51 77.6899 53.94 78.1199 53.94 78.6399Z" fill="#7D7C63"/>
<path id="Vector_10" d="M53.94 96.2C53.94 96.73 53.51 97.15 52.99 97.15C52.47 97.15 52.04 96.72 52.04 96.2C52.04 95.68 52.47 95.25 52.99 95.25C53.51 95.25 53.94 95.68 53.94 96.2Z" fill="#7D7C63"/>
</g>
<defs>
<clipPath id="clip0_437_1017">
<rect width="112.55" height="103.78" fill="white"/>
</clipPath>
</defs>
</svg>
