<svg width="69" height="129" viewBox="0 0 69 129" fill="none" xmlns="http://www.w3.org/2000/svg">
<g id="Group">
<path id="Vector" d="M61.7401 4.94541L8.45007 4.42541C5.13007 4.39541 1.83007 10.1954 1.82007 11.6354L1.77007 16.4854L0.800073 115.035L0.75007 120.085V120.245C0.73007 122.195 4.98007 128.105 7.23007 128.125L60.5201 128.645C62.3601 128.665 67.1401 122.445 67.1601 120.895V120.735L67.2101 115.685L68.1801 17.1354L68.2301 12.2854C68.2501 10.4654 65.6001 4.98541 61.7401 4.95541V4.94541Z" fill="#DEDEDE"/>
<path id="Vector_2" d="M33.8801 128.375L60.5201 128.635C62.3601 128.655 67.1401 122.435 67.1601 120.885V120.725L67.2101 115.675L68.1801 17.1251L68.2301 12.2751C68.2501 10.4551 65.6001 4.97506 61.7401 4.94506L35.1001 4.68506L33.8901 128.375H33.8801Z" fill="#DEDEDE"/>
<path id="Vector_3" d="M68.2102 13.4303L1.80334 12.7812L0.761763 119.346L67.1686 119.995L68.2102 13.4303Z" fill="#294B8E"/>
<path id="Vector_4" d="M68.2086 13.4304L35.0101 13.106L33.9685 119.671L67.167 119.995L68.2086 13.4304Z" fill="#294B8E"/>
<path id="Vector_5" d="M63.7424 0.892169L7.0251 0.337806C6.14701 0.329223 5.42822 1.0341 5.41964 1.91219L5.4043 3.48211C5.39571 4.36021 6.10059 5.079 6.97868 5.08758L63.696 5.64194C64.5741 5.65053 65.2928 4.94565 65.3014 4.06756L65.3168 2.49763C65.3254 1.61954 64.6205 0.900752 63.7424 0.892169Z" fill="#C3C2C3"/>
<path id="Vector_6" d="M35.0901 5.36523L63.0101 5.63523C64.2701 5.64524 65.3101 4.58523 65.3201 3.28523C65.3301 1.97523 64.3101 0.895235 63.0601 0.885235L35.1401 0.615234L35.0901 5.36523Z" fill="#C3C2C3"/>
</g>
</svg>
