<svg width="77" height="78" viewBox="0 0 77 78" fill="none" xmlns="http://www.w3.org/2000/svg">
<g id="_&#234;&#178;&#169;&#235;&#166;&#172;_&#235;&#170;&#168;&#235;&#147;&#156;" clip-path="url(#clip0_438_1028)">
<path id="Vector" d="M0 0V77.09H33.78L38.49 51.66L43.21 77.09H76.99V0H0Z" fill="#CF4245"/>
<path id="Vector_2" d="M1.8 5.31006C1.19 5.31006 0.59 5.35006 0 5.42006V36.2201C0.59 36.2901 1.19 36.3301 1.8 36.3301C10.37 36.3301 17.31 29.3801 17.31 20.8201C17.31 12.2601 10.37 5.31006 1.8 5.31006Z" fill="#A61F22"/>
<path id="Vector_3" d="M1.59 7.27979C1.05 7.27979 0.52 7.31979 0 7.37979V34.6698C0.52 34.7298 1.05 34.7698 1.59 34.7698C9.18 34.7698 15.33 28.6198 15.33 21.0298C15.33 13.4398 9.18 7.27979 1.59 7.27979Z" fill="#CF4245"/>
<path id="Vector_4" d="M75.1999 5.31006C75.8099 5.31006 76.4099 5.35006 76.9999 5.42006V36.2201C76.4099 36.2901 75.8099 36.3301 75.1999 36.3301C66.6299 36.3301 59.6899 29.3801 59.6899 20.8201C59.6899 12.2601 66.6299 5.31006 75.1999 5.31006Z" fill="#A61F22"/>
<path id="Vector_5" d="M75.41 7.27979C75.95 7.27979 76.48 7.31979 77 7.37979V34.6698C76.48 34.7298 75.95 34.7698 75.41 34.7698C67.82 34.7698 61.67 28.6198 61.67 21.0298C61.67 13.4398 67.82 7.28978 75.41 7.28978V7.27979Z" fill="#CF4245"/>
<path id="Vector_6" d="M76.99 0H0V12.76H76.99V0Z" fill="#A61F22"/>
<path id="Vector_7" opacity="0.3" d="M39.38 50.3302C39.38 50.8202 38.98 51.2202 38.49 51.2202C38 51.2202 37.6 50.8202 37.6 50.3302V5.13023C37.6 4.64023 38 4.24023 38.49 4.24023C38.98 4.24023 39.38 4.64023 39.38 5.13023V50.3402V50.3302Z" fill="#A61F22"/>
<path id="Vector_8" d="M76.99 6.4502H0V20.8202H76.99V6.4502Z" fill="#E86668"/>
</g>
<defs>
<clipPath id="clip0_438_1028">
<rect width="77" height="77.09" fill="white"/>
</clipPath>
</defs>
</svg>
