<svg width="113" height="122" viewBox="0 0 113 122" fill="none" xmlns="http://www.w3.org/2000/svg">
<path d="M20.785 16.2473H109.685L109.755 16.1673C113.615 11.5073 113.615 4.73732 109.755 0.0873242L109.685 0.00732422H20.785L21.225 0.487324C25.355 4.95732 25.185 11.9073 20.865 16.1773L20.785 16.2573V16.2473Z" fill="#D9D5BC"/>
<path d="M91.9851 121.078H10.8151V9.63778C10.8151 4.42778 15.0051 0.217778 20.1751 0.217778H99.5851C99.5851 0.217778 107.825 -0.272222 107.665 0.217778C101.885 0.327778 102.175 16.4678 102.175 16.4678V110.828C102.175 116.488 97.6151 121.078 91.9851 121.078Z" fill="#F2EFD8"/>
<path d="M91.865 121.077H2.965L2.895 120.997C-0.965 116.337 -0.965 109.567 2.895 104.917L2.965 104.837H91.865L91.425 105.317C87.295 109.787 86.595 117.407 91.865 121.087V121.077Z" fill="#D9D5BC"/>
</svg>
