<svg width="38" height="138" viewBox="0 0 38 138" fill="none" xmlns="http://www.w3.org/2000/svg">
<g id="Group 787">
<path id="Vector" d="M19.0005 138H31.37C37.8333 137.883 39.6959 129.225 36.4006 124.63C32.5639 119.269 33.7898 110.299 33.6783 107.642C33.5589 104.993 36.5518 85.332 37.4672 68.7345C38.6611 47.1125 30.781 33.6016 28.6955 29.4678C25.1534 22.4194 25.2569 6.70487 25.2569 3.3291H12.7202C12.7202 6.70487 12.8237 22.4194 9.28158 29.4678C7.21204 33.6094 -0.668145 47.1203 0.525822 68.7424C1.44916 85.3399 4.43408 105.001 4.31468 107.65C4.19528 110.299 5.42905 119.277 1.59243 124.638C-1.69496 129.233 0.167632 137.891 6.62301 138.008H18.9925L19.0005 138Z" fill="#DDDDDD"/>
<path id="Vector_2" d="M24.5405 0H13.4526C12.4854 0 11.7014 0.769685 11.7014 1.71914V1.8598C11.7014 2.80925 12.4854 3.57894 13.4526 3.57894H24.5405C25.5077 3.57894 26.2917 2.80925 26.2917 1.8598V1.71914C26.2917 0.769685 25.5077 0 24.5405 0Z" fill="#D1D1D1"/>
<path id="Vector_3" d="M18.7855 72.415H0.557637C0.557637 72.415 -0.198542 64.6945 0.557637 56.0597C1.31382 47.4327 3.39132 42.5566 3.39132 42.5566H34.1798C34.1798 42.5566 36.2573 47.4249 37.0134 56.0597C37.7696 64.6866 37.0134 72.415 37.0134 72.415H18.7855Z" fill="#FC5B58"/>
</g>
</svg>
