<svg width="129" height="17" viewBox="0 0 129 17" fill="none" xmlns="http://www.w3.org/2000/svg">
<path d="M8.10156 16.3164C6.91406 16.3164 5.83984 16.1406 4.87891 15.7891C3.91797 15.4297 3.09375 14.9102 2.40625 14.2305C1.72656 13.543 1.19922 12.7031 0.824219 11.7109C0.457031 10.7109 0.273438 9.57422 0.273438 8.30078C0.273438 6.98828 0.484375 5.84766 0.90625 4.87891C1.33594 3.90234 1.90234 3.08984 2.60547 2.44141C3.31641 1.79297 4.12891 1.30859 5.04297 0.988281C5.96484 0.667969 6.91797 0.507812 7.90234 0.507812C8.89453 0.507812 9.80469 0.636719 10.6328 0.894531C11.4609 1.15234 12.168 1.50391 12.7539 1.94922C13.3477 2.39453 13.8086 2.91797 14.1367 3.51953C14.4648 4.12109 14.6289 4.76953 14.6289 5.46484C14.6289 6.01953 14.5391 6.49219 14.3594 6.88281C14.1797 7.27344 13.9297 7.59375 13.6094 7.84375C13.2969 8.08594 12.918 8.26562 12.4727 8.38281C12.0273 8.5 11.543 8.55859 11.0195 8.55859C10.6914 8.55859 10.3633 8.51562 10.0352 8.42969C9.71484 8.33594 9.41797 8.22266 9.14453 8.08984C8.87109 7.95703 8.63672 7.81641 8.44141 7.66797C8.25391 7.51172 8.13281 7.375 8.07812 7.25781C8.07812 7.05469 8.07812 6.82031 8.07812 6.55469C8.08594 6.28906 8.09766 6.01953 8.11328 5.74609C8.08984 5.73828 8.05859 5.73438 8.01953 5.73438C7.98828 5.73438 7.96484 5.73438 7.94922 5.73438C7.83203 5.73438 7.73828 5.76953 7.66797 5.83984C7.60547 5.90234 7.55469 6.01953 7.51562 6.19141C7.47656 6.35547 7.44922 6.58203 7.43359 6.87109C7.42578 7.16016 7.42188 7.52734 7.42188 7.97266C7.42188 8.57422 7.43359 9.08984 7.45703 9.51953C7.48828 9.94141 7.52734 10.2891 7.57422 10.5625C7.62109 10.8281 7.67969 11.0234 7.75 11.1484C7.82031 11.2734 7.89844 11.3359 7.98438 11.3359C8.0625 11.3359 8.13281 11.3164 8.19531 11.2773V10.2109C8.46875 10.0234 8.80469 9.85547 9.20312 9.70703C9.60156 9.55859 10.0234 9.43359 10.4688 9.33203C10.9219 9.22266 11.3867 9.14062 11.8633 9.08594C12.3398 9.02344 12.793 8.99219 13.2227 8.99219C13.4336 9.21094 13.625 9.48828 13.7969 9.82422C13.9766 10.1602 14.1289 10.5234 14.2539 10.9141C14.3867 11.2969 14.4922 11.6875 14.5703 12.0859C14.6484 12.4766 14.6914 12.8359 14.6992 13.1641C14.5508 13.4531 14.2969 13.7812 13.9375 14.1484C13.5781 14.5078 13.1211 14.8516 12.5664 15.1797C12.0117 15.5 11.3594 15.7695 10.6094 15.9883C9.85938 16.207 9.02344 16.3164 8.10156 16.3164ZM29.6758 15.2266C29.1445 15.625 28.5859 15.8867 28 16.0117C27.4141 16.1445 26.8516 16.2109 26.3125 16.2109C25.7969 16.2109 25.3242 16.1562 24.8945 16.0469C24.4727 15.9375 24.1055 15.7773 23.793 15.5664C23.4883 15.3555 23.25 15.0938 23.0781 14.7812C22.9141 14.4609 22.832 14.0898 22.832 13.668V11.3477H23.6641C23.8438 11.3477 23.9805 11.3359 24.0742 11.3125C24.1758 11.2812 24.25 11.2422 24.2969 11.1953C24.3438 11.1484 24.3711 11.0938 24.3789 11.0312C24.3867 10.9609 24.3906 10.8906 24.3906 10.8203H20.7109C20.7109 10.8906 20.7148 10.9609 20.7227 11.0312C20.7305 11.0938 20.7539 11.1484 20.793 11.1953C20.832 11.2422 20.8906 11.2812 20.9688 11.3125C21.0547 11.3359 21.1719 11.3477 21.3203 11.3477H22.2109V15.2266C21.8828 15.4375 21.5664 15.6094 21.2617 15.7422C20.9648 15.8672 20.6758 15.9648 20.3945 16.0352C20.1133 16.1055 19.8438 16.1523 19.5859 16.1758C19.3281 16.1992 19.082 16.2109 18.8477 16.2109C18.332 16.2109 17.8594 16.1562 17.4297 16.0469C17.0078 15.9375 16.6406 15.7773 16.3281 15.5664C16.0234 15.3555 15.7852 15.0938 15.6133 14.7812C15.4492 14.4609 15.3672 14.0898 15.3672 13.668V2.00781C15.7812 1.57031 16.2891 1.23828 16.8906 1.01172C17.4922 0.785156 18.1094 0.671875 18.7422 0.671875C19.1797 0.671875 19.6055 0.730469 20.0195 0.847656C20.4414 0.964844 20.8125 1.14453 21.1328 1.38672C21.4609 1.62109 21.7227 1.92188 21.918 2.28906C22.1133 2.65625 22.2109 3.08594 22.2109 3.57812V5.66406H23.6992C23.6992 5.44531 23.6602 5.30469 23.582 5.24219C23.5039 5.17188 23.3867 5.13672 23.2305 5.13672H22.832V2.00781C23.2461 1.57031 23.7539 1.23828 24.3555 1.01172C24.957 0.785156 25.5742 0.671875 26.207 0.671875C26.6445 0.671875 27.0703 0.730469 27.4844 0.847656C27.9062 0.964844 28.2773 1.14453 28.5977 1.38672C28.9258 1.62109 29.1875 1.92188 29.3828 2.28906C29.5781 2.65625 29.6758 3.08594 29.6758 3.57812V15.2266ZM32.7812 1.9375C33.0859 1.74219 33.4297 1.56641 33.8125 1.41016C34.1953 1.24609 34.5977 1.10938 35.0195 1C35.4492 0.890625 35.8906 0.808594 36.3438 0.753906C36.8047 0.691406 37.2656 0.660156 37.7266 0.660156C38.3359 0.660156 38.9375 0.714844 39.5312 0.824219C40.1328 0.933594 40.6797 1.10547 41.1719 1.33984C41.6641 1.57422 42.0859 1.87891 42.4375 2.25391C42.7891 2.62109 43.0273 3.0625 43.1523 3.57812L45.8242 14.6289C45.4648 15.0898 44.9609 15.4688 44.3125 15.7656C43.6641 16.0625 42.8438 16.2109 41.8516 16.2109C41.4141 16.2109 41.0039 16.1719 40.6211 16.0938C40.2383 16.0156 39.8984 15.9023 39.6016 15.7539C39.3125 15.5977 39.0703 15.4062 38.875 15.1797C38.6875 14.9453 38.5664 14.6719 38.5117 14.3594L38.2539 12.9297C38.4961 12.9219 38.7344 12.8945 38.9688 12.8477C39.2109 12.793 39.4258 12.7305 39.6133 12.6602C39.8086 12.582 39.9648 12.4961 40.082 12.4023C40.207 12.3086 40.2695 12.2148 40.2695 12.1211C40.2695 11.9961 40.2188 11.8945 40.1172 11.8164C39.9766 11.918 39.8125 12.0117 39.625 12.0977C39.4375 12.1758 39.2383 12.2422 39.0273 12.2969C38.8242 12.3516 38.6172 12.3945 38.4062 12.4258C38.2031 12.4492 38.0117 12.4609 37.832 12.4609C37.4961 12.4609 37.1953 12.4414 36.9297 12.4023C36.6719 12.3555 36.4453 12.3008 36.25 12.2383C36.0547 12.1758 35.8867 12.1094 35.7461 12.0391C35.6055 11.9609 35.4883 11.8867 35.3945 11.8164C35.3633 11.8555 35.3359 11.9023 35.3125 11.957C35.2891 12.0039 35.2773 12.0586 35.2773 12.1211C35.2773 12.2383 35.3359 12.3477 35.4531 12.4492C35.5781 12.543 35.7422 12.6289 35.9453 12.707C36.1484 12.7773 36.3789 12.8359 36.6367 12.8828C36.9023 12.9297 37.1797 12.9609 37.4688 12.9766C37.5156 13.5234 37.5664 13.9609 37.6211 14.2891C37.6836 14.6094 37.7422 14.8125 37.7969 14.8984C37.7266 15.0312 37.5859 15.1758 37.375 15.332C37.1719 15.4805 36.9141 15.6211 36.6016 15.7539C36.2969 15.8867 35.9453 15.9961 35.5469 16.082C35.1562 16.168 34.7383 16.2109 34.293 16.2109C33.7383 16.2109 33.2148 16.1484 32.7227 16.0234C32.2305 15.8984 31.8008 15.7266 31.4336 15.5078C31.0664 15.2812 30.7734 15.0117 30.5547 14.6992C30.3359 14.3789 30.2266 14.0234 30.2266 13.6328C30.2266 13.5469 30.2305 13.4609 30.2383 13.375C30.2461 13.2812 30.2617 13.1875 30.2852 13.0938L32.7812 1.9375ZM38.2891 7.97266C38.2031 7.50391 38.1328 7.12891 38.0781 6.84766C38.0312 6.56641 37.9805 6.35547 37.9258 6.21484C37.8789 6.06641 37.8242 5.97266 37.7617 5.93359C37.707 5.88672 37.6367 5.86328 37.5508 5.86328C37.4961 5.86328 37.4453 5.87109 37.3984 5.88672C37.3516 5.90234 37.3086 5.91797 37.2695 5.93359L37.7148 8.30078C37.7461 8.33203 37.7891 8.35547 37.8438 8.37109C37.9062 8.38672 37.9609 8.39453 38.0078 8.39453C38.0781 8.39453 38.1445 8.38672 38.207 8.37109C38.2695 8.34766 38.3164 8.32812 38.3477 8.3125L38.2891 7.97266ZM48.9062 16.0117C48.0625 16.0117 47.3984 15.7891 46.9141 15.3438C46.4297 14.8906 46.1875 14.1875 46.1875 13.2344V1.77344C46.6016 1.42188 47.1094 1.15234 47.7109 0.964844C48.3125 0.769531 48.9297 0.671875 49.5625 0.671875C50 0.671875 50.4258 0.730469 50.8398 0.847656C51.2617 0.964844 51.6328 1.14453 51.9531 1.38672C52.2812 1.62109 52.543 1.92188 52.7383 2.28906C52.9336 2.65625 53.0312 3.08594 53.0312 3.57812V9.98828C52.8359 10.0039 52.625 10.043 52.3984 10.1055C52.1797 10.168 51.9727 10.2461 51.7773 10.3398C51.5898 10.4336 51.4297 10.5391 51.2969 10.6562C51.1719 10.7656 51.1094 10.8789 51.1094 10.9961C51.1094 11.082 51.1289 11.1523 51.168 11.207C51.2148 11.2539 51.2695 11.2969 51.332 11.3359C51.7695 10.9688 52.2695 10.7148 52.832 10.5742C53.3945 10.4336 54.043 10.3633 54.7773 10.3633H57.5547C57.6719 10.5664 57.7773 10.7812 57.8711 11.0078C57.9648 11.2266 58.043 11.4531 58.1055 11.6875C58.1758 11.9141 58.2305 12.1406 58.2695 12.3672C58.3086 12.5938 58.3281 12.8047 58.3281 13C58.3281 13.2812 58.3047 13.5703 58.2578 13.8672C58.2188 14.1562 58.1602 14.4336 58.082 14.6992C58.0039 14.9648 57.9102 15.2109 57.8008 15.4375C57.6914 15.6641 57.5664 15.8555 57.4258 16.0117H48.9062ZM61.5391 16.0117C60.6953 16.0117 60.0312 15.7891 59.5469 15.3438C59.0625 14.8906 58.8203 14.1875 58.8203 13.2344V1.77344C59.2344 1.42188 59.7422 1.15234 60.3438 0.964844C60.9453 0.769531 61.5625 0.671875 62.1953 0.671875C62.6328 0.671875 63.0586 0.730469 63.4727 0.847656C63.8945 0.964844 64.2656 1.14453 64.5859 1.38672C64.9141 1.62109 65.1758 1.92188 65.3711 2.28906C65.5664 2.65625 65.6641 3.08594 65.6641 3.57812V9.98828C65.4688 10.0039 65.2578 10.043 65.0312 10.1055C64.8125 10.168 64.6055 10.2461 64.4102 10.3398C64.2227 10.4336 64.0625 10.5391 63.9297 10.6562C63.8047 10.7656 63.7422 10.8789 63.7422 10.9961C63.7422 11.082 63.7617 11.1523 63.8008 11.207C63.8477 11.2539 63.9023 11.2969 63.9648 11.3359C64.4023 10.9688 64.9023 10.7148 65.4648 10.5742C66.0273 10.4336 66.6758 10.3633 67.4102 10.3633H70.1875C70.3047 10.5664 70.4102 10.7812 70.5039 11.0078C70.5977 11.2266 70.6758 11.4531 70.7383 11.6875C70.8086 11.9141 70.8633 12.1406 70.9023 12.3672C70.9414 12.5938 70.9609 12.8047 70.9609 13C70.9609 13.2812 70.9375 13.5703 70.8906 13.8672C70.8516 14.1562 70.793 14.4336 70.7148 14.6992C70.6367 14.9648 70.543 15.2109 70.4336 15.4375C70.3242 15.6641 70.1992 15.8555 70.0586 16.0117H61.5391ZM83.4883 0.882812C83.5898 1.04688 83.6836 1.23047 83.7695 1.43359C83.8555 1.62891 83.9258 1.83594 83.9805 2.05469C84.0352 2.26562 84.0781 2.48047 84.1094 2.69922C84.1406 2.91016 84.1562 3.10938 84.1562 3.29688C84.1562 4.10156 84 4.69922 83.6875 5.08984C83.375 5.48047 82.9453 5.67578 82.3984 5.67578H77.6758C77.3867 5.67578 77.2422 5.78906 77.2422 6.01562C77.2422 6.03125 77.2422 6.0625 77.2422 6.10938C77.2422 6.15625 77.25 6.1875 77.2656 6.20312H82.8672C82.9375 6.32031 83.0039 6.46094 83.0664 6.625C83.1289 6.78125 83.1797 6.94922 83.2188 7.12891C83.2656 7.30078 83.3008 7.48047 83.3242 7.66797C83.3555 7.84766 83.3711 8.01953 83.3711 8.18359C83.3711 8.65234 83.3242 9.07422 83.2305 9.44922C83.1367 9.81641 83.0117 10.1211 82.8555 10.3633H80.3125C79.6484 10.3633 79.0977 10.3828 78.6602 10.4219C78.2305 10.4531 77.8906 10.4961 77.6406 10.5508C77.3906 10.6055 77.2148 10.668 77.1133 10.7383C77.0117 10.8008 76.9609 10.8672 76.9609 10.9375C76.9609 11 76.9688 11.0586 76.9844 11.1133C77.0078 11.168 77.0547 11.2148 77.125 11.2539C77.3203 11.1914 77.5195 11.1367 77.7227 11.0898C77.9258 11.043 78.1523 11.0078 78.4023 10.9844C78.6523 10.9531 78.9297 10.9297 79.2344 10.9141C79.5469 10.8984 79.9062 10.8906 80.3125 10.8906H83.6055C83.6914 11.0156 83.7773 11.1562 83.8633 11.3125C83.9492 11.4609 84.0234 11.6367 84.0859 11.8398C84.1562 12.0352 84.2109 12.2617 84.25 12.5195C84.2969 12.7773 84.3203 13.0742 84.3203 13.4102C84.3203 13.6211 84.3047 13.8477 84.2734 14.0898C84.2422 14.3242 84.1953 14.5586 84.1328 14.793C84.0703 15.0273 83.9883 15.25 83.8867 15.4609C83.7852 15.6719 83.6641 15.8555 83.5234 16.0117H74.7461C74.2852 16.0117 73.8555 15.957 73.457 15.8477C73.0586 15.7305 72.7109 15.5547 72.4141 15.3203C72.1172 15.0781 71.8828 14.7773 71.7109 14.418C71.5391 14.0508 71.4531 13.6133 71.4531 13.1055V1.96094C71.4531 1.58594 71.8867 1.3125 72.7539 1.14062C73.6211 0.96875 74.9453 0.882812 76.7266 0.882812H83.4883ZM92.0664 1.69141C92.2695 1.51953 92.4961 1.37109 92.7461 1.24609C93.0039 1.11328 93.2734 1.00391 93.5547 0.917969C93.8359 0.832031 94.125 0.769531 94.4219 0.730469C94.7188 0.683594 95.0078 0.660156 95.2891 0.660156C95.7266 0.660156 96.1523 0.703125 96.5664 0.789062C96.9883 0.867188 97.3594 1.00391 97.6797 1.19922C98.0078 1.39453 98.2695 1.65625 98.4648 1.98438C98.6602 2.3125 98.7578 2.72266 98.7578 3.21484V14.3125C98.7578 14.6641 98.668 14.9609 98.4883 15.2031C98.3164 15.4453 98.082 15.6406 97.7852 15.7891C97.4961 15.9297 97.1602 16.0312 96.7773 16.0938C96.4023 16.1562 96.0117 16.1875 95.6055 16.1875C95.3555 16.1875 95.1016 16.1719 94.8438 16.1406C94.5938 16.1172 94.3555 16.0781 94.1289 16.0234C93.9023 15.9688 93.6914 15.9062 93.4961 15.8359C93.3008 15.7656 93.1328 15.6875 92.9922 15.6016C92.6562 15.1719 92.3516 14.7578 92.0781 14.3594C91.8125 13.9609 91.5664 13.5781 91.3398 13.2109C91.1133 12.8438 90.9023 12.4961 90.707 12.168C90.5117 11.832 90.3242 11.5156 90.1445 11.2188C90.0117 11.2344 89.9219 11.2773 89.875 11.3477C89.8281 11.4102 89.8047 11.4883 89.8047 11.582C89.8047 11.6992 89.8359 11.8164 89.8984 11.9336C89.9609 12.043 90.043 12.1797 90.1445 12.3438L91.6094 14.7109V15.332C91.4922 15.4102 91.3438 15.5 91.1641 15.6016C90.9844 15.7031 90.7617 15.8008 90.4961 15.8945C90.2383 15.9805 89.9375 16.0547 89.5938 16.1172C89.25 16.1797 88.8555 16.2109 88.4102 16.2109C87.9023 16.2109 87.4336 16.1602 87.0039 16.0586C86.5742 15.957 86.2031 15.8086 85.8906 15.6133C85.5781 15.4102 85.3359 15.1602 85.1641 14.8633C84.9922 14.5664 84.9062 14.2227 84.9062 13.832V2.08984C84.9062 1.89453 84.9922 1.71094 85.1641 1.53906C85.3359 1.35938 85.5703 1.20703 85.8672 1.08203C86.1641 0.957031 86.5117 0.859375 86.9102 0.789062C87.3086 0.710938 87.7344 0.671875 88.1875 0.671875C88.7031 0.671875 89.1797 0.734375 89.6172 0.859375C90.0547 0.984375 90.3867 1.13672 90.6133 1.31641C90.7852 1.53516 90.9727 1.79688 91.1758 2.10156C91.3789 2.39844 91.5938 2.73047 91.8203 3.09766C92.0469 3.45703 92.2812 3.84375 92.5234 4.25781C92.7734 4.66406 93.0273 5.08203 93.2852 5.51172C93.3633 5.51172 93.4375 5.48828 93.5078 5.44141C93.5859 5.38672 93.625 5.30078 93.625 5.18359C93.625 5.09766 93.5938 4.99609 93.5312 4.87891C93.4688 4.75391 93.4023 4.63281 93.332 4.51562L92.0664 2.33594V1.69141ZM108.25 10.8438C108 10.8438 107.766 10.7969 107.547 10.7031C107.336 10.6016 107.148 10.4531 106.984 10.2578C106.82 10.0625 106.691 9.82031 106.598 9.53125C106.504 9.23438 106.457 8.89453 106.457 8.51172C106.457 8.21484 106.484 7.94531 106.539 7.70312C106.594 7.45312 106.66 7.23438 106.738 7.04688C106.816 6.85156 106.902 6.6875 106.996 6.55469C107.09 6.42188 107.172 6.31641 107.242 6.23828H114.191C114.434 6.58984 114.605 6.97656 114.707 7.39844C114.809 7.8125 114.859 8.22266 114.859 8.62891C114.859 9.09766 114.801 9.52734 114.684 9.91797C114.574 10.3008 114.441 10.6133 114.285 10.8555H113.805V14.3711C113.5 14.6367 113.152 14.8906 112.762 15.1328C112.371 15.375 111.926 15.5898 111.426 15.7773C110.934 15.957 110.379 16.1016 109.762 16.2109C109.145 16.3203 108.461 16.375 107.711 16.375C106.984 16.375 106.273 16.3086 105.578 16.1758C104.883 16.043 104.227 15.8398 103.609 15.5664C102.992 15.2852 102.426 14.9336 101.91 14.5117C101.395 14.082 100.949 13.5742 100.574 12.9883C100.199 12.4023 99.9062 11.7344 99.6953 10.9844C99.4922 10.2266 99.3906 9.37891 99.3906 8.44141C99.3906 7.12891 99.5898 5.98047 99.9883 4.99609C100.395 4.00391 100.957 3.17578 101.676 2.51172C102.402 1.84766 103.266 1.34766 104.266 1.01172C105.273 0.675781 106.383 0.507812 107.594 0.507812C108.227 0.507812 108.844 0.5625 109.445 0.671875C110.047 0.773438 110.609 0.914062 111.133 1.09375C111.656 1.26562 112.133 1.46875 112.562 1.70312C112.992 1.92969 113.355 2.17188 113.652 2.42969C113.652 2.6875 113.637 2.96875 113.605 3.27344C113.574 3.57812 113.531 3.88281 113.477 4.1875C113.43 4.48438 113.367 4.76953 113.289 5.04297C113.219 5.30859 113.141 5.53125 113.055 5.71094H106.879C106.785 5.8125 106.676 5.94922 106.551 6.12109C106.434 6.29297 106.32 6.5 106.211 6.74219C106.109 6.97656 106.02 7.25 105.941 7.5625C105.871 7.86719 105.836 8.20703 105.836 8.58203C105.836 9.05859 105.895 9.47266 106.012 9.82422C106.137 10.168 106.297 10.457 106.492 10.6914C106.695 10.918 106.926 11.0898 107.184 11.207C107.449 11.3164 107.723 11.3711 108.004 11.3711C108.145 11.3711 108.242 11.3477 108.297 11.3008C108.352 11.2461 108.379 11.1836 108.379 11.1133V10.8438H108.25ZM127.363 0.882812C127.465 1.04688 127.559 1.23047 127.645 1.43359C127.73 1.62891 127.801 1.83594 127.855 2.05469C127.91 2.26562 127.953 2.48047 127.984 2.69922C128.016 2.91016 128.031 3.10938 128.031 3.29688C128.031 4.10156 127.875 4.69922 127.562 5.08984C127.25 5.48047 126.82 5.67578 126.273 5.67578H121.551C121.262 5.67578 121.117 5.78906 121.117 6.01562C121.117 6.03125 121.117 6.0625 121.117 6.10938C121.117 6.15625 121.125 6.1875 121.141 6.20312H126.742C126.812 6.32031 126.879 6.46094 126.941 6.625C127.004 6.78125 127.055 6.94922 127.094 7.12891C127.141 7.30078 127.176 7.48047 127.199 7.66797C127.23 7.84766 127.246 8.01953 127.246 8.18359C127.246 8.65234 127.199 9.07422 127.105 9.44922C127.012 9.81641 126.887 10.1211 126.73 10.3633H124.188C123.523 10.3633 122.973 10.3828 122.535 10.4219C122.105 10.4531 121.766 10.4961 121.516 10.5508C121.266 10.6055 121.09 10.668 120.988 10.7383C120.887 10.8008 120.836 10.8672 120.836 10.9375C120.836 11 120.844 11.0586 120.859 11.1133C120.883 11.168 120.93 11.2148 121 11.2539C121.195 11.1914 121.395 11.1367 121.598 11.0898C121.801 11.043 122.027 11.0078 122.277 10.9844C122.527 10.9531 122.805 10.9297 123.109 10.9141C123.422 10.8984 123.781 10.8906 124.188 10.8906H127.48C127.566 11.0156 127.652 11.1562 127.738 11.3125C127.824 11.4609 127.898 11.6367 127.961 11.8398C128.031 12.0352 128.086 12.2617 128.125 12.5195C128.172 12.7773 128.195 13.0742 128.195 13.4102C128.195 13.6211 128.18 13.8477 128.148 14.0898C128.117 14.3242 128.07 14.5586 128.008 14.793C127.945 15.0273 127.863 15.25 127.762 15.4609C127.66 15.6719 127.539 15.8555 127.398 16.0117H118.621C118.16 16.0117 117.73 15.957 117.332 15.8477C116.934 15.7305 116.586 15.5547 116.289 15.3203C115.992 15.0781 115.758 14.7773 115.586 14.418C115.414 14.0508 115.328 13.6133 115.328 13.1055V1.96094C115.328 1.58594 115.762 1.3125 116.629 1.14062C117.496 0.96875 118.82 0.882812 120.602 0.882812H127.363Z" fill="#5356FF"/>
</svg>
