<svg width="90" height="17" viewBox="0 0 90 17" fill="none" xmlns="http://www.w3.org/2000/svg">
<path d="M15.1992 12.4141C15.0664 13.6094 14.6875 14.543 14.0625 15.2148C13.4453 15.8789 12.5703 16.2109 11.4375 16.2109C11.0703 16.2109 10.6992 16.168 10.3242 16.082C9.95703 15.9961 9.59766 15.8438 9.24609 15.625C8.90234 15.3984 8.57812 15.0938 8.27344 14.7109C7.96875 14.3203 7.70703 13.8242 7.48828 13.2227L7.06641 12.0742C6.76172 12.0664 6.51562 12.0508 6.32812 12.0273C6.14062 11.9961 5.97266 11.9688 5.82422 11.9453C5.80078 11.9688 5.77734 12 5.75391 12.0391C5.73828 12.0781 5.73047 12.1328 5.73047 12.2031C5.73047 12.2969 5.79297 12.3789 5.91797 12.4492C6.04297 12.5117 6.29688 12.5547 6.67969 12.5781L7.34766 14.2656V15.2617C6.91016 15.5742 6.39062 15.8125 5.78906 15.9766C5.1875 16.1328 4.55469 16.2109 3.89062 16.2109C3.40625 16.2109 2.96094 16.1602 2.55469 16.0586C2.15625 15.9648 1.80859 15.8164 1.51172 15.6133C1.21484 15.4102 0.984375 15.1602 0.820312 14.8633C0.65625 14.5586 0.574219 14.1992 0.574219 13.7852V2.65234C0.574219 2.47266 0.664062 2.29688 0.84375 2.125C1.02344 1.94531 1.26953 1.77734 1.58203 1.62109C1.89453 1.46484 2.26172 1.32422 2.68359 1.19922C3.10547 1.06641 3.55469 0.953125 4.03125 0.859375C4.51562 0.765625 5.01562 0.695312 5.53125 0.648438C6.05469 0.59375 6.57031 0.566406 7.07812 0.566406C8.21094 0.566406 9.24219 0.6875 10.1719 0.929688C11.1094 1.17188 11.9102 1.53516 12.5742 2.01953C13.2383 2.49609 13.75 3.08984 14.1094 3.80078C14.4766 4.50391 14.6602 5.32422 14.6602 6.26172C14.6602 6.80859 14.5742 7.3125 14.4023 7.77344C14.2383 8.23438 14.0156 8.64453 13.7344 9.00391C13.4531 9.36328 13.1211 9.67188 12.7383 9.92969C12.3633 10.1797 11.9648 10.3711 11.543 10.5039C11.543 10.6445 11.582 10.7422 11.6602 10.7969C11.7383 10.8516 11.832 10.8789 11.9414 10.8789C12.0508 10.8789 12.2148 10.8398 12.4336 10.7617C12.6523 10.6836 12.8984 10.543 13.1719 10.3398L15.1992 12.4141ZM7.125 7.66797C7.14844 7.68359 7.18359 7.69531 7.23047 7.70312C7.28516 7.70312 7.32031 7.70312 7.33594 7.70312C7.52344 7.70312 7.65625 7.64453 7.73438 7.52734C7.8125 7.41016 7.85156 7.21875 7.85156 6.95312V6.53125C7.85156 6.25781 7.81641 6.05859 7.74609 5.93359C7.68359 5.80859 7.5625 5.74609 7.38281 5.74609C7.34375 5.74609 7.29688 5.75 7.24219 5.75781C7.1875 5.76562 7.14453 5.77734 7.11328 5.79297C7.12109 5.85547 7.125 5.92188 7.125 5.99219C7.125 6.0625 7.125 6.13672 7.125 6.21484V7.66797ZM27.6797 0.882812C27.7812 1.04688 27.875 1.23047 27.9609 1.43359C28.0469 1.62891 28.1172 1.83594 28.1719 2.05469C28.2266 2.26562 28.2695 2.48047 28.3008 2.69922C28.332 2.91016 28.3477 3.10938 28.3477 3.29688C28.3477 4.10156 28.1914 4.69922 27.8789 5.08984C27.5664 5.48047 27.1367 5.67578 26.5898 5.67578H21.8672C21.5781 5.67578 21.4336 5.78906 21.4336 6.01562C21.4336 6.03125 21.4336 6.0625 21.4336 6.10938C21.4336 6.15625 21.4414 6.1875 21.457 6.20312H27.0586C27.1289 6.32031 27.1953 6.46094 27.2578 6.625C27.3203 6.78125 27.3711 6.94922 27.4102 7.12891C27.457 7.30078 27.4922 7.48047 27.5156 7.66797C27.5469 7.84766 27.5625 8.01953 27.5625 8.18359C27.5625 8.65234 27.5156 9.07422 27.4219 9.44922C27.3281 9.81641 27.2031 10.1211 27.0469 10.3633H24.5039C23.8398 10.3633 23.2891 10.3828 22.8516 10.4219C22.4219 10.4531 22.082 10.4961 21.832 10.5508C21.582 10.6055 21.4062 10.668 21.3047 10.7383C21.2031 10.8008 21.1523 10.8672 21.1523 10.9375C21.1523 11 21.1602 11.0586 21.1758 11.1133C21.1992 11.168 21.2461 11.2148 21.3164 11.2539C21.5117 11.1914 21.7109 11.1367 21.9141 11.0898C22.1172 11.043 22.3438 11.0078 22.5938 10.9844C22.8438 10.9531 23.1211 10.9297 23.4258 10.9141C23.7383 10.8984 24.0977 10.8906 24.5039 10.8906H27.7969C27.8828 11.0156 27.9688 11.1562 28.0547 11.3125C28.1406 11.4609 28.2148 11.6367 28.2773 11.8398C28.3477 12.0352 28.4023 12.2617 28.4414 12.5195C28.4883 12.7773 28.5117 13.0742 28.5117 13.4102C28.5117 13.6211 28.4961 13.8477 28.4648 14.0898C28.4336 14.3242 28.3867 14.5586 28.3242 14.793C28.2617 15.0273 28.1797 15.25 28.0781 15.4609C27.9766 15.6719 27.8555 15.8555 27.7148 16.0117H18.9375C18.4766 16.0117 18.0469 15.957 17.6484 15.8477C17.25 15.7305 16.9023 15.5547 16.6055 15.3203C16.3086 15.0781 16.0742 14.7773 15.9023 14.418C15.7305 14.0508 15.6445 13.6133 15.6445 13.1055V1.96094C15.6445 1.58594 16.0781 1.3125 16.9453 1.14062C17.8125 0.96875 19.1367 0.882812 20.918 0.882812H27.6797ZM29.0977 2.48828C29.0977 2.30859 29.2422 2.10938 29.5312 1.89062C29.8281 1.66406 30.2539 1.45312 30.8086 1.25781C31.3633 1.0625 32.0391 0.898438 32.8359 0.765625C33.6406 0.632812 34.5469 0.566406 35.5547 0.566406C36.7969 0.566406 37.8555 0.691406 38.7305 0.941406C39.6055 1.18359 40.3164 1.51172 40.8633 1.92578C41.418 2.33984 41.8203 2.82031 42.0703 3.36719C42.3281 3.90625 42.457 4.47266 42.457 5.06641C42.457 5.29297 42.4375 5.52344 42.3984 5.75781C42.3594 5.98438 42.3008 6.20312 42.2227 6.41406C42.1445 6.625 42.043 6.82422 41.918 7.01172C41.8008 7.19141 41.6641 7.33984 41.5078 7.45703C41.2891 7.34766 41.0742 7.26953 40.8633 7.22266C40.6523 7.16797 40.4688 7.14062 40.3125 7.14062C40.1484 7.14062 40.0156 7.17188 39.9141 7.23438C39.8125 7.29688 39.7617 7.42969 39.7617 7.63281C40.3711 7.65625 40.8984 7.78125 41.3438 8.00781C41.7891 8.23438 42.1562 8.52734 42.4453 8.88672C42.7344 9.23828 42.9492 9.64453 43.0898 10.1055C43.2305 10.5586 43.3008 11.0312 43.3008 11.5234C43.3008 12.3672 43.125 13.082 42.7734 13.668C42.4219 14.2539 41.9102 14.7305 41.2383 15.0977C40.5742 15.457 39.7539 15.7188 38.7773 15.8828C37.8086 16.0469 36.7031 16.1289 35.4609 16.1289C34.5703 16.1289 33.8008 16.1133 33.1523 16.082C32.5039 16.0586 31.9453 16.0156 31.4766 15.9531C30.6484 15.8438 30.043 15.582 29.6602 15.168C29.2852 14.7461 29.0977 14.1016 29.0977 13.2344V2.48828ZM35.4609 7C35.4844 7.01562 35.5195 7.02734 35.5664 7.03516C35.6211 7.03516 35.6562 7.03516 35.6719 7.03516C35.8594 7.03516 35.9922 6.97656 36.0703 6.85938C36.1484 6.74219 36.1875 6.55078 36.1875 6.28516V6.21484C36.1875 5.94141 36.1523 5.74219 36.082 5.61719C36.0195 5.49219 35.8984 5.42969 35.7188 5.42969C35.6797 5.42969 35.6328 5.43359 35.5781 5.44141C35.5234 5.44922 35.4805 5.46094 35.4492 5.47656C35.457 5.53906 35.4609 5.60547 35.4609 5.67578C35.4609 5.74609 35.4609 5.82031 35.4609 5.89844V7ZM35.4609 11.418C35.4844 11.4336 35.5195 11.4453 35.5664 11.4531C35.6211 11.4531 35.6562 11.4531 35.6719 11.4531C35.8594 11.4531 35.9922 11.4062 36.0703 11.3125C36.1484 11.2109 36.1875 11.0273 36.1875 10.7617V10.5391C36.1875 10.2656 36.1523 10.0625 36.082 9.92969C36.0195 9.79688 35.8984 9.73047 35.7188 9.73047C35.6797 9.73047 35.6328 9.73438 35.5781 9.74219C35.5234 9.75 35.4805 9.76172 35.4492 9.77734C35.457 9.83984 35.4609 9.90625 35.4609 9.97656C35.4609 10.0469 35.4609 10.1211 35.4609 10.1992V11.418ZM51.2344 16.375C50.5781 16.375 49.9297 16.3047 49.2891 16.1641C48.6484 16.0312 48.043 15.8242 47.4727 15.543C46.9023 15.2617 46.375 14.9062 45.8906 14.4766C45.4141 14.0469 45 13.5391 44.6484 12.9531C44.2969 12.3672 44.0234 11.6992 43.8281 10.9492C43.6328 10.1992 43.5352 9.36328 43.5352 8.44141C43.5352 7.07422 43.7461 5.89453 44.168 4.90234C44.5898 3.90234 45.1523 3.07812 45.8555 2.42969C46.5586 1.77344 47.3672 1.28906 48.2812 0.976562C49.2031 0.664062 50.1641 0.507812 51.1641 0.507812C52.3516 0.507812 53.418 0.703125 54.3633 1.09375C55.3086 1.47656 56.1094 2.01562 56.7656 2.71094C57.4219 3.40625 57.9258 4.24219 58.2773 5.21875C58.6289 6.19531 58.8047 7.26953 58.8047 8.44141C58.8047 9.83203 58.6055 11.0273 58.207 12.0273C57.8164 13.0273 57.2773 13.8516 56.5898 14.5C55.9102 15.1406 55.1094 15.6133 54.1875 15.918C53.2734 16.2227 52.2891 16.375 51.2344 16.375ZM51.7031 7.91406C51.7031 7.53906 51.6953 7.21875 51.6797 6.95312C51.6641 6.67969 51.6367 6.45312 51.5977 6.27344C51.5586 6.10938 51.5039 6 51.4336 5.94531C51.3711 5.89062 51.2969 5.86328 51.2109 5.86328C51.125 5.86328 51.0586 5.87891 51.0117 5.91016C50.9648 5.93359 50.9258 5.95703 50.8945 5.98047C50.9023 6.12109 50.9141 6.25391 50.9297 6.37891C50.9453 6.49609 50.957 6.63281 50.9648 6.78906C50.9805 6.9375 50.9922 7.11328 51 7.31641C51.0078 7.51172 51.0117 7.75391 51.0117 8.04297V8.80469C51.0117 9.09375 51.0078 9.33984 51 9.54297C50.9922 9.73828 50.9805 9.91406 50.9648 10.0703C50.957 10.2188 50.9453 10.3555 50.9297 10.4805C50.9141 10.5977 50.9023 10.7266 50.8945 10.8672C50.9258 10.8906 50.9648 10.918 51.0117 10.9492C51.0586 10.9727 51.125 10.9844 51.2109 10.9844C51.2969 10.9844 51.3711 10.957 51.4336 10.9023C51.5039 10.8477 51.5586 10.7383 51.5977 10.5742C51.6367 10.3945 51.6641 10.1719 51.6797 9.90625C51.6953 9.63281 51.7031 9.30859 51.7031 8.93359V7.91406ZM67.0312 16.375C66.375 16.375 65.7266 16.3047 65.0859 16.1641C64.4453 16.0312 63.8398 15.8242 63.2695 15.543C62.6992 15.2617 62.1719 14.9062 61.6875 14.4766C61.2109 14.0469 60.7969 13.5391 60.4453 12.9531C60.0938 12.3672 59.8203 11.6992 59.625 10.9492C59.4297 10.1992 59.332 9.36328 59.332 8.44141C59.332 7.07422 59.543 5.89453 59.9648 4.90234C60.3867 3.90234 60.9492 3.07812 61.6523 2.42969C62.3555 1.77344 63.1641 1.28906 64.0781 0.976562C65 0.664062 65.9609 0.507812 66.9609 0.507812C68.1484 0.507812 69.2148 0.703125 70.1602 1.09375C71.1055 1.47656 71.9062 2.01562 72.5625 2.71094C73.2188 3.40625 73.7227 4.24219 74.0742 5.21875C74.4258 6.19531 74.6016 7.26953 74.6016 8.44141C74.6016 9.83203 74.4023 11.0273 74.0039 12.0273C73.6133 13.0273 73.0742 13.8516 72.3867 14.5C71.707 15.1406 70.9062 15.6133 69.9844 15.918C69.0703 16.2227 68.0859 16.375 67.0312 16.375ZM67.5 7.91406C67.5 7.53906 67.4922 7.21875 67.4766 6.95312C67.4609 6.67969 67.4336 6.45312 67.3945 6.27344C67.3555 6.10938 67.3008 6 67.2305 5.94531C67.168 5.89062 67.0938 5.86328 67.0078 5.86328C66.9219 5.86328 66.8555 5.87891 66.8086 5.91016C66.7617 5.93359 66.7227 5.95703 66.6914 5.98047C66.6992 6.12109 66.7109 6.25391 66.7266 6.37891C66.7422 6.49609 66.7539 6.63281 66.7617 6.78906C66.7773 6.9375 66.7891 7.11328 66.7969 7.31641C66.8047 7.51172 66.8086 7.75391 66.8086 8.04297V8.80469C66.8086 9.09375 66.8047 9.33984 66.7969 9.54297C66.7891 9.73828 66.7773 9.91406 66.7617 10.0703C66.7539 10.2188 66.7422 10.3555 66.7266 10.4805C66.7109 10.5977 66.6992 10.7266 66.6914 10.8672C66.7227 10.8906 66.7617 10.918 66.8086 10.9492C66.8555 10.9727 66.9219 10.9844 67.0078 10.9844C67.0938 10.9844 67.168 10.957 67.2305 10.9023C67.3008 10.8477 67.3555 10.7383 67.3945 10.5742C67.4336 10.3945 67.4609 10.1719 67.4766 9.90625C67.4922 9.63281 67.5 9.30859 67.5 8.93359V7.91406ZM82.0898 3.63672C81.8867 4.05859 81.7227 4.40625 81.5977 4.67969C81.4727 4.94531 81.375 5.16016 81.3047 5.32422C81.2344 5.48047 81.1875 5.60156 81.1641 5.6875C81.1406 5.77344 81.1289 5.84375 81.1289 5.89844C81.1289 5.99219 81.1562 6.07422 81.2109 6.14453C81.2656 6.20703 81.3672 6.23828 81.5156 6.23828L83.8242 1.17578C84.3633 0.824219 85.0664 0.648438 85.9336 0.648438C86.4023 0.648438 86.8516 0.714844 87.2812 0.847656C87.7188 0.972656 88.1055 1.16797 88.4414 1.43359C88.7773 1.69141 89.043 2.01953 89.2383 2.41797C89.4414 2.80859 89.543 3.26562 89.543 3.78906C89.543 4.22656 89.4648 4.65625 89.3086 5.07812C89.1523 5.5 88.9336 5.91016 88.6523 6.30859C88.3789 6.69922 88.0508 7.07031 87.668 7.42188C87.293 7.76562 86.8867 8.07812 86.4492 8.35938C86.2305 8.23438 86.0273 8.14453 85.8398 8.08984C85.6602 8.02734 85.4805 7.99609 85.3008 7.99609C85.1602 7.99609 85.0352 8.03516 84.9258 8.11328C84.8242 8.19141 84.7734 8.32031 84.7734 8.5C84.9219 8.53125 85.0703 8.56641 85.2188 8.60547C85.3672 8.64453 85.5195 8.69922 85.6758 8.76953C85.8398 8.83984 86.0117 8.9375 86.1914 9.0625C86.3789 9.1875 86.5781 9.34766 86.7891 9.54297L89.9062 12.4141C89.7969 13.6641 89.4258 14.6094 88.793 15.25C88.168 15.8906 87.2734 16.2109 86.1094 16.2109C85.7109 16.2109 85.3281 16.1602 84.9609 16.0586C84.5938 15.957 84.2422 15.7891 83.9062 15.5547C83.5781 15.3203 83.2695 15.0156 82.9805 14.6406C82.6992 14.2578 82.4492 13.7891 82.2305 13.2344L81.1406 10.5156H81.082C80.9336 10.5156 80.832 10.5508 80.7773 10.6211C80.7227 10.6914 80.6953 10.7656 80.6953 10.8438C80.6953 10.9688 80.8008 11.3125 81.0117 11.875C81.2305 12.4297 81.5625 13.207 82.0078 14.207V15.1094C81.8516 15.25 81.6602 15.3867 81.4336 15.5195C81.2148 15.6523 80.9609 15.7695 80.6719 15.8711C80.3906 15.9727 80.0742 16.0547 79.7227 16.1172C79.3789 16.1797 79.0039 16.2109 78.5977 16.2109C78.1602 16.2109 77.7383 16.1641 77.332 16.0703C76.9258 15.9766 76.5664 15.8359 76.2539 15.6484C75.9492 15.4531 75.7031 15.207 75.5156 14.9102C75.3359 14.6133 75.2461 14.2656 75.2461 13.8672V1.77344C75.6055 1.44531 76.0898 1.17969 76.6992 0.976562C77.3086 0.773438 77.9883 0.671875 78.7383 0.671875C79.1836 0.671875 79.6055 0.714844 80.0039 0.800781C80.4102 0.886719 80.7656 1.02734 81.0703 1.22266C81.3828 1.41016 81.6289 1.66016 81.8086 1.97266C81.9961 2.27734 82.0898 2.65625 82.0898 3.10938V3.63672Z" fill="#5356FF"/>
</svg>
