<svg width="238" height="238" viewBox="0 0 238 238" fill="none" xmlns="http://www.w3.org/2000/svg">
<circle cx="119" cy="119" r="119" fill="#DADBFF"/>
<path d="M212.632 115.292C198.834 82.0304 162.439 58.2762 119.726 58.2762C77.0121 58.2762 39.5429 82.7464 26.2174 116.767C25.4723 118.657 24.8132 120.576 24.2257 122.523C36.1901 158.548 74.1464 184.879 119.124 184.879C164.101 184.879 203.376 157.617 214.609 120.618C214.022 118.814 213.363 117.039 212.632 115.292Z" fill="#71BD5F"/>
<path d="M214.609 120.618C203.376 157.616 164.875 184.879 119.124 184.879C73.3727 184.879 36.1901 158.547 24.2257 122.522C24.8132 120.575 25.4723 118.656 26.2174 116.766C40.0015 150.042 76.396 173.796 119.124 173.796C161.852 173.796 199.306 149.34 212.632 115.291C213.363 117.038 214.022 118.814 214.609 120.618Z" fill="#8AC67A"/>
<path d="M211.858 129.237C200.624 166.236 162.123 193.498 116.372 193.498C70.6209 193.498 33.4383 167.166 21.4739 131.141C22.0614 129.194 22.7205 127.275 23.4656 125.385C37.2497 158.661 73.6442 182.415 116.372 182.415C159.1 182.415 196.555 157.96 209.88 123.91C210.611 125.657 211.27 127.433 211.858 129.237Z" fill="#8AC67A"/>
<path d="M211.858 121.434C200.624 158.433 162.123 185.695 116.372 185.695C70.6209 185.695 33.4383 159.364 21.4739 123.339C22.0614 121.391 22.7205 119.473 23.4656 117.583C37.2497 150.858 73.6442 174.613 116.372 174.613C159.1 174.613 196.555 150.157 209.88 116.108C210.611 117.855 211.27 119.63 211.858 121.434Z" fill="#E7F2E6"/>
<path d="M186.726 111.268C186.726 74.1115 156.593 44 119.41 44C82.2276 44 52.0946 74.1115 52.0946 111.268V148.768L69.5898 156.499C81.898 170.03 99.6654 178.535 119.41 178.535C139.155 178.535 158.327 169.329 170.678 154.839L186.726 147.422V111.268Z" fill="#A9D49E"/>
<path d="M74.2034 147.966C74.2034 147.966 46.5636 137.385 32.1921 119.601C24.5693 110.151 21.2164 116.623 19.7549 124.756C18.0928 133.991 19.2247 143.499 22.6636 152.233C28.9109 168.155 42.609 194.572 64.7752 194.988C96.5273 195.589 96.3267 173.567 96.3267 173.567C96.3267 173.567 99.4217 158.748 74.2034 147.966Z" fill="#C6E1C1"/>
<path d="M164.631 147.966C164.631 147.966 192.27 137.385 206.642 119.601C214.265 110.151 217.618 116.623 219.079 124.756C220.741 133.991 219.609 143.498 216.17 152.233C209.923 168.155 196.225 194.572 174.059 194.987C142.307 195.589 142.507 173.567 142.507 173.567C142.507 173.567 139.412 158.748 164.631 147.966Z" fill="#C6E1C1"/>
<path d="M109.652 103.121C111.995 103.121 113.893 101.223 113.893 98.8825C113.893 96.5418 111.995 94.6443 109.652 94.6443C107.31 94.6443 105.411 96.5418 105.411 98.8825C105.411 101.223 107.31 103.121 109.652 103.121Z" fill="#0E9561"/>
<path d="M129.168 103.164C131.511 103.164 133.409 101.266 133.409 98.9255C133.409 96.5848 131.511 94.6873 129.168 94.6873C126.826 94.6873 124.927 96.5848 124.927 98.9255C124.927 101.266 126.826 103.164 129.168 103.164Z" fill="#0E9561"/>
<path d="M158.556 114.762H150.861C149.69 114.762 148.741 115.71 148.741 116.881C148.741 118.051 149.69 119 150.861 119H158.556C159.727 119 160.676 118.051 160.676 116.881C160.676 115.71 159.727 114.762 158.556 114.762Z" fill="#CAE4C1"/>
<path d="M87.9591 114.762H80.2646C79.0934 114.762 78.144 115.71 78.144 116.881C78.144 118.051 79.0934 119 80.2646 119H87.9591C89.1303 119 90.0797 118.051 90.0797 116.881C90.0797 115.71 89.1303 114.762 87.9591 114.762Z" fill="#CAE4C1"/>
<path d="M146.29 126.588C146.29 127.06 145.889 127.447 145.416 127.447C144.958 127.447 144.557 127.046 144.571 126.588V125.313C142.622 125.256 129.268 125.17 120.298 133.389C119.998 133.632 119.725 133.904 119.467 134.176C119.166 133.847 118.851 133.546 118.522 133.26C109.538 125.07 96.2408 125.142 94.2634 125.185V126.459C94.2634 126.931 93.8766 127.318 93.4037 127.318C92.9452 127.318 92.544 126.931 92.544 126.459V121.319C92.544 120.846 92.9452 120.445 93.4037 120.459C93.4467 120.459 93.4897 120.459 93.5327 120.459C93.9482 120.517 94.2491 120.875 94.2634 121.319V122.98C108.42 122.98 115.871 128.048 118.837 130.754C119.209 131.084 119.754 131.098 120.126 130.754C123.178 128.02 130.601 123.094 144.585 123.094V121.419C144.585 121.419 144.585 121.333 144.585 121.29C144.643 120.889 145.001 120.574 145.445 120.56C145.904 120.56 146.305 120.961 146.29 121.433V126.588Z" fill="#0E9561"/>
<path d="M106.758 92.0382C107.087 90.8354 108.19 89.8188 109.451 89.7186C110.712 89.6184 112.074 90.3916 112.561 91.6086C112.704 91.9666 113.034 92.2243 113.449 92.1098C113.793 92.0095 114.094 91.5943 113.951 91.222C113.234 89.4465 111.414 88.1436 109.451 88.2868C107.488 88.4299 105.869 89.8045 105.368 91.6516C105.124 92.5393 106.514 92.9259 106.743 92.0382H106.758Z" fill="#168F5E"/>
<path d="M126.259 91.3789C126.589 90.1761 127.692 89.1595 128.953 89.0593C130.214 88.9591 131.575 89.7323 132.062 90.9493C132.206 91.3073 132.535 91.565 132.951 91.4505C133.295 91.3502 133.596 90.935 133.452 90.5627C132.736 88.7872 130.916 87.4843 128.953 87.6275C126.99 87.7706 125.371 89.1452 124.869 90.9923C124.626 91.88 126.016 92.2666 126.245 91.3789H126.259Z" fill="#168F5E"/>
<path d="M115.742 113.887C116.185 113.887 116.545 113.528 116.545 113.085C116.545 112.643 116.185 112.284 115.742 112.284C115.299 112.284 114.94 112.643 114.94 113.085C114.94 113.528 115.299 113.887 115.742 113.887Z" fill="#057749"/>
<path d="M123.265 113.887C123.708 113.887 124.067 113.528 124.067 113.085C124.067 112.642 123.708 112.283 123.265 112.283C122.821 112.283 122.462 112.642 122.462 113.085C122.462 113.528 122.821 113.887 123.265 113.887Z" fill="#057749"/>
<path d="M111.644 121.448L110.827 120.961C110.182 120.574 109.466 119.558 109.853 118.913L114.151 112.756C114.538 112.112 115.369 111.912 116.014 112.284C116.659 112.67 116.859 113.501 116.487 114.145L113.707 121.075C113.32 121.72 112.289 121.806 111.658 121.433L111.644 121.448Z" fill="#057749"/>
</svg>
