<svg width="48" height="48" viewBox="0 0 48 48" fill="none" xmlns="http://www.w3.org/2000/svg">
<rect width="48" height="48" rx="24" fill="#E2E2FF"/>
<path d="M38.356 23.1979C36.2495 18.1201 30.6935 14.4938 24.1728 14.4938C17.6521 14.4938 11.932 18.2294 9.89766 23.4231C9.78391 23.7116 9.68329 24.0045 9.59361 24.3018C11.4201 29.8014 17.2146 33.8212 24.0809 33.8212C30.9472 33.8212 36.943 29.6593 38.6579 24.0111C38.5682 23.7356 38.4676 23.4646 38.356 23.1979Z" fill="#71BD5F"/>
<path d="M38.6579 24.0108C36.943 29.6591 31.0653 33.8209 24.0809 33.8209C17.0965 33.8209 11.4201 29.8011 9.59361 24.3015C9.68329 24.0042 9.78391 23.7113 9.89766 23.4228C12.002 28.5027 17.558 32.1291 24.0809 32.1291C30.6038 32.1291 36.3217 28.3956 38.356 23.1976C38.4676 23.4643 38.5682 23.7353 38.6579 24.0108Z" fill="#8AC67A"/>
<path d="M38.2377 25.3265C36.5228 30.9747 30.6452 35.1366 23.6607 35.1366C16.6763 35.1366 10.9999 31.1168 9.17342 25.6172C9.2631 25.3199 9.36372 25.027 9.47747 24.7385C11.5818 29.8184 17.1378 33.4448 23.6607 33.4448C30.1836 33.4448 35.9015 29.7113 37.9358 24.5133C38.0474 24.78 38.148 25.051 38.2377 25.3265Z" fill="#8AC67A"/>
<path d="M38.2377 24.1354C36.5228 29.7837 30.6452 33.9456 23.6607 33.9456C16.6763 33.9456 10.9999 29.9258 9.17342 24.4261C9.2631 24.1289 9.36372 23.8359 9.47747 23.5474C11.5818 28.6274 17.1378 32.2537 23.6607 32.2537C30.1836 32.2537 35.9015 28.5203 37.9358 23.3223C38.0474 23.5889 38.148 23.86 38.2377 24.1354Z" fill="#E7F2E6"/>
<path d="M34.4012 22.5833C34.4012 16.911 29.8011 12.3141 24.1247 12.3141C18.4484 12.3141 13.8482 16.911 13.8482 22.5833V28.3081L16.5191 29.4885C18.3981 31.5541 21.1105 32.8525 24.1247 32.8525C27.139 32.8525 30.0658 31.447 31.9513 29.2349L34.4012 28.1026V22.5833Z" fill="#A9D49E"/>
<path d="M17.2233 28.1856C17.2233 28.1856 13.0037 26.5702 10.8098 23.8554C9.64606 22.4127 9.1342 23.4007 8.91108 24.6423C8.65734 26.0521 8.83015 27.5036 9.35513 28.8369C10.3088 31.2676 12.4 35.3006 15.784 35.3639C20.6313 35.4558 20.6007 32.0939 20.6007 32.0939C20.6007 32.0939 21.0732 29.8315 17.2233 28.1856Z" fill="#C6E1C1"/>
<path d="M31.0281 28.1856C31.0281 28.1856 35.2476 26.5702 37.4416 23.8554C38.6053 22.4127 39.1172 23.4007 39.3403 24.6423C39.594 26.0521 39.4212 27.5036 38.8962 28.8369C37.9425 31.2676 35.8513 35.3006 32.4674 35.3639C27.6201 35.4558 27.6507 32.0939 27.6507 32.0939C27.6507 32.0939 27.1782 29.8315 31.0281 28.1856Z" fill="#C6E1C1"/>
<path d="M22.6349 21.3393C22.9925 21.3393 23.2824 21.0496 23.2824 20.6923C23.2824 20.335 22.9925 20.0453 22.6349 20.0453C22.2773 20.0453 21.9874 20.335 21.9874 20.6923C21.9874 21.0496 22.2773 21.3393 22.6349 21.3393Z" fill="#0E9561"/>
<path d="M25.6143 21.3461C25.9719 21.3461 26.2618 21.0564 26.2618 20.6991C26.2618 20.3417 25.9719 20.0521 25.6143 20.0521C25.2567 20.0521 24.9668 20.3417 24.9668 20.6991C24.9668 21.0564 25.2567 21.3461 25.6143 21.3461Z" fill="#0E9561"/>
<path d="M30.1008 23.1168H28.9261C28.7474 23.1168 28.6024 23.2616 28.6024 23.4403C28.6024 23.619 28.7474 23.7638 28.9261 23.7638H30.1008C30.2796 23.7638 30.4245 23.619 30.4245 23.4403C30.4245 23.2616 30.2796 23.1168 30.1008 23.1168Z" fill="#CAE4C1"/>
<path d="M19.3233 23.1167H18.1486C17.9698 23.1167 17.8249 23.2615 17.8249 23.4402C17.8249 23.6188 17.9698 23.7637 18.1486 23.7637H19.3233C19.5021 23.7637 19.647 23.6188 19.647 23.4402C19.647 23.2615 19.5021 23.1167 19.3233 23.1167Z" fill="#CAE4C1"/>
<path d="M28.2283 24.9219C28.2283 24.9941 28.1671 25.0531 28.0949 25.0531C28.0249 25.0531 27.9636 24.9919 27.9658 24.9219V24.7274C27.6683 24.7187 25.6297 24.7055 24.2603 25.9602C24.2144 25.9974 24.1728 26.0389 24.1335 26.0804C24.0875 26.0302 24.0394 25.9843 23.9891 25.9406C22.6176 24.6902 20.5876 24.7012 20.2858 24.7077V24.9023C20.2858 24.9744 20.2267 25.0334 20.1545 25.0334C20.0845 25.0334 20.0233 24.9744 20.0233 24.9023V24.1175C20.0233 24.0454 20.0845 23.9842 20.1545 23.9864C20.1611 23.9864 20.1677 23.9864 20.1742 23.9864C20.2377 23.9951 20.2836 24.0498 20.2858 24.1175V24.3711C22.447 24.3711 23.5844 25.1449 24.0372 25.558C24.0941 25.6083 24.1772 25.6105 24.2341 25.558C24.7 25.1405 25.8331 24.3886 27.968 24.3886V24.1328C27.968 24.1328 27.968 24.1197 27.968 24.1132C27.9768 24.052 28.0314 24.0039 28.0993 24.0017C28.1693 24.0017 28.2305 24.0629 28.2283 24.135V24.9219Z" fill="#0E9561"/>
<path d="M22.1931 19.648C22.2434 19.4644 22.4118 19.3092 22.6043 19.2939C22.7968 19.2786 23.0046 19.3966 23.079 19.5824C23.1008 19.6371 23.1512 19.6764 23.2146 19.659C23.2671 19.6437 23.313 19.5803 23.2912 19.5234C23.1818 19.2524 22.904 19.0535 22.6043 19.0753C22.3046 19.0972 22.0574 19.307 21.9809 19.589C21.9437 19.7245 22.1559 19.7835 22.1909 19.648H22.1931Z" fill="#168F5E"/>
<path d="M25.1703 19.5468C25.2206 19.3632 25.389 19.208 25.5815 19.1927C25.774 19.1774 25.9818 19.2954 26.0562 19.4812C26.078 19.5359 26.1283 19.5752 26.1918 19.5577C26.2443 19.5424 26.2902 19.4791 26.2683 19.4222C26.159 19.1512 25.8812 18.9523 25.5815 18.9741C25.2818 18.996 25.0346 19.2058 24.9581 19.4878C24.9209 19.6233 25.1331 19.6823 25.1681 19.5468H25.1703Z" fill="#168F5E"/>
<path d="M23.5647 22.9828C23.6323 22.9828 23.6872 22.928 23.6872 22.8604C23.6872 22.7928 23.6323 22.738 23.5647 22.738C23.497 22.738 23.4422 22.7928 23.4422 22.8604C23.4422 22.928 23.497 22.9828 23.5647 22.9828Z" fill="#057749"/>
<path d="M24.7131 22.9828C24.7808 22.9828 24.8356 22.928 24.8356 22.8604C24.8356 22.7928 24.7808 22.738 24.7131 22.738C24.6454 22.738 24.5906 22.7928 24.5906 22.8604C24.5906 22.928 24.6454 22.9828 24.7131 22.9828Z" fill="#057749"/>
<path d="M22.9391 24.1371L22.8144 24.0628C22.716 24.0037 22.6066 23.8485 22.6657 23.7502L23.3219 22.8102C23.381 22.7119 23.5078 22.6813 23.6063 22.7381C23.7047 22.7971 23.7353 22.9239 23.6784 23.0223L23.2541 24.0802C23.195 24.1786 23.0375 24.1917 22.9413 24.1349L22.9391 24.1371Z" fill="#057749"/>
</svg>
