<svg width="160" height="160" viewBox="0 0 160 160" fill="none" xmlns="http://www.w3.org/2000/svg">
<circle cx="80" cy="80" r="78" fill="#5356FF" stroke="#5356FF" stroke-width="4"/>
<path d="M95.6667 103.267H64.3334C62.9334 103.267 61.3667 102.167 60.9001 100.833L47.1001 62.2332C45.1334 56.6999 47.4334 54.9999 52.1667 58.3999L65.1667 67.6999C67.3334 69.1999 69.8001 68.4332 70.7334 65.9999L76.6 50.3666C78.4667 45.3666 81.5667 45.3666 83.4333 50.3666L89.3 65.9999C90.2333 68.4332 92.7 69.1999 94.8333 67.6999L107.033 58.9999C112.233 55.2666 114.733 57.1666 112.6 63.1999L99.1333 100.9C98.6333 102.167 97.0667 103.267 95.6667 103.267Z" stroke="white" stroke-width="5" stroke-linecap="round" stroke-linejoin="round"/>
<path d="M61.6667 113.333H98.3333" stroke="white" stroke-width="5" stroke-linecap="round" stroke-linejoin="round"/>
<path d="M71.6667 86.6666H88.3333" stroke="white" stroke-width="5" stroke-linecap="round" stroke-linejoin="round"/>
</svg>
