<svg width="348" height="531" viewBox="0 0 348 531" fill="none" xmlns="http://www.w3.org/2000/svg">
<rect width="348" height="531" rx="20" fill="#F7F7FF"/>
<path d="M213.183 204.337C214.215 201.372 217.097 199.269 220.132 199.269H280.201C283.8 199.269 286.379 202.192 285.953 205.804L272.588 319.471C272.161 323.077 268.9 326.006 265.301 326.006H114.687C111.088 326.006 108.509 323.083 108.936 319.471L120.314 222.712C120.741 219.106 124.002 216.177 127.601 216.177H196.955C204.052 216.177 210.782 211.27 213.189 204.337H213.183Z" fill="#ADAEFF" fill-opacity="0.5"/>
<path opacity="0.1" d="M213.183 204.337C214.215 201.372 217.097 199.269 220.132 199.269H280.201C283.8 199.269 286.379 202.192 285.953 205.804L272.588 319.471C272.161 323.077 268.9 326.006 265.301 326.006H114.687C111.088 326.006 108.509 323.083 108.936 319.471L120.314 222.712C120.741 219.106 124.002 216.177 127.601 216.177H196.955C204.052 216.177 210.782 211.27 213.189 204.337H213.183Z" fill="#FAFAFA"/>
<path d="M204.87 219.136L159.494 154L78.418 210.7L123.788 275.841L204.87 219.136Z" fill="#ADAEFF" fill-opacity="0.5"/>
<path opacity="0.8" d="M204.87 219.136L159.494 154L78.418 210.7L123.788 275.841L204.87 219.136Z" fill="#FAFAFA"/>
<path d="M204.782 220.52L159.281 155.2L78.2046 211.9L123.705 277.225L204.782 220.52Z" fill="#FAFAFA"/>
<path d="M157.643 165.331L88.2579 213.847L125.149 266.814L194.534 218.297L157.643 165.331Z" fill="#ADAEFF" fill-opacity="0.5"/>
<path opacity="0.8" d="M157.643 165.331L88.2579 213.847L125.149 266.814L194.534 218.297L157.643 165.331Z" fill="#FAFAFA"/>
<path d="M131.087 210.949C134.829 216.32 133.518 223.716 128.152 227.465C122.792 231.213 115.41 229.901 111.669 224.524C107.928 219.153 109.238 211.757 114.604 208.008C119.964 204.26 127.346 205.573 131.087 210.949Z" fill="#ADAEFF" fill-opacity="0.5"/>
<path opacity="0.1" d="M131.087 210.949C134.829 216.32 133.518 223.716 128.152 227.465C122.792 231.213 115.41 229.901 111.669 224.524C107.928 219.153 109.238 211.757 114.604 208.008C119.964 204.26 127.346 205.573 131.087 210.949Z" fill="#FAFAFA"/>
<path d="M175.349 205.703C171.685 202.026 166.597 200.291 161.605 200.761C161.605 200.761 161.605 200.761 161.599 200.761C161.522 200.648 161.463 200.529 161.386 200.422C155.943 192.61 145.211 190.697 137.414 196.15C131.348 200.392 128.864 207.836 130.613 214.609C130.103 214.852 129.599 215.132 129.119 215.464C125.561 217.948 124.067 222.278 124.992 226.265C122.911 227.108 120.972 228.487 119.478 230.774C116.762 234.932 116.596 240.404 119.347 244.539C123.19 250.307 130.992 251.769 136.643 247.818C136.643 247.818 136.649 247.818 136.655 247.812L156.601 233.863L174.88 221.078C179.061 218.155 180.288 212.357 177.394 208.145C177.377 208.115 177.353 208.092 177.335 208.062C176.736 207.2 176.072 206.416 175.355 205.703H175.349Z" fill="#ADAEFF" fill-opacity="0.5"/>
<path opacity="0.3" d="M175.349 205.703C171.685 202.026 166.597 200.291 161.605 200.761C161.605 200.761 161.605 200.761 161.599 200.761C161.522 200.648 161.463 200.529 161.386 200.422C155.943 192.61 145.211 190.697 137.414 196.15C131.348 200.392 128.864 207.836 130.613 214.609C130.103 214.852 129.599 215.132 129.119 215.464C125.561 217.948 124.067 222.278 124.992 226.265C122.911 227.108 120.972 228.487 119.478 230.774C116.762 234.932 116.596 240.404 119.347 244.539C123.19 250.307 130.992 251.769 136.643 247.818C136.643 247.818 136.649 247.818 136.655 247.812L156.601 233.863L174.88 221.078C179.061 218.155 180.288 212.357 177.394 208.145C177.377 208.115 177.353 208.092 177.335 208.062C176.736 207.2 176.072 206.416 175.355 205.703H175.349Z" fill="black"/>
<g style="mix-blend-mode:multiply">
<path d="M161.807 246.173L161.735 167.812L62.8597 167.908L62.9309 246.173H161.807Z" fill="#ADAEFF" fill-opacity="0.5"/>
</g>
<path opacity="0.8" d="M161.807 246.173L161.735 167.812L62.8597 167.908L62.9309 246.173H161.807Z" fill="#FAFAFA"/>
<path d="M160.947 247.26L160.876 168.68L62 168.769L62.0712 247.26H160.947Z" fill="#FAFAFA"/>
<path d="M153.778 176.088H69.1685V240.677H153.778V176.088Z" fill="#ADAEFF" fill-opacity="0.5"/>
<path opacity="0.8" d="M153.778 176.088H69.1685V240.677H153.778V176.088Z" fill="#FAFAFA"/>
<path d="M102.469 206.665C107.091 202.034 107.091 194.526 102.469 189.895C97.8477 185.265 90.3544 185.265 85.7327 189.895C81.1109 194.526 81.1109 202.034 85.7327 206.665C90.3544 211.296 97.8477 211.296 102.469 206.665Z" fill="#ADAEFF" fill-opacity="0.5"/>
<path opacity="0.1" d="M102.469 206.665C107.091 202.034 107.091 194.526 102.469 189.895C97.8477 185.265 90.3544 185.265 85.7327 189.895C81.1109 194.526 81.1109 202.034 85.7327 206.665C90.3544 211.296 97.8477 211.296 102.469 206.665Z" fill="#FAFAFA"/>
<path d="M145.252 219.32C144.339 214.205 141.161 209.868 136.797 207.391C136.797 207.391 136.797 207.391 136.791 207.391C136.791 207.254 136.809 207.123 136.809 206.987C136.803 197.457 129.083 189.74 119.573 189.752C112.179 189.758 105.894 194.445 103.463 201.004C102.906 200.909 102.336 200.85 101.749 200.85C97.4152 200.85 93.7154 203.547 92.2034 207.349C90.0156 206.85 87.6379 206.868 85.1062 207.89C80.5051 209.749 77.244 214.139 77.1432 219.112C77.0009 226.045 82.5744 231.713 89.4641 231.707C89.4641 231.707 89.4701 231.707 89.476 231.707L113.804 231.683L136.092 231.665C141.191 231.665 145.507 227.601 145.531 222.492C145.531 222.457 145.531 222.427 145.531 222.391C145.531 221.346 145.436 220.318 145.252 219.326V219.32Z" fill="#ADAEFF" fill-opacity="0.5"/>
<path opacity="0.3" d="M145.252 219.32C144.339 214.205 141.161 209.868 136.797 207.391C136.797 207.391 136.797 207.391 136.791 207.391C136.791 207.254 136.809 207.123 136.809 206.987C136.803 197.457 129.083 189.74 119.573 189.752C112.179 189.758 105.894 194.445 103.463 201.004C102.906 200.909 102.336 200.85 101.749 200.85C97.4152 200.85 93.7154 203.547 92.2034 207.349C90.0156 206.85 87.6379 206.868 85.1062 207.89C80.5051 209.749 77.244 214.139 77.1432 219.112C77.0009 226.045 82.5744 231.713 89.4641 231.707C89.4641 231.707 89.4701 231.707 89.476 231.707L113.804 231.683L136.092 231.665C141.191 231.665 145.507 227.601 145.531 222.492C145.531 222.457 145.531 222.427 145.531 222.391C145.531 221.346 145.436 220.318 145.252 219.326V219.32Z" fill="black"/>
<g style="mix-blend-mode:multiply">
<path d="M245.171 257.413L236.372 177.431L138.096 188.291L146.877 268.106L245.171 257.413Z" fill="#ADAEFF" fill-opacity="0.5"/>
</g>
<path opacity="0.8" d="M245.171 257.413L236.372 177.431L138.096 188.291L146.877 268.106L245.171 257.413Z" fill="#FAFAFA"/>
<path d="M244.407 258.316L235.613 178.381L137.331 189.241L146.112 269.003L244.407 258.316Z" fill="#FAFAFA"/>
<path d="M229.332 186.494L145.231 195.783L152.294 259.983L236.394 250.695L229.332 186.494Z" fill="#ADAEFF" fill-opacity="0.5"/>
<path opacity="0.8" d="M229.332 186.494L145.231 195.783L152.294 259.983L236.394 250.695L229.332 186.494Z" fill="#FAFAFA"/>
<path d="M236.135 248.347L236.39 250.688L192.704 255.518L203.127 243.119L213.8 230.411L236.135 248.347Z" fill="#ADAEFF" fill-opacity="0.5"/>
<path opacity="0.3" d="M236.135 248.347L236.39 250.688L192.704 255.518L203.127 243.119L213.8 230.411L236.135 248.347Z" fill="black"/>
<path d="M217.476 252.779L152.29 259.979L151.727 254.817L177.294 225.73L203.127 243.119L217.476 252.779Z" fill="#ADAEFF" fill-opacity="0.5"/>
<path opacity="0.3" d="M217.476 252.779L152.29 259.979L151.727 254.817L177.294 225.73L203.127 243.119L217.476 252.779Z" fill="black"/>
<path d="M206.006 217.489C210.172 213.844 210.6 207.505 206.962 203.331C203.324 199.157 196.998 198.728 192.832 202.373C188.666 206.019 188.238 212.357 191.876 216.532C195.514 220.706 201.84 221.134 206.006 217.489Z" fill="#ADAEFF" fill-opacity="0.5"/>
<path opacity="0.1" d="M206.006 217.489C210.172 213.844 210.6 207.505 206.962 203.331C203.324 199.157 196.998 198.728 192.832 202.373C188.666 206.019 188.238 212.357 191.876 216.532C195.514 220.706 201.84 221.134 206.006 217.489Z" fill="#FAFAFA"/>
<g style="mix-blend-mode:multiply" opacity="0.7">
<path d="M187.599 228.065C188.002 225.504 190.439 223.692 193.48 223.692H253.549C257.148 223.692 260.344 226.217 260.682 229.33L268.728 320.368C269.066 323.481 266.422 326.006 262.817 326.006H112.203C108.604 326.006 105.408 323.481 105.07 320.368L98.6011 243.915C98.2631 240.802 100.908 238.277 104.512 238.277H173.867C180.964 238.277 186.656 234.041 187.599 228.065Z" fill="#ADAEFF" fill-opacity="0.5"/>
</g>
</svg>
