<svg width="160" height="160" viewBox="0 0 160 160" fill="none" xmlns="http://www.w3.org/2000/svg">
<circle cx="80" cy="80" r="78" fill="white" stroke="#C7C7C7" stroke-width="4"/>
<path d="M95.6667 103.267H64.3334C62.9334 103.267 61.3667 102.167 60.9001 100.833L47.1001 62.2334C45.1334 56.7 47.4334 55 52.1667 58.4L65.1667 67.7C67.3334 69.2 69.8001 68.4334 70.7334 66L76.6 50.3667C78.4667 45.3667 81.5667 45.3667 83.4333 50.3667L89.3 66C90.2333 68.4334 92.7 69.2 94.8333 67.7L107.033 59C112.233 55.2667 114.733 57.1667 112.6 63.2L99.1333 100.9C98.6333 102.167 97.0667 103.267 95.6667 103.267Z" stroke="#C7C7C7" stroke-width="5" stroke-linecap="round" stroke-linejoin="round"/>
<path d="M61.6667 113.333H98.3333" stroke="#C7C7C7" stroke-width="5" stroke-linecap="round" stroke-linejoin="round"/>
<path d="M71.6667 86.6667H88.3333" stroke="#C7C7C7" stroke-width="5" stroke-linecap="round" stroke-linejoin="round"/>
</svg>
