<svg width="430" height="932" viewBox="0 0 430 932" fill="none" xmlns="http://www.w3.org/2000/svg">
<g clip-path="url(#clip0_512_2206)">
<rect width="430" height="932" fill="white"/>
<rect width="430" height="932" fill="#5356FF"/>
<g opacity="0.3" clip-path="url(#clip1_512_2206)">
<path d="M266.623 1117.12C336.287 1117.12 392.761 1029.68 392.761 921.813C392.761 813.949 336.287 726.509 266.623 726.509C196.958 726.509 140.484 813.949 140.484 921.813C140.484 1029.68 196.958 1117.12 266.623 1117.12Z" fill="#71BD5F"/>
<path d="M24.6089 748.548C24.6089 748.548 10.6231 974.655 -5.88872 1021.15C-22.4005 1067.65 62.6047 1168.95 161.516 1162.84C295.153 1154.58 316.929 1078.11 316.929 1078.11C316.929 1078.11 375.478 940.905 281.273 740.423C211.051 590.977 27.4008 707.708 24.6089 748.522V748.548Z" fill="#8AC67A"/>
<path d="M20.2483 845.178C36.7601 858.216 54.947 869.024 74.3305 877.255C93.7139 885.487 114.134 890.851 135.06 893.931C140.936 894.807 147.158 895.79 152.236 899.083C156.703 901.977 160.213 906.73 160.054 912.227C160 913.501 161.941 914.086 162.526 912.891C164.68 908.456 167.047 903.491 171.381 900.809C176.619 897.569 183.425 898.95 189.222 899.109C202.011 899.428 214.801 898.1 227.377 895.763C239.954 893.427 251.813 890.24 263.698 886.39C273.562 883.177 283.321 879.38 292.334 874.175C302.279 868.466 311.159 860.951 317.434 851.286C318.365 849.852 316.078 848.524 315.148 849.958C303.608 867.722 283.454 877.096 263.964 883.522C239.98 891.409 214.614 897.091 189.222 896.454C182.867 896.294 175.741 894.993 170.025 898.525C165.265 901.472 162.58 906.677 160.213 911.563L162.686 912.227C163.005 902.083 153.699 895.498 144.871 893.108C139.58 891.674 134.076 891.17 128.652 890.293C123.228 889.417 118.043 888.355 112.778 887.107C91.6931 882.115 71.3525 874.175 52.4743 863.58C41.8386 857.632 31.6816 850.834 22.1095 843.293C20.7801 842.231 18.8923 844.116 20.2217 845.178H20.2483Z" fill="#CAE4C1"/>
<path d="M160.027 912.227C159.788 920.166 159.522 928.079 159.203 936.019C158.591 952.031 157.873 968.017 156.89 984.002C155.746 1002.32 153.406 1020.57 153.061 1038.94C152.662 1060.08 154.151 1081.19 155.241 1102.3C155.746 1112.23 156.384 1122.16 157.767 1132.01C159.017 1140.91 160.825 1149.99 164.76 1158.12C165.584 1159.82 166.515 1161.46 167.578 1163.03C168.536 1164.44 170.849 1163.11 169.865 1161.7C165.052 1154.66 162.872 1146.06 161.356 1137.78C159.522 1127.92 158.751 1117.89 158.166 1107.88C156.969 1087.35 155.613 1066.77 155.613 1046.22C155.613 1034.22 156.198 1022.24 157.448 1010.32C158.192 1003.28 158.698 996.217 159.176 989.154C160.24 973.115 160.984 957.05 161.649 940.985C162.021 931.558 162.686 922.078 162.659 912.678C162.659 912.519 162.659 912.386 162.659 912.227C162.713 910.527 160.054 910.527 160 912.227H160.027Z" fill="#CAE4C1"/>
<path d="M281.273 740.449C281.273 771.916 223.814 797.408 152.954 797.408C82.0945 797.408 24.6355 771.916 24.6355 740.449C24.6355 733.944 27.1083 727.677 31.655 721.835C31.655 722.34 31.6285 722.844 31.6285 723.349C31.6285 754.815 85.7638 780.307 152.529 780.307C219.294 780.307 273.057 754.815 273.057 723.349C273.057 722.419 273.004 721.516 272.924 720.614C278.109 726.774 281.273 733.466 281.273 740.449Z" fill="#CAE4C1"/>
<path d="M17.1108 751.257C17.1108 751.257 -25.8305 769.526 -43.7516 828.21C-55.956 868.147 -50.3457 911.802 -26.4155 946.056C-11.2332 967.804 11.2346 986.1 42.6363 980.683C112.459 968.68 35.1382 854.472 35.1382 854.472C35.1382 854.472 31.5221 834.105 29.6342 828.476C27.4274 821.917 15.1166 774.253 17.1108 751.257Z" fill="#A9D49E"/>
<path d="M291.377 742.627C291.377 742.627 294.382 719.392 312.409 705.133C312.409 705.133 316.69 614.531 374.149 600.723C383.668 598.439 393.639 601.068 400.525 607.998C412.198 619.735 424.376 645.891 408.13 702.504C381.86 793.982 312.409 805.958 312.409 805.958L291.377 742.6V742.627Z" fill="#A9D49E"/>
<path d="M26.5233 832.538C22.7211 832.857 19.3443 829.989 19.0518 826.192L15.7548 807.551C13.9201 797.115 13.0427 786.547 13.149 775.952L13.3618 755.93C13.0427 752.133 15.9143 748.761 19.7165 748.469C23.5188 748.15 26.8956 751.018 27.1881 754.815L26.9754 774.837C26.869 785.432 27.7464 796 29.5811 806.436L32.8781 825.077C33.1972 828.874 30.3256 832.246 26.5233 832.538Z" fill="#CAE4C1"/>
<path d="M285.979 736.626C289.596 735.404 293.557 737.369 294.78 740.98L302.491 758.294C306.799 767.959 310.202 778.023 312.648 788.326L317.275 807.79C318.498 811.401 316.53 815.358 312.914 816.579C309.298 817.801 305.336 815.836 304.113 812.225L299.487 792.761C297.041 782.458 293.637 772.394 289.33 762.728L281.619 745.415C280.396 741.804 282.363 737.847 285.979 736.626Z" fill="#CAE4C1"/>
<path d="M250.536 575.178C250.217 573.956 249.951 572.761 249.685 571.54C236.71 511.05 174.385 472.281 113.337 484.124C52.2882 495.967 15.3825 549.952 21.8968 608.237C22.4552 613.283 23.6783 618.222 25.1673 623.081C29.7672 637.951 38.3289 679.322 31.6284 719.02C24.2633 762.516 108.63 778.183 134.475 779.988C142.452 780.546 164.281 780.307 171.035 779.616C199.086 776.775 274.839 765.808 273.376 729.881C270.292 654.229 253.434 586.41 250.536 575.178Z" fill="#A9D49E"/>
<path d="M96.4792 599.899C100.826 599.899 104.35 596.38 104.35 592.039C104.35 587.699 100.826 584.18 96.4792 584.18C92.1325 584.18 88.6088 587.699 88.6088 592.039C88.6088 596.38 92.1325 599.899 96.4792 599.899Z" fill="#0E9561"/>
<path d="M132.321 594.96C136.668 594.96 140.192 591.441 140.192 587.1C140.192 582.76 136.668 579.24 132.321 579.24C127.975 579.24 124.451 582.76 124.451 587.1C124.451 591.441 127.975 594.96 132.321 594.96Z" fill="#0E9561"/>
<path d="M187.641 608.972L173.503 610.961C171.351 611.264 169.852 613.252 170.155 615.401C170.458 617.55 172.449 619.047 174.601 618.744L188.739 616.755C190.891 616.452 192.39 614.464 192.087 612.315C191.784 610.166 189.793 608.669 187.641 608.972Z" fill="#CAE4C1"/>
<path d="M57.9284 627.214L43.7897 629.203C41.6376 629.506 40.1388 631.494 40.4421 633.643C40.7453 635.793 42.7357 637.289 44.8878 636.987L59.0265 634.997C61.1785 634.694 62.6773 632.706 62.3741 630.557C62.0709 628.408 60.0805 626.911 57.9284 627.214Z" fill="#CAE4C1"/>
<path d="M168.722 633.782C168.828 634.659 168.216 635.455 167.339 635.588C166.488 635.694 165.664 635.083 165.558 634.234L165.239 631.897C161.622 632.295 137.081 635.588 122.723 653.007C122.244 653.538 121.792 654.096 121.393 654.68C120.755 654.149 120.09 653.671 119.426 653.246C100.787 640.527 76.3778 644.085 72.7617 644.696L73.0808 647.033C73.2137 647.909 72.6022 648.706 71.7248 648.838C70.8739 648.971 70.0496 648.36 69.9167 647.484L68.5872 638.031C68.4809 637.155 69.0924 636.331 69.9433 636.225C70.0231 636.225 70.1028 636.199 70.1826 636.199C70.9537 636.199 71.6184 636.783 71.7514 637.579L72.1768 640.633C98.2075 636.969 113.204 644.377 119.346 648.546C120.117 649.077 121.101 648.918 121.712 648.228C126.605 642.439 138.969 631.446 164.654 627.834L164.228 624.754C164.228 624.754 164.202 624.595 164.202 624.515C164.202 623.771 164.786 623.081 165.584 622.948C166.435 622.842 167.259 623.453 167.366 624.329L168.722 633.782Z" fill="#0E9561"/>
<path d="M86.9603 580.409C87.2528 578.046 89.2736 576.027 91.5602 575.576C93.8469 575.125 96.426 576.399 97.5693 578.444C98.4202 579.931 100.707 578.577 99.856 577.116C98.0745 574.009 94.3521 572.336 90.8423 573.027C87.3325 573.717 84.7002 576.904 84.2748 580.409C84.195 581.126 84.9395 581.737 85.6043 581.737C86.4019 581.737 86.8539 581.126 86.9337 580.409H86.9603Z" fill="#168F5E"/>
<path d="M122.616 574.169C122.909 571.805 124.929 569.787 127.216 569.336C129.503 568.884 132.082 570.159 133.225 572.204C134.076 573.691 136.363 572.336 135.512 570.876C133.73 567.769 130.008 566.096 126.498 566.787C122.988 567.477 120.356 570.664 119.931 574.169C119.851 574.886 120.595 575.496 121.26 575.496C122.058 575.496 122.51 574.886 122.59 574.169H122.616Z" fill="#168F5E"/>
<path d="M108.152 616.974C108.974 616.974 109.641 616.308 109.641 615.487C109.641 614.665 108.974 614 108.152 614C107.329 614 106.663 614.665 106.663 615.487C106.663 616.308 107.329 616.974 108.152 616.974Z" fill="#057749"/>
<path d="M121.978 615.035C122.8 615.035 123.467 614.369 123.467 613.548C123.467 612.727 122.8 612.061 121.978 612.061C121.156 612.061 120.489 612.727 120.489 613.548C120.489 614.369 121.156 615.035 121.978 615.035Z" fill="#057749"/>
<path d="M102.781 631.897L101.159 631.207C99.8826 630.675 98.3138 628.976 98.8456 627.701L105.147 615.301C105.679 614.026 107.168 613.415 108.444 613.973C109.721 614.504 110.332 615.991 109.774 617.266L106.45 630.729C105.918 632.003 104.057 632.455 102.781 631.897Z" fill="#057749"/>
</g>
<path d="M59.8438 107.578C59.8438 110.734 59.3125 113.703 58.25 116.484C57.1875 119.234 55.625 121.641 53.5625 123.703C51.5 125.734 48.9219 127.344 45.8281 128.531C42.7656 129.719 39.2188 130.312 35.1875 130.312C32.6562 130.312 30.3125 129.969 28.1562 129.281C26.0312 128.625 24.125 127.812 22.4375 126.844C20.7812 125.875 19.3594 124.844 18.1719 123.75C16.9844 122.625 16.0938 121.641 15.5 120.797C15.3438 119.797 15.2188 118.859 15.125 117.984C15.0625 117.078 15.0312 116.281 15.0312 115.594C15.0312 112.781 15.4688 110.422 16.3438 108.516C17.2188 106.609 18.3281 105.078 19.6719 103.922C21.0156 102.734 22.5 101.891 24.125 101.391C25.7812 100.859 27.375 100.594 28.9062 100.594C30.2812 100.594 31.6094 100.781 32.8906 101.156C34.1719 101.531 35.3594 102.094 36.4531 102.844C37.5781 103.562 38.5781 104.469 39.4531 105.562C40.3281 106.625 41.0469 107.859 41.6094 109.266C42.0156 109.266 42.3594 109.141 42.6406 108.891C42.9531 108.641 43.1094 108.25 43.1094 107.719C43.1094 107.25 42.8906 106.578 42.4531 105.703C42.0156 104.828 41.3438 103.938 40.4375 103.031C39.5625 102.094 38.4531 101.234 37.1094 100.453C35.7969 99.6406 34.25 99.0781 32.4688 98.7656V71.7656C33.125 71.2656 33.9219 70.7656 34.8594 70.2656C35.8281 69.7656 36.8906 69.3281 38.0469 68.9531C39.2031 68.5781 40.4219 68.2812 41.7031 68.0625C42.9844 67.8125 44.2812 67.6875 45.5938 67.6875C46.9062 67.6875 48.375 67.7969 50 68.0156C51.6562 68.2344 53.2031 68.6719 54.6406 69.3281C56.1094 69.9531 57.3438 70.8281 58.3438 71.9531C59.3438 73.0781 59.8438 74.5312 59.8438 76.3125V107.578ZM104 67.6875C105.75 67.6875 107.453 67.9375 109.109 68.4375C110.797 68.9062 112.281 69.625 113.562 70.5938C114.875 71.5625 115.922 72.7812 116.703 74.25C117.484 75.7188 117.875 77.4375 117.875 79.4062V105.469C117.875 109.5 117.234 113.062 115.953 116.156C114.672 119.25 112.844 121.844 110.469 123.938C108.125 126.031 105.281 127.609 101.938 128.672C98.625 129.734 94.9219 130.266 90.8281 130.266C86.4844 130.266 82.6094 129.734 79.2031 128.672C75.7969 127.609 72.9062 126.047 70.5312 123.984C68.1875 121.891 66.3906 119.297 65.1406 116.203C63.9219 113.109 63.3125 109.531 63.3125 105.469V72.0469C64.8125 70.8594 66.6562 69.8281 68.8438 68.9531C71.0312 68.0781 73.4531 67.6406 76.1094 67.6406C78.0781 67.6406 79.8594 67.9062 81.4531 68.4375C83.0781 68.9375 84.4688 69.7188 85.625 70.7812C86.8125 71.8438 87.7188 73.1875 88.3438 74.8125C89 76.4375 89.3281 78.3594 89.3281 80.5781V107.906C89.6406 108.156 90.0312 108.281 90.5 108.281C90.9375 108.281 91.2656 108.172 91.4844 107.953C91.7031 107.734 91.8125 107.281 91.8125 106.594V80.5312C91.8125 79.5 91.7812 78.5938 91.7188 77.8125C91.6875 77.0312 91.6094 76.3281 91.4844 75.7031C91.3906 75.0781 91.25 74.5 91.0625 73.9688C90.875 73.4375 90.6562 72.9062 90.4062 72.375C92.125 70.9375 94.0781 69.7969 96.2656 68.9531C98.4844 68.1094 101.062 67.6875 104 67.6875ZM133.297 102.75C134.828 102.75 136.281 102.906 137.656 103.219C139.031 103.531 140.281 104.047 141.406 104.766C142.531 105.484 143.531 106.438 144.406 107.625C145.281 108.781 146 110.219 146.562 111.938C147.594 111.75 148.109 111.203 148.109 110.297C148.109 109.578 147.844 108.672 147.312 107.578C146.812 106.484 145.984 105.422 144.828 104.391C143.703 103.359 142.203 102.484 140.328 101.766C138.484 101.016 136.234 100.641 133.578 100.641C132.078 100.641 130.781 100.766 129.688 101.016C128.625 101.266 127.734 101.531 127.016 101.812C125.922 101.25 124.938 100.531 124.062 99.6562C123.188 98.75 122.438 97.7344 121.812 96.6094C121.219 95.4844 120.75 94.2656 120.406 92.9531C120.094 91.6406 119.938 90.2969 119.938 88.9219C119.938 85.0781 120.766 81.7812 122.422 79.0312C124.078 76.2812 126.234 74.0469 128.891 72.3281C131.578 70.5781 134.594 69.2969 137.938 68.4844C141.281 67.6719 144.641 67.2656 148.016 67.2656C151.047 67.2656 153.797 67.4531 156.266 67.8281C158.734 68.2031 160.938 68.7031 162.875 69.3281C164.812 69.9219 166.5 70.6094 167.938 71.3906C169.406 72.1406 170.641 72.9062 171.641 73.6875C171.984 74.6875 172.25 75.7812 172.438 76.9688C172.625 78.1562 172.719 79.3906 172.719 80.6719C172.719 81.5156 172.641 82.4062 172.484 83.3438C172.359 84.25 172.156 85.1406 171.875 86.0156C171.594 86.8906 171.234 87.7188 170.797 88.5C170.359 89.2812 169.844 89.9531 169.25 90.5156C168.75 90.1719 168.016 89.7969 167.047 89.3906C166.078 88.9531 164.969 88.5625 163.719 88.2188C162.5 87.8438 161.172 87.5312 159.734 87.2812C158.297 87.0312 156.859 86.9062 155.422 86.9062C153.453 86.9062 152.078 87.0469 151.297 87.3281C150.547 87.6094 150.172 88.0469 150.172 88.6406C150.172 88.9531 150.219 89.2188 150.312 89.4375C150.938 89.2812 151.625 89.1719 152.375 89.1094C153.125 89.0469 153.844 89.0156 154.531 89.0156C157.219 89.0156 159.859 89.3594 162.453 90.0469C165.047 90.7031 167.359 91.8125 169.391 93.375C171.453 94.9062 173.109 96.9375 174.359 99.4688C175.609 102 176.234 105.109 176.234 108.797C176.234 111.703 175.609 114.453 174.359 117.047C173.109 119.641 171.266 121.922 168.828 123.891C166.422 125.859 163.422 127.422 159.828 128.578C156.266 129.734 152.141 130.312 147.453 130.312C145.047 130.312 142.797 130.219 140.703 130.031C138.609 129.875 136.609 129.594 134.703 129.188C132.797 128.812 130.969 128.312 129.219 127.688C127.469 127.031 125.734 126.25 124.016 125.344C122.984 123.844 122.141 122.25 121.484 120.562C120.828 118.875 120.5 116.953 120.5 114.797C120.5 113.109 120.812 111.531 121.438 110.062C122.094 108.594 122.984 107.328 124.109 106.266C125.234 105.172 126.578 104.312 128.141 103.688C129.703 103.062 131.422 102.75 133.297 102.75ZM216.5 125.438C215.219 126.562 213.391 127.578 211.016 128.484C208.672 129.391 205.844 129.844 202.531 129.844C200.781 129.844 199.094 129.656 197.469 129.281C195.844 128.906 194.406 128.344 193.156 127.594C191.938 126.812 190.953 125.844 190.203 124.688C189.484 123.5 189.125 122.109 189.125 120.516V90.3281H178.203C177.016 88.6094 176.156 86.9062 175.625 85.2188C175.094 83.5 174.828 81.6875 174.828 79.7812C174.828 78.3438 174.953 77.0469 175.203 75.8906C175.453 74.7031 175.781 73.6562 176.188 72.75C176.594 71.8125 177.047 71 177.547 70.3125C178.078 69.5938 178.609 69 179.141 68.5312H227.609C228.484 69.875 229.219 71.5469 229.812 73.5469C230.438 75.5469 230.75 77.5625 230.75 79.5938C230.75 81.5 230.516 83.1406 230.047 84.5156C229.609 85.8594 228.984 86.9688 228.172 87.8438C227.391 88.6875 226.453 89.3125 225.359 89.7188C224.266 90.125 223.062 90.3281 221.75 90.3281H208.016C207.922 90.5781 207.875 90.8125 207.875 91.0312C207.875 91.3125 207.938 91.5469 208.062 91.7344C208.188 91.8906 208.438 92.0312 208.812 92.1562C209.219 92.2812 209.766 92.375 210.453 92.4375C211.172 92.4688 212.109 92.4844 213.266 92.4844H216.5V125.438ZM42.875 285.438C41.5938 286.562 39.7656 287.578 37.3906 288.484C35.0469 289.391 32.2188 289.844 28.9062 289.844C27.1562 289.844 25.4688 289.656 23.8438 289.281C22.2188 288.906 20.7812 288.344 19.5312 287.594C18.3125 286.812 17.3281 285.844 16.5781 284.688C15.8594 283.5 15.5 282.109 15.5 280.516V232.094C16.7812 230.969 18.5938 229.953 20.9375 229.047C23.3125 228.141 26.1562 227.688 29.4688 227.688C31.2188 227.688 32.9062 227.875 34.5312 228.25C36.1562 228.625 37.5781 229.203 38.7969 229.984C40.0469 230.734 41.0312 231.703 41.75 232.891C42.5 234.047 42.875 235.422 42.875 237.016V285.438ZM86.375 285.438C85.0938 286.562 83.2656 287.578 80.8906 288.484C78.5469 289.391 75.7188 289.844 72.4062 289.844C70.6562 289.844 68.9688 289.656 67.3438 289.281C65.7188 288.906 64.2812 288.344 63.0312 287.594C61.8125 286.812 60.8281 285.844 60.0781 284.688C59.3594 283.5 59 282.109 59 280.516V250.328H48.0781C46.8906 248.609 46.0312 246.906 45.5 245.219C44.9688 243.5 44.7031 241.688 44.7031 239.781C44.7031 238.344 44.8281 237.047 45.0781 235.891C45.3281 234.703 45.6562 233.656 46.0625 232.75C46.4688 231.812 46.9219 231 47.4219 230.312C47.9531 229.594 48.4844 229 49.0156 228.531H97.4844C98.3594 229.875 99.0938 231.547 99.6875 233.547C100.312 235.547 100.625 237.562 100.625 239.594C100.625 241.5 100.391 243.141 99.9219 244.516C99.4844 245.859 98.8594 246.969 98.0469 247.844C97.2656 248.688 96.3281 249.312 95.2344 249.719C94.1406 250.125 92.9375 250.328 91.625 250.328H77.8906C77.7969 250.578 77.75 250.812 77.75 251.031C77.75 251.312 77.8125 251.547 77.9375 251.734C78.0625 251.891 78.3125 252.031 78.6875 252.156C79.0938 252.281 79.6406 252.375 80.3281 252.438C81.0469 252.469 81.9844 252.484 83.1406 252.484H86.375V285.438Z" fill="black"/>
<path d="M56 205.438C54.7188 206.562 52.8906 207.578 50.5156 208.484C48.1719 209.391 45.3438 209.844 42.0312 209.844C40.2812 209.844 38.5938 209.656 36.9688 209.281C35.3438 208.906 33.9062 208.344 32.6562 207.594C31.4375 206.812 30.4531 205.844 29.7031 204.688C28.9844 203.5 28.625 202.109 28.625 200.516V170.328H17.7031C16.5156 168.609 15.6562 166.906 15.125 165.219C14.5938 163.5 14.3281 161.688 14.3281 159.781C14.3281 158.344 14.4531 157.047 14.7031 155.891C14.9531 154.703 15.2812 153.656 15.6875 152.75C16.0938 151.812 16.5469 151 17.0469 150.312C17.5781 149.594 18.1094 149 18.6406 148.531H67.1094C67.9844 149.875 68.7188 151.547 69.3125 153.547C69.9375 155.547 70.25 157.562 70.25 159.594C70.25 161.5 70.0156 163.141 69.5469 164.516C69.1094 165.859 68.4844 166.969 67.6719 167.844C66.8906 168.688 65.9531 169.312 64.8594 169.719C63.7656 170.125 62.5625 170.328 61.25 170.328H47.5156C47.4219 170.578 47.375 170.812 47.375 171.031C47.375 171.312 47.4375 171.547 47.5625 171.734C47.6875 171.891 47.9375 172.031 48.3125 172.156C48.7188 172.281 49.2656 172.375 49.9531 172.438C50.6719 172.469 51.6094 172.484 52.7656 172.484H56V205.438ZM93.125 193.297C89.5938 190.953 86.5 188.344 83.8438 185.469C81.2188 182.594 79 179.516 77.1875 176.234C75.4062 172.922 74.0156 169.422 73.0156 165.734C72.0156 162.047 71.4062 158.219 71.1875 154.25C71.9688 153.094 72.9375 152.109 74.0938 151.297C75.25 150.484 76.5 149.812 77.8438 149.281C79.1875 148.75 80.5781 148.359 82.0156 148.109C83.4531 147.859 84.8281 147.734 86.1406 147.734C88.2969 147.734 90.1719 147.938 91.7656 148.344C93.3906 148.75 94.875 149.312 96.2188 150.031C96.4375 150.594 96.75 151.469 97.1562 152.656C97.5625 153.812 97.9688 155.062 98.375 156.406C98.8125 157.719 99.2188 159.031 99.5938 160.344C100 161.625 100.312 162.688 100.531 163.531L98.4688 172.625C98.4062 172.969 98.3125 173.359 98.1875 173.797C98.0938 174.234 98.0469 174.625 98.0469 174.969C98.0469 175.438 98.1719 175.828 98.4219 176.141C98.6719 176.422 99.1094 176.562 99.7344 176.562C99.9219 175.969 100.172 175.016 100.484 173.703C100.828 172.359 101.188 170.844 101.562 169.156C101.969 167.438 102.375 165.625 102.781 163.719C103.219 161.781 103.625 159.922 104 158.141C104.406 156.359 104.781 154.734 105.125 153.266C105.469 151.766 105.75 150.578 105.969 149.703C107.188 149.109 108.641 148.625 110.328 148.25C112.016 147.844 113.844 147.641 115.812 147.641C118 147.641 120 147.922 121.812 148.484C123.625 149.016 125.172 149.812 126.453 150.875C127.734 151.938 128.719 153.266 129.406 154.859C130.125 156.422 130.484 158.234 130.484 160.297C130.484 163.578 130.016 166.688 129.078 169.625C128.141 172.562 126.922 175.297 125.422 177.828C123.922 180.359 122.234 182.688 120.359 184.812C118.516 186.938 116.688 188.812 114.875 190.438V205.906C113.5 206.75 112.219 207.438 111.031 207.969C109.844 208.469 108.688 208.859 107.562 209.141C106.469 209.422 105.406 209.609 104.375 209.703C103.375 209.797 102.375 209.844 101.375 209.844C99.3125 209.844 97.4219 209.656 95.7031 209.281C94.0156 208.906 92.5625 208.328 91.3438 207.547C90.125 206.734 89.1719 205.719 88.4844 204.5C87.8281 203.281 87.5 201.828 87.5 200.141V191.891C87.6875 192.078 87.9688 192.344 88.3438 192.688C88.7188 193 89.1094 193.312 89.5156 193.625C89.9219 193.938 90.3281 194.203 90.7344 194.422C91.1719 194.641 91.5312 194.75 91.8125 194.75C92.1875 194.75 92.5 194.641 92.75 194.422C93 194.172 93.125 193.797 93.125 193.297ZM191.281 194.656C190.75 199.438 189.234 203.172 186.734 205.859C184.266 208.516 180.766 209.844 176.234 209.844C174.766 209.844 173.281 209.672 171.781 209.328C170.312 208.984 168.875 208.375 167.469 207.5C166.094 206.594 164.797 205.375 163.578 203.844C162.359 202.281 161.312 200.297 160.438 197.891L158.75 193.297C157.531 193.266 156.547 193.203 155.797 193.109C155.047 192.984 154.375 192.875 153.781 192.781C153.688 192.875 153.594 193 153.5 193.156C153.438 193.312 153.406 193.531 153.406 193.812C153.406 194.188 153.656 194.516 154.156 194.797C154.656 195.047 155.672 195.219 157.203 195.312L159.875 202.062V206.047C158.125 207.297 156.047 208.25 153.641 208.906C151.234 209.531 148.703 209.844 146.047 209.844C144.109 209.844 142.328 209.641 140.703 209.234C139.109 208.859 137.719 208.266 136.531 207.453C135.344 206.641 134.422 205.641 133.766 204.453C133.109 203.234 132.781 201.797 132.781 200.141V155.609C132.781 154.891 133.141 154.188 133.859 153.5C134.578 152.781 135.562 152.109 136.812 151.484C138.062 150.859 139.531 150.297 141.219 149.797C142.906 149.266 144.703 148.812 146.609 148.438C148.547 148.062 150.547 147.781 152.609 147.594C154.703 147.375 156.766 147.266 158.797 147.266C163.328 147.266 167.453 147.75 171.172 148.719C174.922 149.688 178.125 151.141 180.781 153.078C183.438 154.984 185.484 157.359 186.922 160.203C188.391 163.016 189.125 166.297 189.125 170.047C189.125 172.234 188.781 174.25 188.094 176.094C187.438 177.938 186.547 179.578 185.422 181.016C184.297 182.453 182.969 183.688 181.438 184.719C179.938 185.719 178.344 186.484 176.656 187.016C176.656 187.578 176.812 187.969 177.125 188.188C177.438 188.406 177.812 188.516 178.25 188.516C178.688 188.516 179.344 188.359 180.219 188.047C181.094 187.734 182.078 187.172 183.172 186.359L191.281 194.656ZM158.984 175.672C159.078 175.734 159.219 175.781 159.406 175.812C159.625 175.812 159.766 175.812 159.828 175.812C160.578 175.812 161.109 175.578 161.422 175.109C161.734 174.641 161.891 173.875 161.891 172.812V171.125C161.891 170.031 161.75 169.234 161.469 168.734C161.219 168.234 160.734 167.984 160.016 167.984C159.859 167.984 159.672 168 159.453 168.031C159.234 168.062 159.062 168.109 158.938 168.172C158.969 168.422 158.984 168.688 158.984 168.969C158.984 169.25 158.984 169.547 158.984 169.859V175.672ZM74 354.656C73.4688 359.438 71.9531 363.172 69.4531 365.859C66.9844 368.516 63.4844 369.844 58.9531 369.844C57.4844 369.844 56 369.672 54.5 369.328C53.0312 368.984 51.5938 368.375 50.1875 367.5C48.8125 366.594 47.5156 365.375 46.2969 363.844C45.0781 362.281 44.0312 360.297 43.1562 357.891L41.4688 353.297C40.25 353.266 39.2656 353.203 38.5156 353.109C37.7656 352.984 37.0938 352.875 36.5 352.781C36.4062 352.875 36.3125 353 36.2188 353.156C36.1562 353.312 36.125 353.531 36.125 353.812C36.125 354.188 36.375 354.516 36.875 354.797C37.375 355.047 38.3906 355.219 39.9219 355.312L42.5938 362.062V366.047C40.8438 367.297 38.7656 368.25 36.3594 368.906C33.9531 369.531 31.4219 369.844 28.7656 369.844C26.8281 369.844 25.0469 369.641 23.4219 369.234C21.8281 368.859 20.4375 368.266 19.25 367.453C18.0625 366.641 17.1406 365.641 16.4844 364.453C15.8281 363.234 15.5 361.797 15.5 360.141V315.609C15.5 314.891 15.8594 314.188 16.5781 313.5C17.2969 312.781 18.2812 312.109 19.5312 311.484C20.7812 310.859 22.25 310.297 23.9375 309.797C25.625 309.266 27.4219 308.812 29.3281 308.438C31.2656 308.062 33.2656 307.781 35.3281 307.594C37.4219 307.375 39.4844 307.266 41.5156 307.266C46.0469 307.266 50.1719 307.75 53.8906 308.719C57.6406 309.688 60.8438 311.141 63.5 313.078C66.1562 314.984 68.2031 317.359 69.6406 320.203C71.1094 323.016 71.8438 326.297 71.8438 330.047C71.8438 332.234 71.5 334.25 70.8125 336.094C70.1562 337.938 69.2656 339.578 68.1406 341.016C67.0156 342.453 65.6875 343.688 64.1562 344.719C62.6562 345.719 61.0625 346.484 59.375 347.016C59.375 347.578 59.5312 347.969 59.8438 348.188C60.1562 348.406 60.5312 348.516 60.9688 348.516C61.4062 348.516 62.0625 348.359 62.9375 348.047C63.8125 347.734 64.7969 347.172 65.8906 346.359L74 354.656ZM41.7031 335.672C41.7969 335.734 41.9375 335.781 42.125 335.812C42.3438 335.812 42.4844 335.812 42.5469 335.812C43.2969 335.812 43.8281 335.578 44.1406 335.109C44.4531 334.641 44.6094 333.875 44.6094 332.812V331.125C44.6094 330.031 44.4688 329.234 44.1875 328.734C43.9375 328.234 43.4531 327.984 42.7344 327.984C42.5781 327.984 42.3906 328 42.1719 328.031C41.9531 328.062 41.7812 328.109 41.6562 328.172C41.6875 328.422 41.7031 328.688 41.7031 328.969C41.7031 329.25 41.7031 329.547 41.7031 329.859V335.672ZM123.922 308.531C124.328 309.188 124.703 309.922 125.047 310.734C125.391 311.516 125.672 312.344 125.891 313.219C126.109 314.062 126.281 314.922 126.406 315.797C126.531 316.641 126.594 317.438 126.594 318.188C126.594 321.406 125.969 323.797 124.719 325.359C123.469 326.922 121.75 327.703 119.562 327.703H100.672C99.5156 327.703 98.9375 328.156 98.9375 329.062C98.9375 329.125 98.9375 329.25 98.9375 329.438C98.9375 329.625 98.9688 329.75 99.0312 329.812H121.438C121.719 330.281 121.984 330.844 122.234 331.5C122.484 332.125 122.688 332.797 122.844 333.516C123.031 334.203 123.172 334.922 123.266 335.672C123.391 336.391 123.453 337.078 123.453 337.734C123.453 339.609 123.266 341.297 122.891 342.797C122.516 344.266 122.016 345.484 121.391 346.453H111.219C108.562 346.453 106.359 346.531 104.609 346.688C102.891 346.812 101.531 346.984 100.531 347.203C99.5312 347.422 98.8281 347.672 98.4219 347.953C98.0156 348.203 97.8125 348.469 97.8125 348.75C97.8125 349 97.8438 349.234 97.9062 349.453C98 349.672 98.1875 349.859 98.4688 350.016C99.25 349.766 100.047 349.547 100.859 349.359C101.672 349.172 102.578 349.031 103.578 348.938C104.578 348.812 105.688 348.719 106.906 348.656C108.156 348.594 109.594 348.562 111.219 348.562H124.391C124.734 349.062 125.078 349.625 125.422 350.25C125.766 350.844 126.062 351.547 126.312 352.359C126.594 353.141 126.812 354.047 126.969 355.078C127.156 356.109 127.25 357.297 127.25 358.641C127.25 359.484 127.188 360.391 127.062 361.359C126.938 362.297 126.75 363.234 126.5 364.172C126.25 365.109 125.922 366 125.516 366.844C125.109 367.688 124.625 368.422 124.062 369.047H88.9531C87.1094 369.047 85.3906 368.828 83.7969 368.391C82.2031 367.922 80.8125 367.219 79.625 366.281C78.4375 365.312 77.5 364.109 76.8125 362.672C76.125 361.203 75.7812 359.453 75.7812 357.422V312.844C75.7812 311.344 77.5156 310.25 80.9844 309.562C84.4531 308.875 89.75 308.531 96.875 308.531H123.922ZM129.594 314.953C129.594 314.234 130.172 313.438 131.328 312.562C132.516 311.656 134.219 310.812 136.438 310.031C138.656 309.25 141.359 308.594 144.547 308.062C147.766 307.531 151.391 307.266 155.422 307.266C160.391 307.266 164.625 307.766 168.125 308.766C171.625 309.734 174.469 311.047 176.656 312.703C178.875 314.359 180.484 316.281 181.484 318.469C182.516 320.625 183.031 322.891 183.031 325.266C183.031 326.172 182.953 327.094 182.797 328.031C182.641 328.938 182.406 329.812 182.094 330.656C181.781 331.5 181.375 332.297 180.875 333.047C180.406 333.766 179.859 334.359 179.234 334.828C178.359 334.391 177.5 334.078 176.656 333.891C175.812 333.672 175.078 333.562 174.453 333.562C173.797 333.562 173.266 333.688 172.859 333.938C172.453 334.188 172.25 334.719 172.25 335.531C174.688 335.625 176.797 336.125 178.578 337.031C180.359 337.938 181.828 339.109 182.984 340.547C184.141 341.953 185 343.578 185.562 345.422C186.125 347.234 186.406 349.125 186.406 351.094C186.406 354.469 185.703 357.328 184.297 359.672C182.891 362.016 180.844 363.922 178.156 365.391C175.5 366.828 172.219 367.875 168.312 368.531C164.438 369.188 160.016 369.516 155.047 369.516C151.484 369.516 148.406 369.453 145.812 369.328C143.219 369.234 140.984 369.062 139.109 368.812C135.797 368.375 133.375 367.328 131.844 365.672C130.344 363.984 129.594 361.406 129.594 357.938V314.953ZM155.047 333C155.141 333.062 155.281 333.109 155.469 333.141C155.688 333.141 155.828 333.141 155.891 333.141C156.641 333.141 157.172 332.906 157.484 332.438C157.797 331.969 157.953 331.203 157.953 330.141V329.859C157.953 328.766 157.812 327.969 157.531 327.469C157.281 326.969 156.797 326.719 156.078 326.719C155.922 326.719 155.734 326.734 155.516 326.766C155.297 326.797 155.125 326.844 155 326.906C155.031 327.156 155.047 327.422 155.047 327.703C155.047 327.984 155.047 328.281 155.047 328.594V333ZM155.047 350.672C155.141 350.734 155.281 350.781 155.469 350.812C155.688 350.812 155.828 350.812 155.891 350.812C156.641 350.812 157.172 350.625 157.484 350.25C157.797 349.844 157.953 349.109 157.953 348.047V347.156C157.953 346.062 157.812 345.25 157.531 344.719C157.281 344.188 156.797 343.922 156.078 343.922C155.922 343.922 155.734 343.938 155.516 343.969C155.297 344 155.125 344.047 155 344.109C155.031 344.359 155.047 344.625 155.047 344.906C155.047 345.188 155.047 345.484 155.047 345.797V350.672ZM218.141 370.5C215.516 370.5 212.922 370.219 210.359 369.656C207.797 369.125 205.375 368.297 203.094 367.172C200.812 366.047 198.703 364.625 196.766 362.906C194.859 361.188 193.203 359.156 191.797 356.812C190.391 354.469 189.297 351.797 188.516 348.797C187.734 345.797 187.344 342.453 187.344 338.766C187.344 333.297 188.188 328.578 189.875 324.609C191.562 320.609 193.812 317.312 196.625 314.719C199.438 312.094 202.672 310.156 206.328 308.906C210.016 307.656 213.859 307.031 217.859 307.031C222.609 307.031 226.875 307.812 230.656 309.375C234.438 310.906 237.641 313.062 240.266 315.844C242.891 318.625 244.906 321.969 246.312 325.875C247.719 329.781 248.422 334.078 248.422 338.766C248.422 344.328 247.625 349.109 246.031 353.109C244.469 357.109 242.312 360.406 239.562 363C236.844 365.562 233.641 367.453 229.953 368.672C226.297 369.891 222.359 370.5 218.141 370.5ZM220.016 336.656C220.016 335.156 219.984 333.875 219.922 332.812C219.859 331.719 219.75 330.812 219.594 330.094C219.438 329.438 219.219 329 218.938 328.781C218.688 328.562 218.391 328.453 218.047 328.453C217.703 328.453 217.438 328.516 217.25 328.641C217.062 328.734 216.906 328.828 216.781 328.922C216.812 329.484 216.859 330.016 216.922 330.516C216.984 330.984 217.031 331.531 217.062 332.156C217.125 332.75 217.172 333.453 217.203 334.266C217.234 335.047 217.25 336.016 217.25 337.172V340.219C217.25 341.375 217.234 342.359 217.203 343.172C217.172 343.953 217.125 344.656 217.062 345.281C217.031 345.875 216.984 346.422 216.922 346.922C216.859 347.391 216.812 347.906 216.781 348.469C216.906 348.562 217.062 348.672 217.25 348.797C217.438 348.891 217.703 348.938 218.047 348.938C218.391 348.938 218.688 348.828 218.938 348.609C219.219 348.391 219.438 347.953 219.594 347.297C219.75 346.578 219.859 345.688 219.922 344.625C219.984 343.531 220.016 342.234 220.016 340.734V336.656ZM281.328 370.5C278.703 370.5 276.109 370.219 273.547 369.656C270.984 369.125 268.562 368.297 266.281 367.172C264 366.047 261.891 364.625 259.953 362.906C258.047 361.188 256.391 359.156 254.984 356.812C253.578 354.469 252.484 351.797 251.703 348.797C250.922 345.797 250.531 342.453 250.531 338.766C250.531 333.297 251.375 328.578 253.062 324.609C254.75 320.609 257 317.312 259.812 314.719C262.625 312.094 265.859 310.156 269.516 308.906C273.203 307.656 277.047 307.031 281.047 307.031C285.797 307.031 290.062 307.812 293.844 309.375C297.625 310.906 300.828 313.062 303.453 315.844C306.078 318.625 308.094 321.969 309.5 325.875C310.906 329.781 311.609 334.078 311.609 338.766C311.609 344.328 310.812 349.109 309.219 353.109C307.656 357.109 305.5 360.406 302.75 363C300.031 365.562 296.828 367.453 293.141 368.672C289.484 369.891 285.547 370.5 281.328 370.5ZM283.203 336.656C283.203 335.156 283.172 333.875 283.109 332.812C283.047 331.719 282.938 330.812 282.781 330.094C282.625 329.438 282.406 329 282.125 328.781C281.875 328.562 281.578 328.453 281.234 328.453C280.891 328.453 280.625 328.516 280.438 328.641C280.25 328.734 280.094 328.828 279.969 328.922C280 329.484 280.047 330.016 280.109 330.516C280.172 330.984 280.219 331.531 280.25 332.156C280.312 332.75 280.359 333.453 280.391 334.266C280.422 335.047 280.438 336.016 280.438 337.172V340.219C280.438 341.375 280.422 342.359 280.391 343.172C280.359 343.953 280.312 344.656 280.25 345.281C280.219 345.875 280.172 346.422 280.109 346.922C280.047 347.391 280 347.906 279.969 348.469C280.094 348.562 280.25 348.672 280.438 348.797C280.625 348.891 280.891 348.938 281.234 348.938C281.578 348.938 281.875 348.828 282.125 348.609C282.406 348.391 282.625 347.953 282.781 347.297C282.938 346.578 283.047 345.688 283.109 344.625C283.172 343.531 283.203 342.234 283.203 340.734V336.656ZM341.562 319.547C340.75 321.234 340.094 322.625 339.594 323.719C339.094 324.781 338.703 325.641 338.422 326.297C338.141 326.922 337.953 327.406 337.859 327.75C337.766 328.094 337.719 328.375 337.719 328.594C337.719 328.969 337.828 329.297 338.047 329.578C338.266 329.828 338.672 329.953 339.266 329.953L348.5 309.703C350.656 308.297 353.469 307.594 356.938 307.594C358.812 307.594 360.609 307.859 362.328 308.391C364.078 308.891 365.625 309.672 366.969 310.734C368.312 311.766 369.375 313.078 370.156 314.672C370.969 316.234 371.375 318.062 371.375 320.156C371.375 321.906 371.062 323.625 370.438 325.312C369.812 327 368.938 328.641 367.812 330.234C366.719 331.797 365.406 333.281 363.875 334.688C362.375 336.062 360.75 337.312 359 338.438C358.125 337.938 357.312 337.578 356.562 337.359C355.844 337.109 355.125 336.984 354.406 336.984C353.844 336.984 353.344 337.141 352.906 337.453C352.5 337.766 352.297 338.281 352.297 339C352.891 339.125 353.484 339.266 354.078 339.422C354.672 339.578 355.281 339.797 355.906 340.078C356.562 340.359 357.25 340.75 357.969 341.25C358.719 341.75 359.516 342.391 360.359 343.172L372.828 354.656C372.391 359.656 370.906 363.438 368.375 366C365.875 368.562 362.297 369.844 357.641 369.844C356.047 369.844 354.516 369.641 353.047 369.234C351.578 368.828 350.172 368.156 348.828 367.219C347.516 366.281 346.281 365.062 345.125 363.562C344 362.031 343 360.156 342.125 357.938L337.766 347.062H337.531C336.938 347.062 336.531 347.203 336.312 347.484C336.094 347.766 335.984 348.062 335.984 348.375C335.984 348.875 336.406 350.25 337.25 352.5C338.125 354.719 339.453 357.828 341.234 361.828V365.438C340.609 366 339.844 366.547 338.938 367.078C338.062 367.609 337.047 368.078 335.891 368.484C334.766 368.891 333.5 369.219 332.094 369.469C330.719 369.719 329.219 369.844 327.594 369.844C325.844 369.844 324.156 369.656 322.531 369.281C320.906 368.906 319.469 368.344 318.219 367.594C317 366.812 316.016 365.828 315.266 364.641C314.547 363.453 314.188 362.062 314.188 360.469V312.094C315.625 310.781 317.562 309.719 320 308.906C322.438 308.094 325.156 307.688 328.156 307.688C329.938 307.688 331.625 307.859 333.219 308.203C334.844 308.547 336.266 309.109 337.484 309.891C338.734 310.641 339.719 311.641 340.438 312.891C341.188 314.109 341.562 315.625 341.562 317.438V319.547Z" fill="white"/>
<path d="M25.2246 394.816V407.258H23.5566V401.023H22.5039V406.684H20.8496V403.115L19.8652 404.428C18.71 403.819 17.9648 402.787 17.5273 401.502C17.1104 402.979 16.3721 404.175 15.1895 404.879L14.1094 403.539C15.9961 402.473 16.6387 400.271 16.6387 397.893V397.496H14.5332V396.102H20.2344V397.496H18.334V397.893C18.334 400.06 18.9766 402.124 20.8496 403.088V394.994H22.5039V399.602H23.5566V394.816H25.2246ZM36.4219 394.816V397.756H38.0078V399.205H36.4219V402.145H34.6719V394.816H36.4219ZM36.4219 402.582V405.371H29.75V406.014H36.832V407.176H28V404.318H34.6719V403.744H27.9863V402.582H36.4219ZM26.332 400.805C27.2412 400.812 28.2734 400.812 29.3535 400.777V400.23C27.9932 400.073 27.1523 399.506 27.166 398.617C27.1523 397.605 28.3555 397.018 30.2148 397.018C32.0605 397.018 33.25 397.605 33.2637 398.617C33.25 399.506 32.4297 400.066 31.0898 400.23V400.723C32.1084 400.675 33.1338 400.593 34.0977 400.463L34.2207 401.543C31.5684 401.994 28.6836 402.008 26.5098 402.008L26.332 400.805ZM33.7832 395.596V396.758H26.6602V395.596H29.3535V394.707H31.0898V395.596H33.7832ZM30.2148 398.098C29.3262 398.098 28.8203 398.262 28.834 398.617C28.8203 398.986 29.3262 399.178 30.2148 399.191C31.0898 399.178 31.582 398.986 31.5957 398.617C31.582 398.262 31.0898 398.098 30.2148 398.098ZM49.916 400.709V402.104H38.5684V400.709H41.125V399.219C40.2158 398.815 39.7031 398.2 39.7031 397.4C39.7031 395.896 41.4668 394.994 44.2422 394.994C46.9902 394.994 48.7539 395.896 48.7676 397.4C48.7607 398.207 48.2275 398.836 47.3047 399.232V400.709H49.916ZM44.2285 402.76C46.9219 402.76 48.5488 403.553 48.5625 404.988C48.5488 406.451 46.9219 407.244 44.2285 407.244C41.4941 407.244 39.8672 406.451 39.8672 404.988C39.8672 403.553 41.4941 402.76 44.2285 402.76ZM44.2285 404.072C42.5059 404.072 41.6309 404.373 41.6445 404.988C41.6309 405.631 42.5059 405.945 44.2285 405.945C45.9102 405.945 46.7988 405.631 46.8125 404.988C46.7988 404.373 45.9102 404.072 44.2285 404.072ZM44.2422 396.334C42.4785 396.334 41.5078 396.703 41.5215 397.4C41.5078 398.084 42.4785 398.426 44.2422 398.426C45.9785 398.426 46.9629 398.084 46.9629 397.4C46.9629 396.703 45.9785 396.334 44.2422 396.334ZM42.8887 400.709H45.5684V399.67C45.1582 399.718 44.7139 399.738 44.2422 399.738C43.7568 399.738 43.3057 399.718 42.8887 399.656V400.709ZM64.2168 395.896V397.113C64.2031 398.631 64.2031 400.34 63.752 402.842L62.043 402.691C62.4531 400.415 62.4668 398.72 62.4668 397.277H55.0156V395.896H64.2168ZM65.2422 404.318V405.74H53.8945V404.318H56.3145V400.408H58.0508V404.318H59.418V400.408H61.1406V404.318H65.2422ZM77.3418 400.627V402.008H74.6074V403.17H75.9609V407.258H74.2246V404.537H67.252V403.17H68.6738V402.008H65.9941V400.627H77.3418ZM71.668 395.062C74.4023 395.049 76.1797 395.992 76.1934 397.51C76.1797 399.027 74.4023 399.971 71.668 399.971C68.9199 399.971 67.1289 399.027 67.1289 397.51C67.1289 395.992 68.9199 395.049 71.668 395.062ZM71.668 396.416C69.9316 396.416 68.9336 396.799 68.9473 397.51C68.9336 398.248 69.9316 398.617 71.668 398.617C73.3906 398.617 74.3887 398.248 74.3887 397.51C74.3887 396.799 73.3906 396.416 71.668 396.416ZM70.4375 403.17H72.8848V402.008H70.4375V403.17ZM86.1465 398.207C86.1465 400.217 87.1719 402.363 89.2637 403.238L88.3203 404.605C86.8506 403.983 85.8389 402.746 85.2852 401.229C84.7178 402.876 83.6855 404.243 82.2227 404.92L81.2246 403.539C83.2891 402.623 84.3555 400.312 84.3555 398.207V397.441H81.7168V396.02H88.7441V397.441H86.1465V398.207ZM91.7383 394.816V407.258H89.9746V394.816H91.7383ZM103.482 395.199V398.904H96.5234V399.943H103.77V401.338H94.7598V397.592H101.691V396.607H94.7188V395.199H103.482ZM104.795 402.268V403.662H99.9551V407.285H98.2051V403.662H93.4062V402.268H104.795ZM115.391 394.816V397.879H117.072V399.342H115.391V402.322H113.641V394.816H115.391ZM115.391 402.869V407.121H107.256V402.869H115.391ZM108.979 404.236V405.727H113.668V404.236H108.979ZM112.902 395.938V397.318H105.52V395.938H108.35V394.748H110.086V395.938H112.902ZM109.211 397.701C111.016 397.701 112.273 398.617 112.273 399.93C112.273 401.283 111.016 402.186 109.211 402.186C107.379 402.186 106.121 401.283 106.121 399.93C106.121 398.617 107.379 397.701 109.211 397.701ZM109.211 399.014C108.377 399.014 107.816 399.342 107.83 399.93C107.816 400.559 108.377 400.9 109.211 400.9C110.045 400.9 110.619 400.559 110.619 399.93C110.619 399.342 110.045 399.014 109.211 399.014ZM123.293 394.994C126.15 394.994 127.805 395.746 127.818 397.113C127.805 398.494 126.15 399.246 123.293 399.246C120.422 399.246 118.754 398.494 118.754 397.113C118.754 395.746 120.422 394.994 123.293 394.994ZM123.293 396.266C121.461 396.266 120.572 396.566 120.586 397.113C120.572 397.729 121.461 397.961 123.293 397.961C125.139 397.961 126.014 397.729 126.014 397.113C126.014 396.566 125.139 396.266 123.293 396.266ZM128.967 399.834V401.215H117.619V399.834H128.967ZM127.586 401.939V405.111H120.654V405.863H127.914V407.176H118.945V403.895H125.863V403.211H118.932V401.939H127.586ZM143.432 402.445V407.121H135.119V402.445H143.432ZM136.842 403.826V405.727H141.723V403.826H136.842ZM135.365 395.473V399.984C136.924 399.964 138.523 399.841 140.191 399.506L140.369 400.969C138.4 401.365 136.541 401.461 134.682 401.461H133.643V395.473H135.365ZM143.432 394.816V401.926H141.695V398.316H138.605V396.908H141.695V394.816H143.432ZM148.477 395.691C150.158 395.691 151.409 397.079 151.662 399.314H153.822V394.816H155.545V407.285H153.822V400.709H151.676C151.491 403.102 150.213 404.564 148.477 404.564C146.59 404.564 145.236 402.855 145.25 400.121C145.236 397.414 146.59 395.691 148.477 395.691ZM148.477 397.264C147.547 397.264 146.904 398.275 146.918 400.121C146.904 401.98 147.547 402.979 148.477 402.979C149.42 402.979 150.035 401.98 150.035 400.121C150.035 398.275 149.42 397.264 148.477 397.264ZM171.76 404.373V405.809H160.371V404.373H165.17V401.83H161.574V395.732H170.488V401.83H166.906V404.373H171.76ZM163.297 397.127V400.463H168.766V397.127H163.297ZM182.957 394.816V402.336H181.221V399.889H179.607V398.467H181.221V394.816H182.957ZM182.957 402.869V407.121H174.59V402.869H182.957ZM176.34 404.236V405.727H181.248V404.236H176.34ZM179.826 395.896V397.291H172.498V395.896H175.314V394.707H177.037V395.896H179.826ZM176.176 397.701C177.926 397.701 179.156 398.631 179.156 399.93C179.156 401.283 177.926 402.186 176.176 402.186C174.439 402.186 173.182 401.283 173.182 399.93C173.182 398.631 174.439 397.701 176.176 397.701ZM176.176 399.014C175.369 399.014 174.85 399.342 174.863 399.93C174.85 400.559 175.369 400.9 176.176 400.9C176.969 400.9 177.488 400.559 177.488 399.93C177.488 399.342 176.969 399.014 176.176 399.014ZM190.244 395.445C192.869 395.459 194.92 396.867 194.934 399.027C194.92 401.201 192.869 402.623 190.244 402.609C187.605 402.623 185.568 401.201 185.568 399.027C185.568 396.867 187.605 395.459 190.244 395.445ZM190.244 396.867C188.521 396.854 187.264 397.688 187.264 399.027C187.264 400.381 188.521 401.188 190.244 401.188C191.967 401.188 193.197 400.381 193.211 399.027C193.197 397.688 191.967 396.854 190.244 396.867ZM195.959 404.332V405.74H184.57V404.332H195.959ZM208.059 404.441V405.877H196.67V404.441H201.469V402.568H197.982V398.385H205.023V397.018H197.969V395.623H206.746V399.752H199.732V401.146H207.033V402.568H203.205V404.441H208.059ZM210.383 404.797C209.74 404.797 209.221 404.277 209.234 403.648C209.221 403.02 209.74 402.514 210.383 402.514C210.984 402.514 211.518 403.02 211.518 403.648C211.518 404.277 210.984 404.797 210.383 404.797ZM210.383 399.588C209.74 399.588 209.221 399.068 209.234 398.439C209.221 397.811 209.74 397.305 210.383 397.305C210.984 397.305 211.518 397.811 211.518 398.439C211.518 399.068 210.984 399.588 210.383 399.588ZM218.859 395.5C220.527 395.486 221.73 396.676 221.744 398.385C221.73 400.08 220.527 401.27 218.859 401.27C217.191 401.27 216.002 400.08 216.002 398.385C216.002 396.676 217.191 395.486 218.859 395.5ZM218.859 396.908C218.094 396.895 217.561 397.428 217.561 398.385C217.561 399.301 218.094 399.834 218.859 399.834C219.611 399.834 220.145 399.301 220.158 398.385C220.145 397.428 219.611 396.895 218.859 396.908ZM226.639 394.83V401.584H224.984V398.836H223.945V401.502H222.318V395.049H223.945V397.414H224.984V394.83H226.639ZM219.857 402.09V403.225H224.916V402.09H226.639V407.121H218.135V402.09H219.857ZM219.857 405.727H224.916V404.605H219.857V405.727ZM233.721 395.445C236.346 395.459 238.396 396.867 238.41 399.027C238.396 401.201 236.346 402.623 233.721 402.609C231.082 402.623 229.045 401.201 229.045 399.027C229.045 396.867 231.082 395.459 233.721 395.445ZM233.721 396.867C231.998 396.854 230.74 397.688 230.74 399.027C230.74 400.381 231.998 401.188 233.721 401.188C235.443 401.188 236.674 400.381 236.688 399.027C236.674 397.688 235.443 396.854 233.721 396.867ZM239.436 404.332V405.74H228.047V404.332H239.436ZM251.535 404.441V405.877H240.146V404.441H244.945V402.568H241.459V398.385H248.5V397.018H241.445V395.623H250.223V399.752H243.209V401.146H250.51V402.568H246.682V404.441H251.535ZM266.82 399.875V401.256H255.473V399.875H266.82ZM265.439 401.939V405.111H258.508V405.863H265.768V407.176H256.799V403.895H263.717V403.211H256.785V401.939H265.439ZM265.795 395.213V396.58H262.295C262.678 397.339 263.99 398.057 266.328 398.193L265.781 399.533C263.478 399.362 261.885 398.638 261.133 397.592C260.388 398.631 258.809 399.362 256.525 399.533L255.979 398.193C258.296 398.057 259.595 397.339 259.984 396.58H256.512V395.213H265.795ZM278.031 394.816V407.258H276.268V394.816H278.031ZM274.299 396.115C274.299 399.889 272.973 403.02 268.529 405.125L267.613 403.73C270.826 402.213 272.241 400.244 272.521 397.482H268.283V396.115H274.299ZM289.775 398.207V399.574H281.08V395.254H282.816V398.207H289.775ZM291.047 400.914V402.281H279.658V400.914H291.047ZM289.857 405.59V406.984H280.971V403.293H282.721V405.59H289.857ZM305.854 394.816V407.258H304.186V401.023H303.133V406.684H301.479V403.115L300.494 404.428C299.339 403.819 298.594 402.787 298.156 401.502C297.739 402.979 297.001 404.175 295.818 404.879L294.738 403.539C296.625 402.473 297.268 400.271 297.268 397.893V397.496H295.162V396.102H300.863V397.496H298.963V397.893C298.963 400.06 299.605 402.124 301.479 403.088V394.994H303.133V399.602H304.186V394.816H305.854ZM317.051 394.816V397.756H318.637V399.205H317.051V402.145H315.301V394.816H317.051ZM317.051 402.582V405.371H310.379V406.014H317.461V407.176H308.629V404.318H315.301V403.744H308.615V402.582H317.051ZM306.961 400.805C307.87 400.812 308.902 400.812 309.982 400.777V400.23C308.622 400.073 307.781 399.506 307.795 398.617C307.781 397.605 308.984 397.018 310.844 397.018C312.689 397.018 313.879 397.605 313.893 398.617C313.879 399.506 313.059 400.066 311.719 400.23V400.723C312.737 400.675 313.763 400.593 314.727 400.463L314.85 401.543C312.197 401.994 309.312 402.008 307.139 402.008L306.961 400.805ZM314.412 395.596V396.758H307.289V395.596H309.982V394.707H311.719V395.596H314.412ZM310.844 398.098C309.955 398.098 309.449 398.262 309.463 398.617C309.449 398.986 309.955 399.178 310.844 399.191C311.719 399.178 312.211 398.986 312.225 398.617C312.211 398.262 311.719 398.098 310.844 398.098ZM330.545 400.709V402.104H319.197V400.709H321.754V399.219C320.845 398.815 320.332 398.2 320.332 397.4C320.332 395.896 322.096 394.994 324.871 394.994C327.619 394.994 329.383 395.896 329.396 397.4C329.39 398.207 328.856 398.836 327.934 399.232V400.709H330.545ZM324.857 402.76C327.551 402.76 329.178 403.553 329.191 404.988C329.178 406.451 327.551 407.244 324.857 407.244C322.123 407.244 320.496 406.451 320.496 404.988C320.496 403.553 322.123 402.76 324.857 402.76ZM324.857 404.072C323.135 404.072 322.26 404.373 322.273 404.988C322.26 405.631 323.135 405.945 324.857 405.945C326.539 405.945 327.428 405.631 327.441 404.988C327.428 404.373 326.539 404.072 324.857 404.072ZM324.871 396.334C323.107 396.334 322.137 396.703 322.15 397.4C322.137 398.084 323.107 398.426 324.871 398.426C326.607 398.426 327.592 398.084 327.592 397.4C327.592 396.703 326.607 396.334 324.871 396.334ZM323.518 400.709H326.197V399.67C325.787 399.718 325.343 399.738 324.871 399.738C324.386 399.738 323.935 399.718 323.518 399.656V400.709ZM340.361 395.992V397.359H338.447C338.502 398.364 339.254 399.376 340.758 399.861L340.02 401.133C338.871 400.791 338.085 400.101 337.641 399.26C337.183 400.183 336.403 400.955 335.262 401.352L334.496 400.053C335.973 399.499 336.738 398.385 336.793 397.359H334.865V395.992H336.793V394.857H338.447V395.992H340.361ZM345.215 394.83V401.352H343.561V398.781H342.562V401.27H340.922V395.049H342.562V397.4H343.561V394.83H345.215ZM345.215 401.803V405.057H338.447V405.836H345.639V407.121H336.711V403.799H343.492V403.115H336.697V401.803H345.215ZM357.027 394.83V403.99H355.291V394.83H357.027ZM357.355 405.645V407.039H348.66V403.225H350.396V405.645H357.355ZM353.035 395.637V399.602H348.988V400.982C351.21 400.976 352.632 400.914 354.238 400.6L354.43 401.994C352.625 402.336 351.012 402.404 348.373 402.404H347.279V398.316H351.299V397.031H347.266V395.637H353.035ZM363.549 398.207C363.549 400.217 364.574 402.363 366.666 403.238L365.723 404.605C364.253 403.983 363.241 402.746 362.688 401.229C362.12 402.876 361.088 404.243 359.625 404.92L358.627 403.539C360.691 402.623 361.758 400.312 361.758 398.207V397.441H359.119V396.02H366.146V397.441H363.549V398.207ZM369.141 394.816V407.258H367.377V394.816H369.141ZM373.652 396.102L373.475 403.033H371.725L371.547 396.102H373.652ZM372.613 406.123C371.971 406.123 371.451 405.604 371.465 404.975C371.451 404.346 371.971 403.84 372.613 403.84C373.215 403.84 373.748 404.346 373.748 404.975C373.748 405.604 373.215 406.123 372.613 406.123Z" fill="white"/>
<g clip-path="url(#clip2_512_2206)">
<path d="M402.145 43.1491C404.499 41.2389 406 38.324 406 35.0645C406 29.3223 401.327 24.6491 395.585 24.6491C392.325 24.6491 389.41 26.1504 387.5 28.5045C385.59 26.1504 382.681 24.6491 379.421 24.6491C373.673 24.6491 369 29.3223 369 35.0645C369 38.324 370.501 41.2389 372.855 43.1491C370.601 44.9775 369.129 47.7288 369.012 50.819C369.012 50.8248 369.006 50.8307 369.006 50.8365C369.006 50.965 369.006 51.0994 369.006 51.2279V60.0544C369.006 60.9014 369.701 61.5965 370.548 61.5965H372.143C372.99 61.5965 373.679 60.9014 373.679 60.0544V51.2279C373.679 48.0618 376.255 45.4857 379.427 45.4857C382.599 45.4857 385.169 48.0618 385.169 51.2279V60.107C385.169 60.142 385.169 60.1771 385.175 60.2121C385.228 61.0124 385.899 61.6491 386.711 61.6491H395.655C395.707 61.6491 395.76 61.6491 395.812 61.6433C401.455 61.5264 406.006 56.9 406.006 51.2279C406.006 47.9683 404.505 45.0593 402.15 43.1491H402.145ZM379.421 40.8125C376.249 40.8125 373.673 38.2306 373.673 35.0645C373.673 31.8984 376.249 29.3223 379.421 29.3223C382.593 29.3223 385.163 31.8984 385.163 35.0645C385.163 38.2306 382.587 40.8125 379.421 40.8125ZM395.649 56.9759H395.585C392.413 56.9759 389.837 54.3998 389.837 51.2279C389.837 48.056 392.413 45.4857 395.585 45.4857C398.757 45.4857 401.327 48.0618 401.327 51.2279C401.327 54.394 398.786 56.9409 395.649 56.9759ZM395.585 40.8125C392.413 40.8125 389.837 38.2306 389.837 35.0645C389.837 31.8984 392.413 29.3223 395.585 29.3223C398.757 29.3223 401.327 31.8984 401.327 35.0645C401.327 38.2306 398.751 40.8125 395.585 40.8125Z" fill="white"/>
<path d="M377.99 50.3451C377.99 50.4269 377.984 50.5028 377.973 50.5788C377.92 50.9117 377.762 51.2097 377.534 51.4316C377.254 51.712 376.868 51.8873 376.448 51.8873C375.683 51.8873 375.04 51.3148 374.929 50.5788C374.917 50.5028 374.912 50.4269 374.912 50.3451C374.912 49.9187 375.081 49.539 375.361 49.2586C375.642 48.9841 376.027 48.8088 376.448 48.8088C376.868 48.8088 377.254 48.9841 377.534 49.2586C377.815 49.539 377.99 49.9187 377.99 50.3451Z" fill="white"/>
<path d="M383.68 50.3451C383.68 50.4269 383.68 50.5028 383.662 50.5788C383.61 50.9117 383.452 51.2097 383.224 51.4316C382.944 51.712 382.558 51.8873 382.138 51.8873C381.378 51.8873 380.736 51.3148 380.619 50.5788C380.607 50.5028 380.601 50.4269 380.601 50.3451C380.601 49.9187 380.776 49.539 381.051 49.2586C381.331 48.9841 381.717 48.8088 382.138 48.8088C382.558 48.8088 382.944 48.9841 383.224 49.2586C383.504 49.539 383.68 49.9187 383.68 50.3451Z" fill="white"/>
</g>
</g>
<defs>
<clipPath id="clip0_512_2206">
<rect width="430" height="932" fill="white"/>
</clipPath>
<clipPath id="clip1_512_2206">
<rect width="466" height="760" fill="white" transform="translate(-50 482)"/>
</clipPath>
<clipPath id="clip2_512_2206">
<rect width="37" height="37" fill="white" transform="translate(369 24)"/>
</clipPath>
</defs>
</svg>
