<svg width="359" height="304" viewBox="0 0 359 304" fill="none" xmlns="http://www.w3.org/2000/svg">
<path d="M45.8438 40.5781C45.8438 43.7344 45.3125 46.7031 44.25 49.4844C43.1875 52.2344 41.625 54.6406 39.5625 56.7031C37.5 58.7344 34.9219 60.3438 31.8281 61.5312C28.7656 62.7188 25.2188 63.3125 21.1875 63.3125C18.6562 63.3125 16.3125 62.9688 14.1562 62.2812C12.0312 61.625 10.125 60.8125 8.4375 59.8438C6.78125 58.875 5.35938 57.8438 4.17188 56.75C2.98438 55.625 2.09375 54.6406 1.5 53.7969C1.34375 52.7969 1.21875 51.8594 1.125 50.9844C1.0625 50.0781 1.03125 49.2812 1.03125 48.5938C1.03125 45.7812 1.46875 43.4219 2.34375 41.5156C3.21875 39.6094 4.32812 38.0781 5.67188 36.9219C7.01562 35.7344 8.5 34.8906 10.125 34.3906C11.7812 33.8594 13.375 33.5938 14.9062 33.5938C16.2812 33.5938 17.6094 33.7812 18.8906 34.1562C20.1719 34.5312 21.3594 35.0938 22.4531 35.8438C23.5781 36.5625 24.5781 37.4688 25.4531 38.5625C26.3281 39.625 27.0469 40.8594 27.6094 42.2656C28.0156 42.2656 28.3594 42.1406 28.6406 41.8906C28.9531 41.6406 29.1094 41.25 29.1094 40.7188C29.1094 40.25 28.8906 39.5781 28.4531 38.7031C28.0156 37.8281 27.3438 36.9375 26.4375 36.0312C25.5625 35.0938 24.4531 34.2344 23.1094 33.4531C21.7969 32.6406 20.25 32.0781 18.4688 31.7656V4.76562C19.125 4.26562 19.9219 3.76563 20.8594 3.26562C21.8281 2.76562 22.8906 2.32812 24.0469 1.95312C25.2031 1.57812 26.4219 1.28125 27.7031 1.0625C28.9844 0.8125 30.2812 0.6875 31.5938 0.6875C32.9062 0.6875 34.375 0.796875 36 1.01562C37.6562 1.23438 39.2031 1.67188 40.6406 2.32812C42.1094 2.95312 43.3438 3.82812 44.3438 4.95312C45.3438 6.07812 45.8438 7.53125 45.8438 9.3125V40.5781ZM90 0.6875C91.75 0.6875 93.4531 0.9375 95.1094 1.4375C96.7969 1.90625 98.2812 2.625 99.5625 3.59375C100.875 4.5625 101.922 5.78125 102.703 7.25C103.484 8.71875 103.875 10.4375 103.875 12.4062V38.4688C103.875 42.5 103.234 46.0625 101.953 49.1562C100.672 52.25 98.8438 54.8438 96.4688 56.9375C94.125 59.0312 91.2812 60.6094 87.9375 61.6719C84.625 62.7344 80.9219 63.2656 76.8281 63.2656C72.4844 63.2656 68.6094 62.7344 65.2031 61.6719C61.7969 60.6094 58.9062 59.0469 56.5312 56.9844C54.1875 54.8906 52.3906 52.2969 51.1406 49.2031C49.9219 46.1094 49.3125 42.5312 49.3125 38.4688V5.04688C50.8125 3.85938 52.6562 2.82813 54.8438 1.95312C57.0312 1.07812 59.4531 0.640625 62.1094 0.640625C64.0781 0.640625 65.8594 0.90625 67.4531 1.4375C69.0781 1.9375 70.4688 2.71875 71.625 3.78125C72.8125 4.84375 73.7188 6.1875 74.3438 7.8125C75 9.4375 75.3281 11.3594 75.3281 13.5781V40.9062C75.6406 41.1562 76.0312 41.2812 76.5 41.2812C76.9375 41.2812 77.2656 41.1719 77.4844 40.9531C77.7031 40.7344 77.8125 40.2812 77.8125 39.5938V13.5312C77.8125 12.5 77.7812 11.5938 77.7188 10.8125C77.6875 10.0312 77.6094 9.32812 77.4844 8.70312C77.3906 8.07813 77.25 7.5 77.0625 6.96875C76.875 6.4375 76.6562 5.90625 76.4062 5.375C78.125 3.9375 80.0781 2.79688 82.2656 1.95312C84.4844 1.10938 87.0625 0.6875 90 0.6875ZM119.297 35.75C120.828 35.75 122.281 35.9062 123.656 36.2188C125.031 36.5312 126.281 37.0469 127.406 37.7656C128.531 38.4844 129.531 39.4375 130.406 40.625C131.281 41.7812 132 43.2188 132.562 44.9375C133.594 44.75 134.109 44.2031 134.109 43.2969C134.109 42.5781 133.844 41.6719 133.312 40.5781C132.812 39.4844 131.984 38.4219 130.828 37.3906C129.703 36.3594 128.203 35.4844 126.328 34.7656C124.484 34.0156 122.234 33.6406 119.578 33.6406C118.078 33.6406 116.781 33.7656 115.688 34.0156C114.625 34.2656 113.734 34.5312 113.016 34.8125C111.922 34.25 110.938 33.5312 110.062 32.6562C109.188 31.75 108.438 30.7344 107.812 29.6094C107.219 28.4844 106.75 27.2656 106.406 25.9531C106.094 24.6406 105.938 23.2969 105.938 21.9219C105.938 18.0781 106.766 14.7812 108.422 12.0312C110.078 9.28125 112.234 7.04688 114.891 5.32812C117.578 3.57813 120.594 2.29687 123.938 1.48438C127.281 0.671875 130.641 0.265625 134.016 0.265625C137.047 0.265625 139.797 0.453125 142.266 0.828125C144.734 1.20312 146.938 1.70313 148.875 2.32812C150.812 2.92188 152.5 3.60937 153.938 4.39062C155.406 5.14062 156.641 5.90625 157.641 6.6875C157.984 7.6875 158.25 8.78125 158.438 9.96875C158.625 11.1562 158.719 12.3906 158.719 13.6719C158.719 14.5156 158.641 15.4062 158.484 16.3438C158.359 17.25 158.156 18.1406 157.875 19.0156C157.594 19.8906 157.234 20.7188 156.797 21.5C156.359 22.2812 155.844 22.9531 155.25 23.5156C154.75 23.1719 154.016 22.7969 153.047 22.3906C152.078 21.9531 150.969 21.5625 149.719 21.2188C148.5 20.8438 147.172 20.5312 145.734 20.2812C144.297 20.0312 142.859 19.9062 141.422 19.9062C139.453 19.9062 138.078 20.0469 137.297 20.3281C136.547 20.6094 136.172 21.0469 136.172 21.6406C136.172 21.9531 136.219 22.2188 136.312 22.4375C136.938 22.2812 137.625 22.1719 138.375 22.1094C139.125 22.0469 139.844 22.0156 140.531 22.0156C143.219 22.0156 145.859 22.3594 148.453 23.0469C151.047 23.7031 153.359 24.8125 155.391 26.375C157.453 27.9062 159.109 29.9375 160.359 32.4688C161.609 35 162.234 38.1094 162.234 41.7969C162.234 44.7031 161.609 47.4531 160.359 50.0469C159.109 52.6406 157.266 54.9219 154.828 56.8906C152.422 58.8594 149.422 60.4219 145.828 61.5781C142.266 62.7344 138.141 63.3125 133.453 63.3125C131.047 63.3125 128.797 63.2188 126.703 63.0312C124.609 62.875 122.609 62.5938 120.703 62.1875C118.797 61.8125 116.969 61.3125 115.219 60.6875C113.469 60.0312 111.734 59.25 110.016 58.3438C108.984 56.8438 108.141 55.25 107.484 53.5625C106.828 51.875 106.5 49.9531 106.5 47.7969C106.5 46.1094 106.812 44.5312 107.438 43.0625C108.094 41.5938 108.984 40.3281 110.109 39.2656C111.234 38.1719 112.578 37.3125 114.141 36.6875C115.703 36.0625 117.422 35.75 119.297 35.75ZM202.5 58.4375C201.219 59.5625 199.391 60.5781 197.016 61.4844C194.672 62.3906 191.844 62.8438 188.531 62.8438C186.781 62.8438 185.094 62.6562 183.469 62.2812C181.844 61.9062 180.406 61.3438 179.156 60.5938C177.938 59.8125 176.953 58.8438 176.203 57.6875C175.484 56.5 175.125 55.1094 175.125 53.5156V23.3281H164.203C163.016 21.6094 162.156 19.9062 161.625 18.2188C161.094 16.5 160.828 14.6875 160.828 12.7812C160.828 11.3437 160.953 10.0469 161.203 8.89062C161.453 7.70313 161.781 6.65625 162.188 5.75C162.594 4.8125 163.047 4 163.547 3.3125C164.078 2.59375 164.609 2 165.141 1.53125H213.609C214.484 2.875 215.219 4.54687 215.812 6.54688C216.438 8.54688 216.75 10.5625 216.75 12.5938C216.75 14.5 216.516 16.1406 216.047 17.5156C215.609 18.8594 214.984 19.9688 214.172 20.8438C213.391 21.6875 212.453 22.3125 211.359 22.7188C210.266 23.125 209.062 23.3281 207.75 23.3281H194.016C193.922 23.5781 193.875 23.8125 193.875 24.0312C193.875 24.3125 193.938 24.5469 194.062 24.7344C194.188 24.8906 194.438 25.0312 194.812 25.1562C195.219 25.2812 195.766 25.375 196.453 25.4375C197.172 25.4688 198.109 25.4844 199.266 25.4844H202.5V58.4375ZM28.875 218.438C27.5938 219.562 25.7656 220.578 23.3906 221.484C21.0469 222.391 18.2188 222.844 14.9062 222.844C13.1562 222.844 11.4688 222.656 9.84375 222.281C8.21875 221.906 6.78125 221.344 5.53125 220.594C4.3125 219.812 3.32812 218.844 2.57812 217.688C1.85938 216.5 1.5 215.109 1.5 213.516V165.094C2.78125 163.969 4.59375 162.953 6.9375 162.047C9.3125 161.141 12.1562 160.688 15.4688 160.688C17.2188 160.688 18.9062 160.875 20.5312 161.25C22.1562 161.625 23.5781 162.203 24.7969 162.984C26.0469 163.734 27.0312 164.703 27.75 165.891C28.5 167.047 28.875 168.422 28.875 170.016V218.438ZM72.375 218.438C71.0938 219.562 69.2656 220.578 66.8906 221.484C64.5469 222.391 61.7188 222.844 58.4062 222.844C56.6562 222.844 54.9688 222.656 53.3438 222.281C51.7188 221.906 50.2812 221.344 49.0312 220.594C47.8125 219.812 46.8281 218.844 46.0781 217.688C45.3594 216.5 45 215.109 45 213.516V183.328H34.0781C32.8906 181.609 32.0312 179.906 31.5 178.219C30.9688 176.5 30.7031 174.688 30.7031 172.781C30.7031 171.344 30.8281 170.047 31.0781 168.891C31.3281 167.703 31.6562 166.656 32.0625 165.75C32.4688 164.812 32.9219 164 33.4219 163.312C33.9531 162.594 34.4844 162 35.0156 161.531H83.4844C84.3594 162.875 85.0938 164.547 85.6875 166.547C86.3125 168.547 86.625 170.562 86.625 172.594C86.625 174.5 86.3906 176.141 85.9219 177.516C85.4844 178.859 84.8594 179.969 84.0469 180.844C83.2656 181.688 82.3281 182.312 81.2344 182.719C80.1406 183.125 78.9375 183.328 77.625 183.328H63.8906C63.7969 183.578 63.75 183.812 63.75 184.031C63.75 184.312 63.8125 184.547 63.9375 184.734C64.0625 184.891 64.3125 185.031 64.6875 185.156C65.0938 185.281 65.6406 185.375 66.3281 185.438C67.0469 185.469 67.9844 185.484 69.1406 185.484H72.375V218.438Z" fill="black"/>
<path d="M42 138.438C40.7188 139.562 38.8906 140.578 36.5156 141.484C34.1719 142.391 31.3438 142.844 28.0312 142.844C26.2812 142.844 24.5938 142.656 22.9688 142.281C21.3438 141.906 19.9062 141.344 18.6562 140.594C17.4375 139.812 16.4531 138.844 15.7031 137.688C14.9844 136.5 14.625 135.109 14.625 133.516V103.328H3.70312C2.51562 101.609 1.65625 99.9062 1.125 98.2188C0.59375 96.5 0.328125 94.6875 0.328125 92.7812C0.328125 91.3438 0.453125 90.0469 0.703125 88.8906C0.953125 87.7031 1.28125 86.6562 1.6875 85.75C2.09375 84.8125 2.54688 84 3.04688 83.3125C3.57812 82.5938 4.10938 82 4.64062 81.5312H53.1094C53.9844 82.875 54.7188 84.5469 55.3125 86.5469C55.9375 88.5469 56.25 90.5625 56.25 92.5938C56.25 94.5 56.0156 96.1406 55.5469 97.5156C55.1094 98.8594 54.4844 99.9688 53.6719 100.844C52.8906 101.688 51.9531 102.312 50.8594 102.719C49.7656 103.125 48.5625 103.328 47.25 103.328H33.5156C33.4219 103.578 33.375 103.812 33.375 104.031C33.375 104.312 33.4375 104.547 33.5625 104.734C33.6875 104.891 33.9375 105.031 34.3125 105.156C34.7188 105.281 35.2656 105.375 35.9531 105.438C36.6719 105.469 37.6094 105.484 38.7656 105.484H42V138.438ZM79.125 126.297C75.5938 123.953 72.5 121.344 69.8438 118.469C67.2188 115.594 65 112.516 63.1875 109.234C61.4062 105.922 60.0156 102.422 59.0156 98.7344C58.0156 95.0469 57.4062 91.2188 57.1875 87.25C57.9688 86.0938 58.9375 85.1094 60.0938 84.2969C61.25 83.4844 62.5 82.8125 63.8438 82.2812C65.1875 81.75 66.5781 81.3594 68.0156 81.1094C69.4531 80.8594 70.8281 80.7344 72.1406 80.7344C74.2969 80.7344 76.1719 80.9375 77.7656 81.3438C79.3906 81.75 80.875 82.3125 82.2188 83.0312C82.4375 83.5938 82.75 84.4688 83.1562 85.6562C83.5625 86.8125 83.9688 88.0625 84.375 89.4062C84.8125 90.7188 85.2188 92.0312 85.5938 93.3438C86 94.625 86.3125 95.6875 86.5312 96.5312L84.4688 105.625C84.4062 105.969 84.3125 106.359 84.1875 106.797C84.0938 107.234 84.0469 107.625 84.0469 107.969C84.0469 108.438 84.1719 108.828 84.4219 109.141C84.6719 109.422 85.1094 109.562 85.7344 109.562C85.9219 108.969 86.1719 108.016 86.4844 106.703C86.8281 105.359 87.1875 103.844 87.5625 102.156C87.9688 100.438 88.375 98.625 88.7812 96.7188C89.2188 94.7812 89.625 92.9219 90 91.1406C90.4062 89.3594 90.7812 87.7344 91.125 86.2656C91.4688 84.7656 91.75 83.5781 91.9688 82.7031C93.1875 82.1094 94.6406 81.625 96.3281 81.25C98.0156 80.8438 99.8438 80.6406 101.812 80.6406C104 80.6406 106 80.9219 107.812 81.4844C109.625 82.0156 111.172 82.8125 112.453 83.875C113.734 84.9375 114.719 86.2656 115.406 87.8594C116.125 89.4219 116.484 91.2344 116.484 93.2969C116.484 96.5781 116.016 99.6875 115.078 102.625C114.141 105.562 112.922 108.297 111.422 110.828C109.922 113.359 108.234 115.688 106.359 117.812C104.516 119.938 102.688 121.812 100.875 123.438V138.906C99.5 139.75 98.2188 140.438 97.0312 140.969C95.8438 141.469 94.6875 141.859 93.5625 142.141C92.4688 142.422 91.4062 142.609 90.375 142.703C89.375 142.797 88.375 142.844 87.375 142.844C85.3125 142.844 83.4219 142.656 81.7031 142.281C80.0156 141.906 78.5625 141.328 77.3438 140.547C76.125 139.734 75.1719 138.719 74.4844 137.5C73.8281 136.281 73.5 134.828 73.5 133.141V124.891C73.6875 125.078 73.9688 125.344 74.3438 125.688C74.7188 126 75.1094 126.312 75.5156 126.625C75.9219 126.938 76.3281 127.203 76.7344 127.422C77.1719 127.641 77.5312 127.75 77.8125 127.75C78.1875 127.75 78.5 127.641 78.75 127.422C79 127.172 79.125 126.797 79.125 126.297ZM177.281 127.656C176.75 132.438 175.234 136.172 172.734 138.859C170.266 141.516 166.766 142.844 162.234 142.844C160.766 142.844 159.281 142.672 157.781 142.328C156.312 141.984 154.875 141.375 153.469 140.5C152.094 139.594 150.797 138.375 149.578 136.844C148.359 135.281 147.312 133.297 146.438 130.891L144.75 126.297C143.531 126.266 142.547 126.203 141.797 126.109C141.047 125.984 140.375 125.875 139.781 125.781C139.688 125.875 139.594 126 139.5 126.156C139.438 126.312 139.406 126.531 139.406 126.812C139.406 127.188 139.656 127.516 140.156 127.797C140.656 128.047 141.672 128.219 143.203 128.312L145.875 135.062V139.047C144.125 140.297 142.047 141.25 139.641 141.906C137.234 142.531 134.703 142.844 132.047 142.844C130.109 142.844 128.328 142.641 126.703 142.234C125.109 141.859 123.719 141.266 122.531 140.453C121.344 139.641 120.422 138.641 119.766 137.453C119.109 136.234 118.781 134.797 118.781 133.141V88.6094C118.781 87.8906 119.141 87.1875 119.859 86.5C120.578 85.7812 121.562 85.1094 122.812 84.4844C124.062 83.8594 125.531 83.2969 127.219 82.7969C128.906 82.2656 130.703 81.8125 132.609 81.4375C134.547 81.0625 136.547 80.7812 138.609 80.5938C140.703 80.375 142.766 80.2656 144.797 80.2656C149.328 80.2656 153.453 80.75 157.172 81.7188C160.922 82.6875 164.125 84.1406 166.781 86.0781C169.438 87.9844 171.484 90.3594 172.922 93.2031C174.391 96.0156 175.125 99.2969 175.125 103.047C175.125 105.234 174.781 107.25 174.094 109.094C173.438 110.938 172.547 112.578 171.422 114.016C170.297 115.453 168.969 116.688 167.438 117.719C165.938 118.719 164.344 119.484 162.656 120.016C162.656 120.578 162.812 120.969 163.125 121.188C163.438 121.406 163.812 121.516 164.25 121.516C164.688 121.516 165.344 121.359 166.219 121.047C167.094 120.734 168.078 120.172 169.172 119.359L177.281 127.656ZM144.984 108.672C145.078 108.734 145.219 108.781 145.406 108.812C145.625 108.812 145.766 108.812 145.828 108.812C146.578 108.812 147.109 108.578 147.422 108.109C147.734 107.641 147.891 106.875 147.891 105.812V104.125C147.891 103.031 147.75 102.234 147.469 101.734C147.219 101.234 146.734 100.984 146.016 100.984C145.859 100.984 145.672 101 145.453 101.031C145.234 101.062 145.062 101.109 144.938 101.172C144.969 101.422 144.984 101.688 144.984 101.969C144.984 102.25 144.984 102.547 144.984 102.859V108.672ZM60 287.656C59.4688 292.438 57.9531 296.172 55.4531 298.859C52.9844 301.516 49.4844 302.844 44.9531 302.844C43.4844 302.844 42 302.672 40.5 302.328C39.0312 301.984 37.5938 301.375 36.1875 300.5C34.8125 299.594 33.5156 298.375 32.2969 296.844C31.0781 295.281 30.0312 293.297 29.1562 290.891L27.4688 286.297C26.25 286.266 25.2656 286.203 24.5156 286.109C23.7656 285.984 23.0938 285.875 22.5 285.781C22.4062 285.875 22.3125 286 22.2188 286.156C22.1562 286.312 22.125 286.531 22.125 286.812C22.125 287.188 22.375 287.516 22.875 287.797C23.375 288.047 24.3906 288.219 25.9219 288.312L28.5938 295.062V299.047C26.8438 300.297 24.7656 301.25 22.3594 301.906C19.9531 302.531 17.4219 302.844 14.7656 302.844C12.8281 302.844 11.0469 302.641 9.42188 302.234C7.82812 301.859 6.4375 301.266 5.25 300.453C4.0625 299.641 3.14062 298.641 2.48438 297.453C1.82812 296.234 1.5 294.797 1.5 293.141V248.609C1.5 247.891 1.85938 247.188 2.57812 246.5C3.29688 245.781 4.28125 245.109 5.53125 244.484C6.78125 243.859 8.25 243.297 9.9375 242.797C11.625 242.266 13.4219 241.812 15.3281 241.438C17.2656 241.062 19.2656 240.781 21.3281 240.594C23.4219 240.375 25.4844 240.266 27.5156 240.266C32.0469 240.266 36.1719 240.75 39.8906 241.719C43.6406 242.688 46.8438 244.141 49.5 246.078C52.1562 247.984 54.2031 250.359 55.6406 253.203C57.1094 256.016 57.8438 259.297 57.8438 263.047C57.8438 265.234 57.5 267.25 56.8125 269.094C56.1562 270.938 55.2656 272.578 54.1406 274.016C53.0156 275.453 51.6875 276.688 50.1562 277.719C48.6562 278.719 47.0625 279.484 45.375 280.016C45.375 280.578 45.5312 280.969 45.8438 281.188C46.1562 281.406 46.5312 281.516 46.9688 281.516C47.4062 281.516 48.0625 281.359 48.9375 281.047C49.8125 280.734 50.7969 280.172 51.8906 279.359L60 287.656ZM27.7031 268.672C27.7969 268.734 27.9375 268.781 28.125 268.812C28.3438 268.812 28.4844 268.812 28.5469 268.812C29.2969 268.812 29.8281 268.578 30.1406 268.109C30.4531 267.641 30.6094 266.875 30.6094 265.812V264.125C30.6094 263.031 30.4688 262.234 30.1875 261.734C29.9375 261.234 29.4531 260.984 28.7344 260.984C28.5781 260.984 28.3906 261 28.1719 261.031C27.9531 261.062 27.7812 261.109 27.6562 261.172C27.6875 261.422 27.7031 261.688 27.7031 261.969C27.7031 262.25 27.7031 262.547 27.7031 262.859V268.672ZM109.922 241.531C110.328 242.188 110.703 242.922 111.047 243.734C111.391 244.516 111.672 245.344 111.891 246.219C112.109 247.062 112.281 247.922 112.406 248.797C112.531 249.641 112.594 250.438 112.594 251.188C112.594 254.406 111.969 256.797 110.719 258.359C109.469 259.922 107.75 260.703 105.562 260.703H86.6719C85.5156 260.703 84.9375 261.156 84.9375 262.062C84.9375 262.125 84.9375 262.25 84.9375 262.438C84.9375 262.625 84.9688 262.75 85.0312 262.812H107.438C107.719 263.281 107.984 263.844 108.234 264.5C108.484 265.125 108.688 265.797 108.844 266.516C109.031 267.203 109.172 267.922 109.266 268.672C109.391 269.391 109.453 270.078 109.453 270.734C109.453 272.609 109.266 274.297 108.891 275.797C108.516 277.266 108.016 278.484 107.391 279.453H97.2188C94.5625 279.453 92.3594 279.531 90.6094 279.688C88.8906 279.812 87.5312 279.984 86.5312 280.203C85.5312 280.422 84.8281 280.672 84.4219 280.953C84.0156 281.203 83.8125 281.469 83.8125 281.75C83.8125 282 83.8438 282.234 83.9062 282.453C84 282.672 84.1875 282.859 84.4688 283.016C85.25 282.766 86.0469 282.547 86.8594 282.359C87.6719 282.172 88.5781 282.031 89.5781 281.938C90.5781 281.812 91.6875 281.719 92.9062 281.656C94.1562 281.594 95.5938 281.562 97.2188 281.562H110.391C110.734 282.062 111.078 282.625 111.422 283.25C111.766 283.844 112.062 284.547 112.312 285.359C112.594 286.141 112.812 287.047 112.969 288.078C113.156 289.109 113.25 290.297 113.25 291.641C113.25 292.484 113.188 293.391 113.062 294.359C112.938 295.297 112.75 296.234 112.5 297.172C112.25 298.109 111.922 299 111.516 299.844C111.109 300.688 110.625 301.422 110.062 302.047H74.9531C73.1094 302.047 71.3906 301.828 69.7969 301.391C68.2031 300.922 66.8125 300.219 65.625 299.281C64.4375 298.312 63.5 297.109 62.8125 295.672C62.125 294.203 61.7812 292.453 61.7812 290.422V245.844C61.7812 244.344 63.5156 243.25 66.9844 242.562C70.4531 241.875 75.75 241.531 82.875 241.531H109.922ZM115.594 247.953C115.594 247.234 116.172 246.438 117.328 245.562C118.516 244.656 120.219 243.812 122.438 243.031C124.656 242.25 127.359 241.594 130.547 241.062C133.766 240.531 137.391 240.266 141.422 240.266C146.391 240.266 150.625 240.766 154.125 241.766C157.625 242.734 160.469 244.047 162.656 245.703C164.875 247.359 166.484 249.281 167.484 251.469C168.516 253.625 169.031 255.891 169.031 258.266C169.031 259.172 168.953 260.094 168.797 261.031C168.641 261.938 168.406 262.812 168.094 263.656C167.781 264.5 167.375 265.297 166.875 266.047C166.406 266.766 165.859 267.359 165.234 267.828C164.359 267.391 163.5 267.078 162.656 266.891C161.812 266.672 161.078 266.562 160.453 266.562C159.797 266.562 159.266 266.688 158.859 266.938C158.453 267.188 158.25 267.719 158.25 268.531C160.688 268.625 162.797 269.125 164.578 270.031C166.359 270.938 167.828 272.109 168.984 273.547C170.141 274.953 171 276.578 171.562 278.422C172.125 280.234 172.406 282.125 172.406 284.094C172.406 287.469 171.703 290.328 170.297 292.672C168.891 295.016 166.844 296.922 164.156 298.391C161.5 299.828 158.219 300.875 154.312 301.531C150.438 302.188 146.016 302.516 141.047 302.516C137.484 302.516 134.406 302.453 131.812 302.328C129.219 302.234 126.984 302.062 125.109 301.812C121.797 301.375 119.375 300.328 117.844 298.672C116.344 296.984 115.594 294.406 115.594 290.938V247.953ZM141.047 266C141.141 266.062 141.281 266.109 141.469 266.141C141.688 266.141 141.828 266.141 141.891 266.141C142.641 266.141 143.172 265.906 143.484 265.438C143.797 264.969 143.953 264.203 143.953 263.141V262.859C143.953 261.766 143.812 260.969 143.531 260.469C143.281 259.969 142.797 259.719 142.078 259.719C141.922 259.719 141.734 259.734 141.516 259.766C141.297 259.797 141.125 259.844 141 259.906C141.031 260.156 141.047 260.422 141.047 260.703C141.047 260.984 141.047 261.281 141.047 261.594V266ZM141.047 283.672C141.141 283.734 141.281 283.781 141.469 283.812C141.688 283.812 141.828 283.812 141.891 283.812C142.641 283.812 143.172 283.625 143.484 283.25C143.797 282.844 143.953 282.109 143.953 281.047V280.156C143.953 279.062 143.812 278.25 143.531 277.719C143.281 277.188 142.797 276.922 142.078 276.922C141.922 276.922 141.734 276.938 141.516 276.969C141.297 277 141.125 277.047 141 277.109C141.031 277.359 141.047 277.625 141.047 277.906C141.047 278.188 141.047 278.484 141.047 278.797V283.672ZM204.141 303.5C201.516 303.5 198.922 303.219 196.359 302.656C193.797 302.125 191.375 301.297 189.094 300.172C186.812 299.047 184.703 297.625 182.766 295.906C180.859 294.188 179.203 292.156 177.797 289.812C176.391 287.469 175.297 284.797 174.516 281.797C173.734 278.797 173.344 275.453 173.344 271.766C173.344 266.297 174.188 261.578 175.875 257.609C177.562 253.609 179.812 250.312 182.625 247.719C185.438 245.094 188.672 243.156 192.328 241.906C196.016 240.656 199.859 240.031 203.859 240.031C208.609 240.031 212.875 240.812 216.656 242.375C220.438 243.906 223.641 246.062 226.266 248.844C228.891 251.625 230.906 254.969 232.312 258.875C233.719 262.781 234.422 267.078 234.422 271.766C234.422 277.328 233.625 282.109 232.031 286.109C230.469 290.109 228.312 293.406 225.562 296C222.844 298.562 219.641 300.453 215.953 301.672C212.297 302.891 208.359 303.5 204.141 303.5ZM206.016 269.656C206.016 268.156 205.984 266.875 205.922 265.812C205.859 264.719 205.75 263.812 205.594 263.094C205.438 262.438 205.219 262 204.938 261.781C204.688 261.562 204.391 261.453 204.047 261.453C203.703 261.453 203.438 261.516 203.25 261.641C203.062 261.734 202.906 261.828 202.781 261.922C202.812 262.484 202.859 263.016 202.922 263.516C202.984 263.984 203.031 264.531 203.062 265.156C203.125 265.75 203.172 266.453 203.203 267.266C203.234 268.047 203.25 269.016 203.25 270.172V273.219C203.25 274.375 203.234 275.359 203.203 276.172C203.172 276.953 203.125 277.656 203.062 278.281C203.031 278.875 202.984 279.422 202.922 279.922C202.859 280.391 202.812 280.906 202.781 281.469C202.906 281.562 203.062 281.672 203.25 281.797C203.438 281.891 203.703 281.938 204.047 281.938C204.391 281.938 204.688 281.828 204.938 281.609C205.219 281.391 205.438 280.953 205.594 280.297C205.75 279.578 205.859 278.688 205.922 277.625C205.984 276.531 206.016 275.234 206.016 273.734V269.656ZM267.328 303.5C264.703 303.5 262.109 303.219 259.547 302.656C256.984 302.125 254.562 301.297 252.281 300.172C250 299.047 247.891 297.625 245.953 295.906C244.047 294.188 242.391 292.156 240.984 289.812C239.578 287.469 238.484 284.797 237.703 281.797C236.922 278.797 236.531 275.453 236.531 271.766C236.531 266.297 237.375 261.578 239.062 257.609C240.75 253.609 243 250.312 245.812 247.719C248.625 245.094 251.859 243.156 255.516 241.906C259.203 240.656 263.047 240.031 267.047 240.031C271.797 240.031 276.062 240.812 279.844 242.375C283.625 243.906 286.828 246.062 289.453 248.844C292.078 251.625 294.094 254.969 295.5 258.875C296.906 262.781 297.609 267.078 297.609 271.766C297.609 277.328 296.812 282.109 295.219 286.109C293.656 290.109 291.5 293.406 288.75 296C286.031 298.562 282.828 300.453 279.141 301.672C275.484 302.891 271.547 303.5 267.328 303.5ZM269.203 269.656C269.203 268.156 269.172 266.875 269.109 265.812C269.047 264.719 268.938 263.812 268.781 263.094C268.625 262.438 268.406 262 268.125 261.781C267.875 261.562 267.578 261.453 267.234 261.453C266.891 261.453 266.625 261.516 266.438 261.641C266.25 261.734 266.094 261.828 265.969 261.922C266 262.484 266.047 263.016 266.109 263.516C266.172 263.984 266.219 264.531 266.25 265.156C266.312 265.75 266.359 266.453 266.391 267.266C266.422 268.047 266.438 269.016 266.438 270.172V273.219C266.438 274.375 266.422 275.359 266.391 276.172C266.359 276.953 266.312 277.656 266.25 278.281C266.219 278.875 266.172 279.422 266.109 279.922C266.047 280.391 266 280.906 265.969 281.469C266.094 281.562 266.25 281.672 266.438 281.797C266.625 281.891 266.891 281.938 267.234 281.938C267.578 281.938 267.875 281.828 268.125 281.609C268.406 281.391 268.625 280.953 268.781 280.297C268.938 279.578 269.047 278.688 269.109 277.625C269.172 276.531 269.203 275.234 269.203 273.734V269.656ZM327.562 252.547C326.75 254.234 326.094 255.625 325.594 256.719C325.094 257.781 324.703 258.641 324.422 259.297C324.141 259.922 323.953 260.406 323.859 260.75C323.766 261.094 323.719 261.375 323.719 261.594C323.719 261.969 323.828 262.297 324.047 262.578C324.266 262.828 324.672 262.953 325.266 262.953L334.5 242.703C336.656 241.297 339.469 240.594 342.938 240.594C344.812 240.594 346.609 240.859 348.328 241.391C350.078 241.891 351.625 242.672 352.969 243.734C354.312 244.766 355.375 246.078 356.156 247.672C356.969 249.234 357.375 251.062 357.375 253.156C357.375 254.906 357.062 256.625 356.438 258.312C355.812 260 354.938 261.641 353.812 263.234C352.719 264.797 351.406 266.281 349.875 267.688C348.375 269.062 346.75 270.312 345 271.438C344.125 270.938 343.312 270.578 342.562 270.359C341.844 270.109 341.125 269.984 340.406 269.984C339.844 269.984 339.344 270.141 338.906 270.453C338.5 270.766 338.297 271.281 338.297 272C338.891 272.125 339.484 272.266 340.078 272.422C340.672 272.578 341.281 272.797 341.906 273.078C342.562 273.359 343.25 273.75 343.969 274.25C344.719 274.75 345.516 275.391 346.359 276.172L358.828 287.656C358.391 292.656 356.906 296.438 354.375 299C351.875 301.562 348.297 302.844 343.641 302.844C342.047 302.844 340.516 302.641 339.047 302.234C337.578 301.828 336.172 301.156 334.828 300.219C333.516 299.281 332.281 298.062 331.125 296.562C330 295.031 329 293.156 328.125 290.938L323.766 280.062H323.531C322.938 280.062 322.531 280.203 322.312 280.484C322.094 280.766 321.984 281.062 321.984 281.375C321.984 281.875 322.406 283.25 323.25 285.5C324.125 287.719 325.453 290.828 327.234 294.828V298.438C326.609 299 325.844 299.547 324.938 300.078C324.062 300.609 323.047 301.078 321.891 301.484C320.766 301.891 319.5 302.219 318.094 302.469C316.719 302.719 315.219 302.844 313.594 302.844C311.844 302.844 310.156 302.656 308.531 302.281C306.906 301.906 305.469 301.344 304.219 300.594C303 299.812 302.016 298.828 301.266 297.641C300.547 296.453 300.188 295.062 300.188 293.469V245.094C301.625 243.781 303.562 242.719 306 241.906C308.438 241.094 311.156 240.688 314.156 240.688C315.938 240.688 317.625 240.859 319.219 241.203C320.844 241.547 322.266 242.109 323.484 242.891C324.734 243.641 325.719 244.641 326.438 245.891C327.188 247.109 327.562 248.625 327.562 250.438V252.547Z" fill="white"/>
</svg>
