<svg width="80" height="80" viewBox="0 0 80 80" fill="none" xmlns="http://www.w3.org/2000/svg">
<rect width="80" height="80" rx="40" fill="white"/>
<path d="M63.9266 38.6628C60.4158 30.1998 51.1557 24.1559 40.2878 24.1559C29.42 24.1559 19.8865 30.382 16.4959 39.038C16.3064 39.5189 16.1387 40.0071 15.9892 40.5025C19.0334 49.6686 28.6908 56.3683 40.1347 56.3683C51.5786 56.3683 61.5714 49.4318 64.4297 40.018C64.2802 39.559 64.1125 39.1072 63.9266 38.6628Z" fill="#71BD5F"/>
<path d="M64.4297 40.0182C61.5714 49.432 51.7754 56.3685 40.1347 56.3685C28.494 56.3685 19.0334 49.6688 15.9892 40.5027C16.1387 40.0073 16.3064 39.5191 16.4959 39.0382C20.0031 47.5048 29.2632 53.5487 40.1347 53.5487C51.0062 53.5487 60.5361 47.3263 63.9266 38.663C64.1125 39.1074 64.2802 39.5592 64.4297 40.0182Z" fill="#8AC67A"/>
<path d="M63.7295 42.211C60.8713 51.6248 51.0753 58.5612 39.4346 58.5612C27.7938 58.5612 18.3332 51.8616 15.2891 42.6955C15.4385 42.2 15.6062 41.7118 15.7958 41.231C19.303 49.6976 28.5631 55.7415 39.4346 55.7415C50.3061 55.7415 59.8359 49.519 63.2264 40.8557C63.4124 41.3002 63.5801 41.7519 63.7295 42.211Z" fill="#8AC67A"/>
<path d="M63.7295 40.2254C60.8713 49.6392 51.0753 56.5756 39.4346 56.5756C27.7938 56.5756 18.3332 49.876 15.2891 40.7099C15.4385 40.2144 15.6062 39.7262 15.7958 39.2454C19.303 47.712 28.5631 53.7559 39.4346 53.7559C50.3061 53.7559 59.8359 47.5334 63.2264 38.8701C63.4124 39.3146 63.5801 39.7663 63.7295 40.2254Z" fill="#E7F2E6"/>
<path d="M57.3351 37.639C57.3351 28.1851 49.6682 20.5237 40.2076 20.5237C30.747 20.5237 23.0801 28.1851 23.0801 37.639V47.1803L27.5315 49.1476C30.6631 52.5904 35.1838 54.7544 40.2076 54.7544C45.2314 54.7544 50.1093 52.4119 53.2519 48.725L57.3351 46.8379V37.639Z" fill="#A9D49E"/>
<path d="M28.7053 46.9759C28.7053 46.9759 21.6727 44.2836 18.0161 39.7589C16.0766 37.3544 15.2235 39.0011 14.8516 41.0704C14.4287 43.4202 14.7167 45.8392 15.5917 48.0615C17.1812 52.1127 20.6665 58.8342 26.3064 58.9399C34.3853 59.0929 34.3343 53.4898 34.3343 53.4898C34.3343 53.4898 35.1217 49.7192 28.7053 46.9759Z" fill="#C6E1C1"/>
<path d="M51.7132 46.976C51.7132 46.976 58.7458 44.2838 62.4024 39.759C64.3419 37.3546 65.195 39.0012 65.5669 41.0705C65.9898 43.4203 65.7018 45.8394 64.8268 48.0617C63.2373 52.1128 59.752 58.8343 54.1121 58.94C46.0332 59.093 46.0842 53.4899 46.0842 53.4899C46.0842 53.4899 45.2968 49.7193 51.7132 46.976Z" fill="#C6E1C1"/>
<path d="M37.7248 35.5658C38.3208 35.5658 38.8039 35.083 38.8039 34.4874C38.8039 33.8919 38.3208 33.4091 37.7248 33.4091C37.1288 33.4091 36.6457 33.8919 36.6457 34.4874C36.6457 35.083 37.1288 35.5658 37.7248 35.5658Z" fill="#0E9561"/>
<path d="M42.6904 35.5771C43.2864 35.5771 43.7695 35.0943 43.7695 34.4988C43.7695 33.9032 43.2864 33.4204 42.6904 33.4204C42.0944 33.4204 41.6113 33.9032 41.6113 34.4988C41.6113 35.0943 42.0944 35.5771 42.6904 35.5771Z" fill="#0E9561"/>
<path d="M50.1677 38.528H48.21C47.912 38.528 47.6704 38.7694 47.6704 39.0671C47.6704 39.3649 47.912 39.6063 48.21 39.6063H50.1677C50.4657 39.6063 50.7073 39.3649 50.7073 39.0671C50.7073 38.7694 50.4657 38.528 50.1677 38.528Z" fill="#CAE4C1"/>
<path d="M32.2053 38.5278H30.2476C29.9496 38.5278 29.708 38.7692 29.708 39.067C29.708 39.3648 29.9496 39.6062 30.2476 39.6062H32.2053C32.5033 39.6062 32.7449 39.3648 32.7449 39.067C32.7449 38.7692 32.5033 38.5278 32.2053 38.5278Z" fill="#CAE4C1"/>
<path d="M47.0469 41.5366C47.0469 41.6569 46.9448 41.7552 46.8245 41.7552C46.7079 41.7552 46.6058 41.6532 46.6094 41.5366V41.2124C46.1136 41.1978 42.7158 41.176 40.4336 43.2671C40.3571 43.3291 40.2878 43.3983 40.2222 43.4675C40.1456 43.3837 40.0654 43.3072 39.9815 43.2343C37.6957 41.1505 34.3125 41.1687 33.8094 41.1796V41.5039C33.8094 41.6241 33.7109 41.7224 33.5906 41.7224C33.474 41.7224 33.3719 41.6241 33.3719 41.5039V40.196C33.3719 40.0758 33.474 39.9737 33.5906 39.9774C33.6016 39.9774 33.6125 39.9774 33.6234 39.9774C33.7292 39.992 33.8057 40.083 33.8094 40.196V40.6186C37.4113 40.6186 39.3071 41.9082 40.0618 42.5968C40.1565 42.6806 40.2951 42.6842 40.3899 42.5968C41.1664 41.901 43.0549 40.6477 46.6131 40.6477V40.2215C46.6131 40.2215 46.6131 40.1996 46.6131 40.1887C46.6277 40.0867 46.7188 40.0065 46.8318 40.0029C46.9485 40.0029 47.0506 40.1049 47.0469 40.2251V41.5366Z" fill="#0E9561"/>
<path d="M36.9883 32.7463C37.0721 32.4403 37.3528 32.1816 37.6737 32.1561C37.9945 32.1306 38.3408 32.3273 38.4648 32.637C38.5012 32.7281 38.5851 32.7937 38.6908 32.7645C38.7783 32.739 38.8549 32.6334 38.8184 32.5386C38.6361 32.0869 38.1731 31.7554 37.6737 31.7918C37.1742 31.8282 36.7622 32.178 36.6346 32.6479C36.5727 32.8738 36.9263 32.9722 36.9846 32.7463H36.9883Z" fill="#168F5E"/>
<path d="M41.9502 32.5782C42.0341 32.2722 42.3148 32.0135 42.6356 31.988C42.9565 31.9625 43.3028 32.1592 43.4268 32.4689C43.4632 32.56 43.5471 32.6256 43.6528 32.5964C43.7403 32.5709 43.8168 32.4653 43.7804 32.3705C43.5981 31.9188 43.1351 31.5873 42.6356 31.6237C42.1362 31.6601 41.7242 32.0099 41.5966 32.4798C41.5346 32.7057 41.8883 32.8041 41.9466 32.5782H41.9502Z" fill="#168F5E"/>
<path d="M39.2742 38.3051C39.387 38.3051 39.4784 38.2138 39.4784 38.1011C39.4784 37.9884 39.387 37.8971 39.2742 37.8971C39.1615 37.8971 39.0701 37.9884 39.0701 38.1011C39.0701 38.2138 39.1615 38.3051 39.2742 38.3051Z" fill="#057749"/>
<path d="M41.1882 38.305C41.3009 38.305 41.3923 38.2137 41.3923 38.101C41.3923 37.9883 41.3009 37.897 41.1882 37.897C41.0754 37.897 40.984 37.9883 40.984 38.101C40.984 38.2137 41.0754 38.305 41.1882 38.305Z" fill="#057749"/>
<path d="M38.2315 40.2288L38.0237 40.1049C37.8597 40.0066 37.6774 39.7479 37.7758 39.584L38.8695 38.0174C38.968 37.8535 39.1794 37.8025 39.3435 37.8972C39.5075 37.9956 39.5586 38.2069 39.4638 38.3708L38.7565 40.1341C38.6581 40.298 38.3956 40.3199 38.2352 40.2252L38.2315 40.2288Z" fill="#057749"/>
</svg>
