<svg width="342" height="43" viewBox="0 0 342 43" fill="none" xmlns="http://www.w3.org/2000/svg">
<path d="M20.9375 42.8438C17.7708 42.8438 14.9062 42.375 12.3438 41.4375C9.78125 40.4792 7.58333 39.0938 5.75 37.2812C3.9375 35.4479 2.53125 33.2083 1.53125 30.5625C0.552083 27.8958 0.0625 24.8646 0.0625 21.4688C0.0625 17.9688 0.625 14.9271 1.75 12.3438C2.89583 9.73958 4.40625 7.57292 6.28125 5.84375C8.17708 4.11458 10.3438 2.82292 12.7812 1.96875C15.2396 1.11458 17.7812 0.6875 20.4062 0.6875C23.0521 0.6875 25.4792 1.03125 27.6875 1.71875C29.8958 2.40625 31.7812 3.34375 33.3438 4.53125C34.9271 5.71875 36.1562 7.11458 37.0312 8.71875C37.9062 10.3229 38.3438 12.0521 38.3438 13.9062C38.3438 15.3854 38.1042 16.6458 37.625 17.6875C37.1458 18.7292 36.4792 19.5833 35.625 20.25C34.7917 20.8958 33.7812 21.375 32.5938 21.6875C31.4062 22 30.1146 22.1562 28.7188 22.1562C27.8438 22.1562 26.9688 22.0417 26.0938 21.8125C25.2396 21.5625 24.4479 21.2604 23.7188 20.9062C22.9896 20.5521 22.3646 20.1771 21.8438 19.7812C21.3438 19.3646 21.0208 19 20.875 18.6875C20.875 18.1458 20.875 17.5208 20.875 16.8125C20.8958 16.1042 20.9271 15.3854 20.9688 14.6562C20.9062 14.6354 20.8229 14.625 20.7188 14.625C20.6354 14.625 20.5729 14.625 20.5312 14.625C20.2188 14.625 19.9688 14.7188 19.7812 14.9062C19.6146 15.0729 19.4792 15.3854 19.375 15.8438C19.2708 16.2812 19.1979 16.8854 19.1562 17.6562C19.1354 18.4271 19.125 19.4062 19.125 20.5938C19.125 22.1979 19.1562 23.5729 19.2188 24.7188C19.3021 25.8438 19.4062 26.7708 19.5312 27.5C19.6562 28.2083 19.8125 28.7292 20 29.0625C20.1875 29.3958 20.3958 29.5625 20.625 29.5625C20.8333 29.5625 21.0208 29.5104 21.1875 29.4062V26.5625C21.9167 26.0625 22.8125 25.6146 23.875 25.2188C24.9375 24.8229 26.0625 24.4896 27.25 24.2188C28.4583 23.9271 29.6979 23.7083 30.9688 23.5625C32.2396 23.3958 33.4479 23.3125 34.5938 23.3125C35.1562 23.8958 35.6667 24.6354 36.125 25.5312C36.6042 26.4271 37.0104 27.3958 37.3438 28.4375C37.6979 29.4583 37.9792 30.5 38.1875 31.5625C38.3958 32.6042 38.5104 33.5625 38.5312 34.4375C38.1354 35.2083 37.4583 36.0833 36.5 37.0625C35.5417 38.0208 34.3229 38.9375 32.8438 39.8125C31.3646 40.6667 29.625 41.3854 27.625 41.9688C25.625 42.5521 23.3958 42.8438 20.9375 42.8438ZM78.4688 39.9375C77.0521 41 75.5625 41.6979 74 42.0312C72.4375 42.3854 70.9375 42.5625 69.5 42.5625C68.125 42.5625 66.8646 42.4167 65.7188 42.125C64.5938 41.8333 63.6146 41.4062 62.7812 40.8438C61.9688 40.2812 61.3333 39.5833 60.875 38.75C60.4375 37.8958 60.2188 36.9062 60.2188 35.7812V29.5938H62.4375C62.9167 29.5938 63.2812 29.5625 63.5312 29.5C63.8021 29.4167 64 29.3125 64.125 29.1875C64.25 29.0625 64.3229 28.9167 64.3438 28.75C64.3646 28.5625 64.375 28.375 64.375 28.1875H54.5625C54.5625 28.375 54.5729 28.5625 54.5938 28.75C54.6146 28.9167 54.6771 29.0625 54.7812 29.1875C54.8854 29.3125 55.0417 29.4167 55.25 29.5C55.4792 29.5625 55.7917 29.5938 56.1875 29.5938H58.5625V39.9375C57.6875 40.5 56.8438 40.9583 56.0312 41.3125C55.2396 41.6458 54.4688 41.9062 53.7188 42.0938C52.9688 42.2812 52.25 42.4062 51.5625 42.4688C50.875 42.5312 50.2188 42.5625 49.5938 42.5625C48.2188 42.5625 46.9583 42.4167 45.8125 42.125C44.6875 41.8333 43.7083 41.4062 42.875 40.8438C42.0625 40.2812 41.4271 39.5833 40.9688 38.75C40.5312 37.8958 40.3125 36.9062 40.3125 35.7812V4.6875C41.4167 3.52083 42.7708 2.63542 44.375 2.03125C45.9792 1.42708 47.625 1.125 49.3125 1.125C50.4792 1.125 51.6146 1.28125 52.7188 1.59375C53.8438 1.90625 54.8333 2.38542 55.6875 3.03125C56.5625 3.65625 57.2604 4.45833 57.7812 5.4375C58.3021 6.41667 58.5625 7.5625 58.5625 8.875V14.4375H62.5312C62.5312 13.8542 62.4271 13.4792 62.2188 13.3125C62.0104 13.125 61.6979 13.0312 61.2812 13.0312H60.2188V4.6875C61.3229 3.52083 62.6771 2.63542 64.2812 2.03125C65.8854 1.42708 67.5312 1.125 69.2188 1.125C70.3854 1.125 71.5208 1.28125 72.625 1.59375C73.75 1.90625 74.7396 2.38542 75.5938 3.03125C76.4688 3.65625 77.1667 4.45833 77.6875 5.4375C78.2083 6.41667 78.4688 7.5625 78.4688 8.875V39.9375ZM86.75 4.5C87.5625 3.97917 88.4792 3.51042 89.5 3.09375C90.5208 2.65625 91.5938 2.29167 92.7188 2C93.8646 1.70833 95.0417 1.48958 96.25 1.34375C97.4792 1.17708 98.7083 1.09375 99.9375 1.09375C101.562 1.09375 103.167 1.23958 104.75 1.53125C106.354 1.82292 107.812 2.28125 109.125 2.90625C110.438 3.53125 111.562 4.34375 112.5 5.34375C113.438 6.32292 114.073 7.5 114.406 8.875L121.531 38.3438C120.573 39.5729 119.229 40.5833 117.5 41.375C115.771 42.1667 113.583 42.5625 110.938 42.5625C109.771 42.5625 108.677 42.4583 107.656 42.25C106.635 42.0417 105.729 41.7396 104.938 41.3438C104.167 40.9271 103.521 40.4167 103 39.8125C102.5 39.1875 102.177 38.4583 102.031 37.625L101.344 33.8125C101.99 33.7917 102.625 33.7188 103.25 33.5938C103.896 33.4479 104.469 33.2812 104.969 33.0938C105.49 32.8854 105.906 32.6562 106.219 32.4062C106.552 32.1562 106.719 31.9062 106.719 31.6562C106.719 31.3229 106.583 31.0521 106.312 30.8438C105.938 31.1146 105.5 31.3646 105 31.5938C104.5 31.8021 103.969 31.9792 103.406 32.125C102.865 32.2708 102.312 32.3854 101.75 32.4688C101.208 32.5312 100.698 32.5625 100.219 32.5625C99.3229 32.5625 98.5208 32.5104 97.8125 32.4062C97.125 32.2812 96.5208 32.1354 96 31.9688C95.4792 31.8021 95.0312 31.625 94.6562 31.4375C94.2812 31.2292 93.9688 31.0312 93.7188 30.8438C93.6354 30.9479 93.5625 31.0729 93.5 31.2188C93.4375 31.3438 93.4062 31.4896 93.4062 31.6562C93.4062 31.9688 93.5625 32.2604 93.875 32.5312C94.2083 32.7812 94.6458 33.0104 95.1875 33.2188C95.7292 33.4062 96.3438 33.5625 97.0312 33.6875C97.7396 33.8125 98.4792 33.8958 99.25 33.9375C99.375 35.3958 99.5104 36.5625 99.6562 37.4375C99.8229 38.2917 99.9792 38.8333 100.125 39.0625C99.9375 39.4167 99.5625 39.8021 99 40.2188C98.4583 40.6146 97.7708 40.9896 96.9375 41.3438C96.125 41.6979 95.1875 41.9896 94.125 42.2188C93.0833 42.4479 91.9688 42.5625 90.7812 42.5625C89.3021 42.5625 87.9062 42.3958 86.5938 42.0625C85.2812 41.7292 84.1354 41.2708 83.1562 40.6875C82.1771 40.0833 81.3958 39.3646 80.8125 38.5312C80.2292 37.6771 79.9375 36.7292 79.9375 35.6875C79.9375 35.4583 79.9479 35.2292 79.9688 35C79.9896 34.75 80.0312 34.5 80.0938 34.25L86.75 4.5ZM101.438 20.5938C101.208 19.3438 101.021 18.3438 100.875 17.5938C100.75 16.8438 100.615 16.2812 100.469 15.9062C100.344 15.5104 100.198 15.2604 100.031 15.1562C99.8854 15.0312 99.6979 14.9688 99.4688 14.9688C99.3229 14.9688 99.1875 14.9896 99.0625 15.0312C98.9375 15.0729 98.8229 15.1146 98.7188 15.1562L99.9062 21.4688C99.9896 21.5521 100.104 21.6146 100.25 21.6562C100.417 21.6979 100.562 21.7188 100.688 21.7188C100.875 21.7188 101.052 21.6979 101.219 21.6562C101.385 21.5938 101.51 21.5417 101.594 21.5L101.438 20.5938ZM129.75 42.0312C127.5 42.0312 125.729 41.4375 124.438 40.25C123.146 39.0417 122.5 37.1667 122.5 34.625V4.0625C123.604 3.125 124.958 2.40625 126.562 1.90625C128.167 1.38542 129.812 1.125 131.5 1.125C132.667 1.125 133.802 1.28125 134.906 1.59375C136.031 1.90625 137.021 2.38542 137.875 3.03125C138.75 3.65625 139.448 4.45833 139.969 5.4375C140.49 6.41667 140.75 7.5625 140.75 8.875V25.9688C140.229 26.0104 139.667 26.1146 139.062 26.2812C138.479 26.4479 137.927 26.6562 137.406 26.9062C136.906 27.1562 136.479 27.4375 136.125 27.75C135.792 28.0417 135.625 28.3438 135.625 28.6562C135.625 28.8854 135.677 29.0729 135.781 29.2188C135.906 29.3438 136.052 29.4583 136.219 29.5625C137.385 28.5833 138.719 27.9062 140.219 27.5312C141.719 27.1562 143.448 26.9688 145.406 26.9688H152.812C153.125 27.5104 153.406 28.0833 153.656 28.6875C153.906 29.2708 154.115 29.875 154.281 30.5C154.469 31.1042 154.615 31.7083 154.719 32.3125C154.823 32.9167 154.875 33.4792 154.875 34C154.875 34.75 154.812 35.5208 154.688 36.3125C154.583 37.0833 154.427 37.8229 154.219 38.5312C154.01 39.2396 153.76 39.8958 153.469 40.5C153.177 41.1042 152.844 41.6146 152.469 42.0312H129.75ZM163.438 42.0312C161.188 42.0312 159.417 41.4375 158.125 40.25C156.833 39.0417 156.188 37.1667 156.188 34.625V4.0625C157.292 3.125 158.646 2.40625 160.25 1.90625C161.854 1.38542 163.5 1.125 165.188 1.125C166.354 1.125 167.49 1.28125 168.594 1.59375C169.719 1.90625 170.708 2.38542 171.562 3.03125C172.438 3.65625 173.135 4.45833 173.656 5.4375C174.177 6.41667 174.438 7.5625 174.438 8.875V25.9688C173.917 26.0104 173.354 26.1146 172.75 26.2812C172.167 26.4479 171.615 26.6562 171.094 26.9062C170.594 27.1562 170.167 27.4375 169.812 27.75C169.479 28.0417 169.312 28.3438 169.312 28.6562C169.312 28.8854 169.365 29.0729 169.469 29.2188C169.594 29.3438 169.74 29.4583 169.906 29.5625C171.073 28.5833 172.406 27.9062 173.906 27.5312C175.406 27.1562 177.135 26.9688 179.094 26.9688H186.5C186.812 27.5104 187.094 28.0833 187.344 28.6875C187.594 29.2708 187.802 29.875 187.969 30.5C188.156 31.1042 188.302 31.7083 188.406 32.3125C188.51 32.9167 188.562 33.4792 188.562 34C188.562 34.75 188.5 35.5208 188.375 36.3125C188.271 37.0833 188.115 37.8229 187.906 38.5312C187.698 39.2396 187.448 39.8958 187.156 40.5C186.865 41.1042 186.531 41.6146 186.156 42.0312H163.438ZM221.969 1.6875C222.24 2.125 222.49 2.61458 222.719 3.15625C222.948 3.67708 223.135 4.22917 223.281 4.8125C223.427 5.375 223.542 5.94792 223.625 6.53125C223.708 7.09375 223.75 7.625 223.75 8.125C223.75 10.2708 223.333 11.8646 222.5 12.9062C221.667 13.9479 220.521 14.4688 219.062 14.4688H206.469C205.698 14.4688 205.312 14.7708 205.312 15.375C205.312 15.4167 205.312 15.5 205.312 15.625C205.312 15.75 205.333 15.8333 205.375 15.875H220.312C220.5 16.1875 220.677 16.5625 220.844 17C221.01 17.4167 221.146 17.8646 221.25 18.3438C221.375 18.8021 221.469 19.2812 221.531 19.7812C221.615 20.2604 221.656 20.7188 221.656 21.1562C221.656 22.4062 221.531 23.5312 221.281 24.5312C221.031 25.5104 220.698 26.3229 220.281 26.9688H213.5C211.729 26.9688 210.26 27.0208 209.094 27.125C207.948 27.2083 207.042 27.3229 206.375 27.4688C205.708 27.6146 205.24 27.7812 204.969 27.9688C204.698 28.1354 204.562 28.3125 204.562 28.5C204.562 28.6667 204.583 28.8229 204.625 28.9688C204.688 29.1146 204.812 29.2396 205 29.3438C205.521 29.1771 206.052 29.0312 206.594 28.9062C207.135 28.7812 207.74 28.6875 208.406 28.625C209.073 28.5417 209.812 28.4792 210.625 28.4375C211.458 28.3958 212.417 28.375 213.5 28.375H222.281C222.51 28.7083 222.74 29.0833 222.969 29.5C223.198 29.8958 223.396 30.3646 223.562 30.9062C223.75 31.4271 223.896 32.0312 224 32.7188C224.125 33.4062 224.188 34.1979 224.188 35.0938C224.188 35.6562 224.146 36.2604 224.062 36.9062C223.979 37.5312 223.854 38.1562 223.688 38.7812C223.521 39.4062 223.302 40 223.031 40.5625C222.76 41.125 222.438 41.6146 222.062 42.0312H198.656C197.427 42.0312 196.281 41.8854 195.219 41.5938C194.156 41.2812 193.229 40.8125 192.438 40.1875C191.646 39.5417 191.021 38.7396 190.562 37.7812C190.104 36.8021 189.875 35.6354 189.875 34.2812V4.5625C189.875 3.5625 191.031 2.83333 193.344 2.375C195.656 1.91667 199.188 1.6875 203.938 1.6875H221.969ZM244.844 3.84375C245.385 3.38542 245.99 2.98958 246.656 2.65625C247.344 2.30208 248.062 2.01042 248.812 1.78125C249.562 1.55208 250.333 1.38542 251.125 1.28125C251.917 1.15625 252.688 1.09375 253.438 1.09375C254.604 1.09375 255.74 1.20833 256.844 1.4375C257.969 1.64583 258.958 2.01042 259.812 2.53125C260.688 3.05208 261.385 3.75 261.906 4.625C262.427 5.5 262.688 6.59375 262.688 7.90625V37.5C262.688 38.4375 262.448 39.2292 261.969 39.875C261.51 40.5208 260.885 41.0417 260.094 41.4375C259.323 41.8125 258.427 42.0833 257.406 42.25C256.406 42.4167 255.365 42.5 254.281 42.5C253.615 42.5 252.938 42.4583 252.25 42.375C251.583 42.3125 250.948 42.2083 250.344 42.0625C249.74 41.9167 249.177 41.75 248.656 41.5625C248.135 41.375 247.688 41.1667 247.312 40.9375C246.417 39.7917 245.604 38.6875 244.875 37.625C244.167 36.5625 243.51 35.5417 242.906 34.5625C242.302 33.5833 241.74 32.6562 241.219 31.7812C240.698 30.8854 240.198 30.0417 239.719 29.25C239.365 29.2917 239.125 29.4062 239 29.5938C238.875 29.7604 238.812 29.9688 238.812 30.2188C238.812 30.5312 238.896 30.8438 239.062 31.1562C239.229 31.4479 239.448 31.8125 239.719 32.25L243.625 38.5625V40.2188C243.312 40.4271 242.917 40.6667 242.438 40.9375C241.958 41.2083 241.365 41.4688 240.656 41.7188C239.969 41.9479 239.167 42.1458 238.25 42.3125C237.333 42.4792 236.281 42.5625 235.094 42.5625C233.74 42.5625 232.49 42.4271 231.344 42.1562C230.198 41.8854 229.208 41.4896 228.375 40.9688C227.542 40.4271 226.896 39.7604 226.438 38.9688C225.979 38.1771 225.75 37.2604 225.75 36.2188V4.90625C225.75 4.38542 225.979 3.89583 226.438 3.4375C226.896 2.95833 227.521 2.55208 228.312 2.21875C229.104 1.88542 230.031 1.625 231.094 1.4375C232.156 1.22917 233.292 1.125 234.5 1.125C235.875 1.125 237.146 1.29167 238.312 1.625C239.479 1.95833 240.365 2.36458 240.969 2.84375C241.427 3.42708 241.927 4.125 242.469 4.9375C243.01 5.72917 243.583 6.61458 244.188 7.59375C244.792 8.55208 245.417 9.58333 246.062 10.6875C246.729 11.7708 247.406 12.8854 248.094 14.0312C248.302 14.0312 248.5 13.9688 248.688 13.8438C248.896 13.6979 249 13.4688 249 13.1562C249 12.9271 248.917 12.6562 248.75 12.3438C248.583 12.0104 248.406 11.6875 248.219 11.375L244.844 5.5625V3.84375ZM288 28.25C287.333 28.25 286.708 28.125 286.125 27.875C285.562 27.6042 285.062 27.2083 284.625 26.6875C284.188 26.1667 283.844 25.5208 283.594 24.75C283.344 23.9583 283.219 23.0521 283.219 22.0312C283.219 21.2396 283.292 20.5208 283.438 19.875C283.583 19.2083 283.76 18.625 283.969 18.125C284.177 17.6042 284.406 17.1667 284.656 16.8125C284.906 16.4583 285.125 16.1771 285.312 15.9688H303.844C304.49 16.9062 304.948 17.9375 305.219 19.0625C305.49 20.1667 305.625 21.2604 305.625 22.3438C305.625 23.5938 305.469 24.7396 305.156 25.7812C304.865 26.8021 304.51 27.6354 304.094 28.2812H302.812V37.6562C302 38.3646 301.073 39.0417 300.031 39.6875C298.99 40.3333 297.802 40.9062 296.469 41.4062C295.156 41.8854 293.677 42.2708 292.031 42.5625C290.385 42.8542 288.562 43 286.562 43C284.625 43 282.729 42.8229 280.875 42.4688C279.021 42.1146 277.271 41.5729 275.625 40.8438C273.979 40.0938 272.469 39.1562 271.094 38.0312C269.719 36.8854 268.531 35.5312 267.531 33.9688C266.531 32.4062 265.75 30.625 265.188 28.625C264.646 26.6042 264.375 24.3438 264.375 21.8438C264.375 18.3438 264.906 15.2812 265.969 12.6562C267.052 10.0104 268.552 7.80208 270.469 6.03125C272.406 4.26042 274.708 2.92708 277.375 2.03125C280.062 1.13542 283.021 0.6875 286.25 0.6875C287.938 0.6875 289.583 0.833333 291.188 1.125C292.792 1.39583 294.292 1.77083 295.688 2.25C297.083 2.70833 298.354 3.25 299.5 3.875C300.646 4.47917 301.615 5.125 302.406 5.8125C302.406 6.5 302.365 7.25 302.281 8.0625C302.198 8.875 302.083 9.6875 301.938 10.5C301.812 11.2917 301.646 12.0521 301.438 12.7812C301.25 13.4896 301.042 14.0833 300.812 14.5625H284.344C284.094 14.8333 283.802 15.1979 283.469 15.6562C283.156 16.1146 282.854 16.6667 282.562 17.3125C282.292 17.9375 282.052 18.6667 281.844 19.5C281.656 20.3125 281.562 21.2188 281.562 22.2188C281.562 23.4896 281.719 24.5938 282.031 25.5312C282.365 26.4479 282.792 27.2188 283.312 27.8438C283.854 28.4479 284.469 28.9062 285.156 29.2188C285.865 29.5104 286.594 29.6562 287.344 29.6562C287.719 29.6562 287.979 29.5938 288.125 29.4688C288.271 29.3229 288.344 29.1562 288.344 28.9688V28.25H288ZM338.969 1.6875C339.24 2.125 339.49 2.61458 339.719 3.15625C339.948 3.67708 340.135 4.22917 340.281 4.8125C340.427 5.375 340.542 5.94792 340.625 6.53125C340.708 7.09375 340.75 7.625 340.75 8.125C340.75 10.2708 340.333 11.8646 339.5 12.9062C338.667 13.9479 337.521 14.4688 336.062 14.4688H323.469C322.698 14.4688 322.312 14.7708 322.312 15.375C322.312 15.4167 322.312 15.5 322.312 15.625C322.312 15.75 322.333 15.8333 322.375 15.875H337.312C337.5 16.1875 337.677 16.5625 337.844 17C338.01 17.4167 338.146 17.8646 338.25 18.3438C338.375 18.8021 338.469 19.2812 338.531 19.7812C338.615 20.2604 338.656 20.7188 338.656 21.1562C338.656 22.4062 338.531 23.5312 338.281 24.5312C338.031 25.5104 337.698 26.3229 337.281 26.9688H330.5C328.729 26.9688 327.26 27.0208 326.094 27.125C324.948 27.2083 324.042 27.3229 323.375 27.4688C322.708 27.6146 322.24 27.7812 321.969 27.9688C321.698 28.1354 321.562 28.3125 321.562 28.5C321.562 28.6667 321.583 28.8229 321.625 28.9688C321.688 29.1146 321.812 29.2396 322 29.3438C322.521 29.1771 323.052 29.0312 323.594 28.9062C324.135 28.7812 324.74 28.6875 325.406 28.625C326.073 28.5417 326.812 28.4792 327.625 28.4375C328.458 28.3958 329.417 28.375 330.5 28.375H339.281C339.51 28.7083 339.74 29.0833 339.969 29.5C340.198 29.8958 340.396 30.3646 340.562 30.9062C340.75 31.4271 340.896 32.0312 341 32.7188C341.125 33.4062 341.188 34.1979 341.188 35.0938C341.188 35.6562 341.146 36.2604 341.062 36.9062C340.979 37.5312 340.854 38.1562 340.688 38.7812C340.521 39.4062 340.302 40 340.031 40.5625C339.76 41.125 339.438 41.6146 339.062 42.0312H315.656C314.427 42.0312 313.281 41.8854 312.219 41.5938C311.156 41.2812 310.229 40.8125 309.438 40.1875C308.646 39.5417 308.021 38.7396 307.562 37.7812C307.104 36.8021 306.875 35.6354 306.875 34.2812V4.5625C306.875 3.5625 308.031 2.83333 310.344 2.375C312.656 1.91667 316.188 1.6875 320.938 1.6875H338.969Z" fill="#5356FF"/>
</svg>
