<svg width="322" height="71" viewBox="0 0 322 71" fill="none" xmlns="http://www.w3.org/2000/svg">
<path d="M28.9199 3.0957C41.875 3.03027 51.7549 9.7041 51.7549 19.7148C51.7549 28.8423 44.1978 34.9272 33.5654 36.2686V45.8213H56.4658V53.4766H1.57031V45.8213H24.2744V36.2686C13.7075 34.9272 6.21582 28.8423 6.21582 19.7148C6.21582 9.7041 15.9648 3.03027 28.9199 3.0957ZM28.9199 10.5547C21.0029 10.5547 15.5068 13.957 15.5723 19.7148C15.5068 25.8652 21.0029 29.1367 28.9199 29.1367C36.9678 29.1367 42.3984 25.8652 42.3984 19.7148C42.3984 13.957 36.9678 10.5547 28.9199 10.5547ZM107.305 0.216797V12.8447H115.091V20.5654H107.305V32.4082H97.8828V0.216797H107.305ZM88.4609 3.75V11.209H71.0566V23.6406C81.5254 23.5752 87.2178 23.2808 93.499 21.874L94.4805 29.333C87.2178 30.9033 80.3477 31.2305 66.8037 31.2305H61.6348V3.75H88.4609ZM76.8145 35.1562V40.1289H97.8828V35.1562H107.305V59.627H67.458V35.1562H76.8145ZM76.8145 52.168H97.8828V47.5225H76.8145V52.168Z" fill="#FF2A2A"/>
<path d="M182.811 0.216797V32.5391H173.389V0.216797H182.811ZM151.535 35.0254V40.0635H173.389V35.0254H182.811V59.627H142.31V35.0254H151.535ZM151.535 52.0371H173.389V47.3262H151.535V52.0371ZM149.769 2.57227C159.19 2.57227 166.388 8.52637 166.388 16.9668C166.388 25.2109 159.19 31.0996 149.769 31.165C140.347 31.0996 133.084 25.2109 133.149 16.9668C133.084 8.52637 140.347 2.57227 149.769 2.57227ZM149.769 10.4238C145.385 10.4238 142.31 12.7793 142.31 16.9668C142.31 21.1543 145.385 23.3789 149.769 23.4443C154.021 23.3789 157.031 21.1543 157.031 16.9668C157.031 12.7793 154.021 10.4238 149.769 10.4238ZM241.043 0.216797V60.2812H231.687V0.216797H241.043ZM202.636 5.90918V37.6426C210.422 37.479 218.862 36.7266 227.237 35.0908L228.415 42.877C217.946 45.0361 207.87 45.6904 198.71 45.625H193.279V5.90918H202.636ZM295.808 0.216797V22.0703H304.313V29.7256H295.808V60.4121H286.386V0.216797H295.808ZM278.665 5.71289V13.3027H259.887V38.2314C267.967 38.166 274.936 37.6753 282.525 36.3994L283.507 44.251C274.281 45.8213 265.972 46.0176 255.634 46.0176H250.465V5.71289H278.665ZM320.998 6.62891L320.017 39.54H310.66L309.679 6.62891H320.998ZM315.306 54.6543C312.034 54.6543 309.352 52.0371 309.417 48.7002C309.352 45.4941 312.034 42.877 315.306 42.877C318.446 42.877 321.194 45.4941 321.26 48.7002C321.194 52.0371 318.446 54.6543 315.306 54.6543Z" fill="black"/>
<path d="M0 63.8799H115.811V70.5864H0V63.8799Z" fill="#FF2A2A"/>
</svg>
