<svg width="44" height="44" viewBox="0 0 44 44" fill="none" xmlns="http://www.w3.org/2000/svg">
<circle cx="22" cy="22" r="22" fill="#E2E2FF"/>
<path d="M35.9241 21.859C33.8631 16.7926 28.427 13.1744 22.0471 13.1744C15.6671 13.1744 10.0705 16.9017 8.08012 22.0836C7.96883 22.3715 7.87039 22.6637 7.78264 22.9604C9.56971 28.4476 15.2391 32.4584 21.9572 32.4584C28.6753 32.4584 34.5416 28.3059 36.2195 22.6703C36.1318 22.3955 36.0333 22.125 35.9241 21.859Z" fill="#5D98B4"/>
<path d="M36.2195 22.6703C34.5416 28.3059 28.7909 32.4584 21.9572 32.4584C15.1235 32.4584 9.56971 28.4476 7.78264 22.9604C7.87039 22.6637 7.96883 22.3715 8.08012 22.0836C10.139 27.1521 15.5751 30.7703 21.9572 30.7703C28.3393 30.7703 33.9338 27.0453 35.9241 21.859C36.0333 22.125 36.1318 22.3955 36.2195 22.6703Z" fill="#77A9BF"/>
<path d="M35.8086 23.9832C34.1307 29.6188 28.3799 33.7713 21.5463 33.7713C14.7126 33.7713 9.15879 29.7606 7.37172 24.2733C7.45947 23.9767 7.55792 23.6844 7.66921 23.3965C9.72808 28.4651 15.1642 32.0833 21.5463 32.0833C27.9284 32.0833 33.5228 28.3582 35.5132 23.1719C35.6224 23.438 35.7208 23.7084 35.8086 23.9832Z" fill="#77A9BF"/>
<path d="M35.8086 22.7946C34.1307 28.4302 28.3799 32.5827 21.5463 32.5827C14.7126 32.5827 9.15879 28.5719 7.37172 23.0847C7.45947 22.7881 7.55792 22.4958 7.66921 22.2079C9.72808 27.2765 15.1642 30.8947 21.5463 30.8947C27.9284 30.8947 33.5228 27.1696 35.5132 21.9833C35.6224 22.2494 35.7208 22.5198 35.8086 22.7946Z" fill="#E5EBF1"/>
<path d="M32.0547 21.2461C32.0547 15.5865 27.5538 11 22 11C16.4462 11 11.9453 15.5865 11.9453 21.2461V26.958L14.5585 28.1358C16.397 30.1968 19.0508 31.4922 22 31.4922C24.9492 31.4922 27.8128 30.0899 29.6576 27.8828L32.0547 26.753V21.2461Z" fill="#9BBFCE"/>
<path d="M15.2455 26.8359C15.2455 26.8359 11.1171 25.2242 8.97045 22.5154C7.83186 21.076 7.33106 22.0618 7.11276 23.3006C6.86449 24.7073 7.03357 26.1554 7.54722 27.4858C8.48035 29.911 10.5264 33.9349 13.8373 33.9982C18.58 34.0898 18.55 30.7354 18.55 30.7354C18.55 30.7354 19.0123 28.4782 15.2455 26.8359Z" fill="#BFD2DE"/>
<path d="M28.7545 26.8359C28.7545 26.8359 32.8829 25.2242 35.0295 22.5154C36.1681 21.076 36.6689 22.0618 36.8872 23.3006C37.1355 24.7073 36.9664 26.1554 36.4528 27.4858C35.5197 29.911 33.4736 33.9349 30.1627 33.9982C25.42 34.0898 25.45 30.7354 25.45 30.7354C25.45 30.7354 24.9877 28.4782 28.7545 26.8359Z" fill="#BFD2DE"/>
<path d="M20.5425 20.0052C20.8924 20.0052 21.176 19.7161 21.176 19.3596C21.176 19.0031 20.8924 18.714 20.5425 18.714C20.1927 18.714 19.909 19.0031 19.909 19.3596C19.909 19.7161 20.1927 20.0052 20.5425 20.0052Z" fill="#262A8B"/>
<path d="M23.4575 20.0117C23.8073 20.0117 24.091 19.7227 24.091 19.3661C24.091 19.0096 23.8073 18.7206 23.4575 18.7206C23.1076 18.7206 22.824 19.0096 22.824 19.3661C22.824 19.7227 23.1076 20.0117 23.4575 20.0117Z" fill="#262A8B"/>
<path d="M27.847 21.7783H26.6977C26.5228 21.7783 26.381 21.9228 26.381 22.1011C26.381 22.2793 26.5228 22.4238 26.6977 22.4238H27.847C28.022 22.4238 28.1638 22.2793 28.1638 22.1011C28.1638 21.9228 28.022 21.7783 27.847 21.7783Z" fill="#BFD8E0"/>
<path d="M17.3023 21.7783H16.153C15.978 21.7783 15.8362 21.9228 15.8362 22.1011C15.8362 22.2793 15.978 22.4238 16.153 22.4238H17.3023C17.4772 22.4238 17.619 22.2793 17.619 22.1011C17.619 21.9228 17.4772 21.7783 17.3023 21.7783Z" fill="#BFD8E0"/>
<path d="M26.015 23.5797C26.015 23.6517 25.9551 23.7106 25.8845 23.7106C25.816 23.7106 25.7561 23.6495 25.7582 23.5797V23.3856C25.4671 23.3769 23.4725 23.3638 22.1327 24.6157C22.0877 24.6528 22.0471 24.6942 22.0086 24.7356C21.9636 24.6855 21.9165 24.6397 21.8673 24.5961C20.5254 23.3486 18.5393 23.3595 18.2439 23.366V23.5601C18.2439 23.6321 18.1862 23.691 18.1155 23.691C18.047 23.691 17.9871 23.6321 17.9871 23.5601V22.7771C17.9871 22.7052 18.047 22.6441 18.1155 22.6463C18.122 22.6463 18.1284 22.6463 18.1348 22.6463C18.1969 22.655 18.2418 22.7095 18.2439 22.7771V23.0301C20.3585 23.0301 21.4714 23.8022 21.9144 24.2144C21.97 24.2646 22.0514 24.2667 22.107 24.2144C22.5629 23.7978 23.6715 23.0476 25.7603 23.0476V22.7924C25.7603 22.7924 25.7603 22.7793 25.7603 22.7728C25.7689 22.7117 25.8224 22.6637 25.8887 22.6616C25.9572 22.6616 26.0172 22.7226 26.015 22.7946V23.5797Z" fill="#262A8B"/>
<path d="M20.1102 18.3171C20.1594 18.1339 20.3242 17.979 20.5126 17.9638C20.7009 17.9485 20.9042 18.0663 20.977 18.2517C20.9984 18.3062 21.0476 18.3454 21.1097 18.328C21.161 18.3127 21.206 18.2495 21.1846 18.1928C21.0776 17.9223 20.8058 17.7239 20.5126 17.7457C20.2194 17.7675 19.9775 17.9769 19.9026 18.2582C19.8662 18.3934 20.0738 18.4523 20.1081 18.3171H20.1102Z" fill="#1E2972"/>
<path d="M23.023 18.2168C23.0722 18.0336 23.237 17.8787 23.4254 17.8635C23.6137 17.8482 23.817 17.966 23.8898 18.1513C23.9112 18.2059 23.9604 18.2451 24.0225 18.2277C24.0739 18.2124 24.1188 18.1492 24.0974 18.0925C23.9904 17.822 23.7186 17.6236 23.4254 17.6454C23.1322 17.6672 22.8903 17.8765 22.8154 18.1579C22.779 18.2931 22.9866 18.352 23.0209 18.2168H23.023Z" fill="#1E2972"/>
<path d="M21.4521 21.6452C21.5183 21.6452 21.572 21.5906 21.572 21.5231C21.572 21.4557 21.5183 21.401 21.4521 21.401C21.3859 21.401 21.3323 21.4557 21.3323 21.5231C21.3323 21.5906 21.3859 21.6452 21.4521 21.6452Z" fill="#1E2B59"/>
<path d="M22.5757 21.6452C22.6419 21.6452 22.6956 21.5906 22.6956 21.5231C22.6956 21.4557 22.6419 21.401 22.5757 21.401C22.5095 21.401 22.4559 21.4557 22.4559 21.5231C22.4559 21.5906 22.5095 21.6452 22.5757 21.6452Z" fill="#1E2B59"/>
<path d="M20.84 22.7968L20.718 22.7226C20.6217 22.6637 20.5147 22.5089 20.5725 22.4108L21.2145 21.4729C21.2723 21.3748 21.3965 21.3443 21.4928 21.401C21.5891 21.4599 21.619 21.5864 21.5634 21.6845L21.1482 22.7401C21.0904 22.8382 20.9363 22.8513 20.8421 22.7946L20.84 22.7968Z" fill="#1E2B59"/>
</svg>
