<svg width="44" height="44" viewBox="0 0 44 44" fill="none" xmlns="http://www.w3.org/2000/svg">
<circle cx="22" cy="22" r="22" fill="#E2E2FF"/>
<path d="M35.9241 21.859C33.8629 16.7926 28.4264 13.1744 22.046 13.1744C15.6656 13.1744 10.0686 16.9017 8.07806 22.0836C7.96677 22.3715 7.86831 22.6637 7.78056 22.9603C9.56775 28.4476 15.2376 32.4584 21.9561 32.4584C28.6747 32.4584 34.5414 28.3059 36.2194 22.6703C36.1317 22.3955 36.0332 22.125 35.9241 21.859Z" fill="#B54D63"/>
<path d="M36.2194 22.6703C34.5414 28.3059 28.7903 32.4584 21.9561 32.4584C15.122 32.4584 9.56775 28.4476 7.78056 22.9603C7.86831 22.6637 7.96677 22.3715 8.07806 22.0836C10.1371 27.1521 15.5736 30.7703 21.9561 30.7703C28.3387 30.7703 33.9335 27.0453 35.9241 21.859C36.0332 22.125 36.1317 22.3955 36.2194 22.6703Z" fill="#BF7687"/>
<path d="M35.8085 23.9832C34.1305 29.6188 28.3793 33.7713 21.5452 33.7713C14.711 33.7713 9.1568 29.7606 7.36961 24.2733C7.45736 23.9767 7.55582 23.6844 7.66712 23.3965C9.72614 28.4651 15.1626 32.0833 21.5452 32.0833C27.9277 32.0833 33.5226 28.3582 35.5131 23.1719C35.6223 23.438 35.7207 23.7084 35.8085 23.9832Z" fill="#BF7687"/>
<path d="M35.8085 22.7946C34.1305 28.4302 28.3793 32.5827 21.5452 32.5827C14.711 32.5827 9.1568 28.5719 7.36961 23.0847C7.45736 22.788 7.55582 22.4958 7.66712 22.2079C9.72614 27.2765 15.1626 30.8947 21.5452 30.8947C27.9277 30.8947 33.5226 27.1696 35.5131 21.9833C35.6223 22.2494 35.7207 22.5198 35.8085 22.7946Z" fill="#F1E5E6"/>
<path d="M32.0543 21.2461C32.0543 15.5865 27.5531 11 21.9989 11C16.4447 11 11.9435 15.5865 11.9435 21.2461V26.958L14.5569 28.1358C16.3955 30.1968 19.0495 31.4922 21.9989 31.4922C24.9483 31.4922 27.8121 30.0899 29.6571 27.8828L32.0543 26.753V21.2461Z" fill="#CE9BA6"/>
<path d="M15.2461 26.8359C15.2461 26.8359 11.1174 25.2242 8.97059 22.5154C7.83192 21.076 7.33108 22.0618 7.11277 23.3006C6.86448 24.7073 7.03357 26.1554 7.54726 27.4858C8.48045 29.911 10.5266 33.9349 13.8378 33.9982C18.5808 34.0898 18.5508 30.7354 18.5508 30.7354C18.5508 30.7354 19.0131 28.4782 15.2461 26.8359Z" fill="#DDBFC4"/>
<path d="M28.7539 26.8359C28.7539 26.8359 32.8826 25.2242 35.0294 22.5154C36.1681 21.076 36.6689 22.0618 36.8872 23.3006C37.1355 24.7073 36.9664 26.1554 36.4527 27.4858C35.5195 29.911 33.4734 33.9349 30.1622 33.9982C25.4192 34.0898 25.4492 30.7354 25.4492 30.7354C25.4492 30.7354 24.9869 28.4782 28.7539 26.8359Z" fill="#DDBFC4"/>
<path d="M20.5413 20.0052C20.8912 20.0052 21.1749 19.7161 21.1749 19.3596C21.1749 19.0031 20.8912 18.714 20.5413 18.714C20.1915 18.714 19.9078 19.0031 19.9078 19.3596C19.9078 19.7161 20.1915 20.0052 20.5413 20.0052Z" fill="#8E3322"/>
<path d="M23.4565 20.0117C23.8064 20.0117 24.0901 19.7227 24.0901 19.3661C24.0901 19.0096 23.8064 18.7206 23.4565 18.7206C23.1066 18.7206 22.823 19.0096 22.823 19.3661C22.823 19.7227 23.1066 20.0117 23.4565 20.0117Z" fill="#8E3322"/>
<path d="M27.8464 21.7783H26.697C26.5221 21.7783 26.3802 21.9228 26.3802 22.1011C26.3802 22.2793 26.5221 22.4238 26.697 22.4238H27.8464C28.0213 22.4238 28.1632 22.2793 28.1632 22.1011C28.1632 21.9228 28.0213 21.7783 27.8464 21.7783Z" fill="#E0BEC8"/>
<path d="M17.3009 21.7783H16.1515C15.9765 21.7783 15.8347 21.9228 15.8347 22.1011C15.8347 22.2793 15.9765 22.4238 16.1515 22.4238H17.3009C17.4758 22.4238 17.6176 22.2793 17.6176 22.1011C17.6176 21.9228 17.4758 21.7783 17.3009 21.7783Z" fill="#E0BEC8"/>
<path d="M26.0142 23.5797C26.0142 23.6517 25.9543 23.7106 25.8837 23.7106C25.8152 23.7106 25.7553 23.6495 25.7574 23.5797V23.3856C25.4663 23.3769 23.4715 23.3638 22.1316 24.6157C22.0867 24.6528 22.046 24.6942 22.0075 24.7357C21.9625 24.6855 21.9155 24.6397 21.8662 24.5961C20.5242 23.3486 18.538 23.3595 18.2426 23.366V23.5601C18.2426 23.6321 18.1848 23.691 18.1142 23.691C18.0457 23.691 17.9858 23.6321 17.9858 23.5601V22.7772C17.9858 22.7052 18.0457 22.6441 18.1142 22.6463C18.1206 22.6463 18.127 22.6463 18.1334 22.6463C18.1955 22.655 18.2405 22.7095 18.2426 22.7772V23.0301C20.3573 23.0301 21.4703 23.8022 21.9133 24.2144C21.969 24.2646 22.0503 24.2667 22.1059 24.2144C22.5618 23.7978 23.6705 23.0476 25.7595 23.0476V22.7924C25.7595 22.7924 25.7595 22.7793 25.7595 22.7728C25.7681 22.7117 25.8216 22.6637 25.888 22.6616C25.9564 22.6616 26.0164 22.7226 26.0142 22.7946V23.5797Z" fill="#8E3322"/>
<path d="M20.109 18.3171C20.1582 18.1339 20.323 17.979 20.5114 17.9638C20.6997 17.9485 20.9031 18.0663 20.9758 18.2517C20.9972 18.3062 21.0465 18.3454 21.1085 18.328C21.1599 18.3127 21.2049 18.2495 21.1835 18.1928C21.0764 17.9223 20.8046 17.7239 20.5114 17.7457C20.2182 17.7675 19.9763 17.9769 19.9014 18.2582C19.865 18.3934 20.0726 18.4523 20.1069 18.3171H20.109Z" fill="#8A3522"/>
<path d="M23.022 18.2168C23.0712 18.0336 23.2361 17.8787 23.4244 17.8635C23.6128 17.8482 23.8161 17.966 23.8889 18.1513C23.9103 18.2059 23.9595 18.2451 24.0216 18.2277C24.0729 18.2124 24.1179 18.1492 24.0965 18.0925C23.9895 17.822 23.7176 17.6236 23.4244 17.6454C23.1312 17.6672 22.8893 17.8765 22.8144 18.1579C22.778 18.2931 22.9856 18.352 23.0199 18.2168H23.022Z" fill="#8A3522"/>
<path d="M21.451 21.6452C21.5172 21.6452 21.5709 21.5906 21.5709 21.5231C21.5709 21.4557 21.5172 21.401 21.451 21.401C21.3848 21.401 21.3311 21.4557 21.3311 21.5231C21.3311 21.5906 21.3848 21.6452 21.451 21.6452Z" fill="#73241B"/>
<path d="M22.5747 21.6452C22.6409 21.6452 22.6945 21.5906 22.6945 21.5231C22.6945 21.4557 22.6409 21.401 22.5747 21.401C22.5085 21.401 22.4548 21.4557 22.4548 21.5231C22.4548 21.5906 22.5085 21.6452 22.5747 21.6452Z" fill="#73241B"/>
<path d="M20.8389 22.7968L20.7169 22.7226C20.6205 22.6637 20.5135 22.5089 20.5713 22.4108L21.2134 21.4729C21.2712 21.3748 21.3954 21.3443 21.4917 21.401C21.588 21.4599 21.618 21.5864 21.5623 21.6845L21.1471 22.7401C21.0893 22.8382 20.9352 22.8513 20.841 22.7946L20.8389 22.7968Z" fill="#73241B"/>
</svg>
