<svg width="44" height="44" viewBox="0 0 44 44" fill="none" xmlns="http://www.w3.org/2000/svg">
<circle cx="22" cy="22" r="22" fill="#E2E2FF"/>
<path d="M35.9241 21.859C33.8629 16.7926 28.4264 13.1744 22.046 13.1744C15.6656 13.1744 10.0686 16.9017 8.07806 22.0836C7.96677 22.3715 7.86831 22.6637 7.78056 22.9603C9.56775 28.4476 15.2376 32.4584 21.9561 32.4584C28.6747 32.4584 34.5414 28.3059 36.2194 22.6703C36.1317 22.3955 36.0332 22.125 35.9241 21.859Z" fill="#5DB588"/>
<path d="M36.2194 22.6703C34.5414 28.3059 28.7903 32.4584 21.9561 32.4584C15.122 32.4584 9.56775 28.4476 7.78056 22.9603C7.86831 22.6637 7.96677 22.3715 8.07806 22.0836C10.1371 27.1521 15.5736 30.7703 21.9561 30.7703C28.3387 30.7703 33.9335 27.0453 35.9241 21.859C36.0332 22.125 36.1317 22.3955 36.2194 22.6703Z" fill="#76BF99"/>
<path d="M35.8085 23.9832C34.1305 29.6188 28.3793 33.7713 21.5452 33.7713C14.711 33.7713 9.1568 29.7606 7.36961 24.2733C7.45736 23.9767 7.55582 23.6844 7.66712 23.3965C9.72614 28.4651 15.1626 32.0833 21.5452 32.0833C27.9277 32.0833 33.5226 28.3582 35.5131 23.1719C35.6223 23.438 35.7207 23.7084 35.8085 23.9832Z" fill="#76BF99"/>
<path d="M35.8085 22.7968C34.1305 28.4324 28.3793 32.5849 21.5452 32.5849C14.711 32.5849 9.1568 28.5741 7.36961 23.0868C7.45736 22.7902 7.55582 22.498 7.66712 22.2101C9.72614 27.2786 15.1626 30.8968 21.5452 30.8968C27.9277 30.8968 33.5226 27.1718 35.5131 21.9855C35.6223 22.2515 35.7207 22.522 35.8085 22.7968Z" fill="#E5F1EC"/>
<path d="M32.0543 21.2461C32.0543 15.5865 27.5531 11 21.9989 11C16.4447 11 11.9435 15.5865 11.9435 21.2461V26.958L14.5569 28.1357C16.3955 30.1968 19.0495 31.4922 21.9989 31.4922C24.9483 31.4922 27.8121 30.0899 29.6571 27.8828L32.0543 26.753V21.2461Z" fill="#9ACDB2"/>
<path d="M15.2461 26.8359C15.2461 26.8359 11.1174 25.2242 8.97059 22.5154C7.83192 21.076 7.33108 22.0618 7.11277 23.3006C6.86448 24.7073 7.03357 26.1554 7.54726 27.4858C8.48045 29.911 10.5266 33.9349 13.8378 33.9982C18.5808 34.0898 18.5508 30.7354 18.5508 30.7354C18.5508 30.7354 19.0131 28.4782 15.2461 26.8359Z" fill="#BEDCCE"/>
<path d="M28.7539 26.8359C28.7539 26.8359 32.8826 25.2242 35.0294 22.5154C36.1681 21.076 36.6689 22.0618 36.8872 23.3006C37.1355 24.7073 36.9664 26.1554 36.4527 27.4858C35.5195 29.911 33.4734 33.9349 30.1622 33.9982C25.4192 34.0898 25.4492 30.7354 25.4492 30.7354C25.4492 30.7354 24.9869 28.4782 28.7539 26.8359Z" fill="#BEDCCE"/>
<path d="M20.5413 20.0052C20.8912 20.0052 21.1749 19.7161 21.1749 19.3596C21.1749 19.0031 20.8912 18.714 20.5413 18.714C20.1915 18.714 19.9078 19.0031 19.9078 19.3596C19.9078 19.7161 20.1915 20.0052 20.5413 20.0052Z" fill="#1F638E"/>
<path d="M23.4565 20.0139C23.8064 20.0139 24.0901 19.7249 24.0901 19.3683C24.0901 19.0118 23.8064 18.7228 23.4565 18.7228C23.1066 18.7228 22.823 19.0118 22.823 19.3683C22.823 19.7249 23.1066 20.0139 23.4565 20.0139Z" fill="#1F638E"/>
<path d="M27.8464 21.7804H26.697C26.5221 21.7804 26.3802 21.925 26.3802 22.1032C26.3802 22.2815 26.5221 22.426 26.697 22.426H27.8464C28.0213 22.426 28.1632 22.2815 28.1632 22.1032C28.1632 21.925 28.0213 21.7804 27.8464 21.7804Z" fill="#BDDFCB"/>
<path d="M17.3009 21.7804H16.1515C15.9765 21.7804 15.8347 21.925 15.8347 22.1032C15.8347 22.2815 15.9765 22.426 16.1515 22.426H17.3009C17.4758 22.426 17.6176 22.2815 17.6176 22.1032C17.6176 21.925 17.4758 21.7804 17.3009 21.7804Z" fill="#BDDFCB"/>
<path d="M26.0142 23.5819C26.0142 23.6539 25.9543 23.7128 25.8837 23.7128C25.8152 23.7128 25.7553 23.6517 25.7574 23.5819V23.3878C25.4663 23.3791 23.4715 23.366 22.1316 24.6179C22.0867 24.6549 22.046 24.6964 22.0075 24.7378C21.9625 24.6877 21.9155 24.6419 21.8662 24.5982C20.5242 23.3507 18.538 23.3616 18.2426 23.3682V23.5623C18.2426 23.6343 18.1848 23.6931 18.1142 23.6931C18.0457 23.6931 17.9858 23.6343 17.9858 23.5623V22.7793C17.9858 22.7074 18.0457 22.6463 18.1142 22.6485C18.1206 22.6485 18.127 22.6485 18.1334 22.6485C18.1955 22.6572 18.2405 22.7117 18.2426 22.7793V23.0323C20.3573 23.0323 21.4703 23.8044 21.9133 24.2166C21.969 24.2667 22.0503 24.2689 22.1059 24.2166C22.5618 23.8 23.6705 23.0498 25.7595 23.0498V22.7946C25.7595 22.7946 25.7595 22.7815 25.7595 22.775C25.7681 22.7139 25.8216 22.6659 25.888 22.6637C25.9564 22.6637 26.0164 22.7248 26.0142 22.7968V23.5819Z" fill="#1F638E"/>
<path d="M20.109 18.3171C20.1582 18.1339 20.323 17.979 20.5114 17.9638C20.6997 17.9485 20.9031 18.0663 20.9758 18.2517C20.9972 18.3062 21.0465 18.3454 21.1085 18.328C21.1599 18.3127 21.2049 18.2495 21.1835 18.1928C21.0764 17.9223 20.8046 17.7239 20.5114 17.7457C20.2182 17.7675 19.9763 17.9769 19.9014 18.2582C19.865 18.3934 20.0726 18.4523 20.1069 18.3171H20.109Z" fill="#175F89"/>
<path d="M23.022 18.219C23.0712 18.0358 23.2361 17.8809 23.4244 17.8656C23.6128 17.8504 23.8161 17.9681 23.8889 18.1535C23.9103 18.208 23.9595 18.2473 24.0216 18.2299C24.0729 18.2146 24.1179 18.1513 24.0965 18.0946C23.9895 17.8242 23.7176 17.6257 23.4244 17.6475C23.1312 17.6694 22.8893 17.8787 22.8144 18.1601C22.778 18.2953 22.9856 18.3542 23.0199 18.219H23.022Z" fill="#175F89"/>
<path d="M21.451 21.6474C21.5172 21.6474 21.5709 21.5927 21.5709 21.5253C21.5709 21.4578 21.5172 21.4031 21.451 21.4031C21.3848 21.4031 21.3311 21.4578 21.3311 21.5253C21.3311 21.5927 21.3848 21.6474 21.451 21.6474Z" fill="#024B73"/>
<path d="M22.5747 21.6474C22.6409 21.6474 22.6945 21.5927 22.6945 21.5253C22.6945 21.4578 22.6409 21.4031 22.5747 21.4031C22.5085 21.4031 22.4548 21.4578 22.4548 21.5253C22.4548 21.5927 22.5085 21.6474 22.5747 21.6474Z" fill="#024B73"/>
<path d="M20.8389 22.7968L20.7169 22.7226C20.6205 22.6637 20.5135 22.5089 20.5713 22.4107L21.2134 21.4729C21.2712 21.3748 21.3954 21.3443 21.4917 21.401C21.588 21.4599 21.618 21.5863 21.5623 21.6845L21.1471 22.7401C21.0893 22.8382 20.9352 22.8513 20.841 22.7946L20.8389 22.7968Z" fill="#024B73"/>
</svg>
