<svg width="37" height="37" viewBox="0 0 37 37" fill="none" xmlns="http://www.w3.org/2000/svg">
<g clip-path="url(#clip0_193_409)">
<path d="M33.1446 19.1491C35.4987 17.2389 37 14.324 37 11.0645C37 5.3223 32.3268 0.649109 26.5846 0.649109C23.3251 0.649109 20.4102 2.15037 18.5 4.50449C16.5898 2.15037 13.6808 0.649109 10.4212 0.649109C4.67319 0.649109 0 5.3223 0 11.0645C0 14.324 1.50126 17.2389 3.85538 19.1491C1.60057 20.9775 0.128513 23.7288 0.011683 26.819C0.011683 26.8248 0.00584149 26.8307 0.00584149 26.8365C0.00584149 26.965 0.00584149 27.0994 0.00584149 27.2279V36.0544C0.00584149 36.9014 0.700979 37.5965 1.548 37.5965H3.14272C3.98974 37.5965 4.67903 36.9014 4.67903 36.0544V27.2279C4.67903 24.0618 7.25513 21.4857 10.4271 21.4857C13.599 21.4857 16.1692 24.0618 16.1692 27.2279V36.107C16.1692 36.142 16.1692 36.1771 16.1751 36.2121C16.2277 37.0124 16.8994 37.6491 17.7114 37.6491H26.6547C26.7073 37.6491 26.7599 37.6491 26.8124 37.6433C32.4553 37.5264 37.0058 32.9 37.0058 27.2279C37.0058 23.9683 35.5046 21.0593 33.1505 19.1491H33.1446ZM10.4212 16.8125C7.24929 16.8125 4.67319 14.2306 4.67319 11.0645C4.67319 7.8984 7.24929 5.3223 10.4212 5.3223C13.5932 5.3223 16.1634 7.8984 16.1634 11.0645C16.1634 14.2306 13.5873 16.8125 10.4212 16.8125ZM26.6489 32.9759H26.5846C23.4127 32.9759 20.8366 30.3998 20.8366 27.2279C20.8366 24.056 23.4127 21.4857 26.5846 21.4857C29.7566 21.4857 32.3268 24.0618 32.3268 27.2279C32.3268 30.394 29.7858 32.9409 26.6489 32.9759ZM26.5846 16.8125C23.4127 16.8125 20.8366 14.2306 20.8366 11.0645C20.8366 7.8984 23.4127 5.3223 26.5846 5.3223C29.7566 5.3223 32.3268 7.8984 32.3268 11.0645C32.3268 14.2306 29.7507 16.8125 26.5846 16.8125Z" fill="white"/>
<path d="M8.99009 26.3451C8.99009 26.4269 8.98425 26.5029 8.97256 26.5788C8.91999 26.9118 8.76227 27.2097 8.53445 27.4317C8.25406 27.7121 7.86852 27.8873 7.44793 27.8873C6.6827 27.8873 6.04013 27.3148 5.92915 26.5788C5.91746 26.5029 5.91162 26.4269 5.91162 26.3451C5.91162 25.9187 6.08102 25.539 6.36142 25.2586C6.64181 24.9841 7.02735 24.8088 7.44793 24.8088C7.86852 24.8088 8.25406 24.9841 8.53445 25.2586C8.81484 25.539 8.99009 25.9187 8.99009 26.3451Z" fill="white"/>
<path d="M14.6798 26.3451C14.6798 26.4269 14.6798 26.5029 14.6623 26.5788C14.6097 26.9118 14.452 27.2097 14.2241 27.4317C13.9438 27.7121 13.5582 27.8873 13.1376 27.8873C12.3782 27.8873 11.7357 27.3148 11.6188 26.5788C11.6072 26.5029 11.6013 26.4269 11.6013 26.3451C11.6013 25.9187 11.7766 25.539 12.0511 25.2586C12.3315 24.9841 12.717 24.8088 13.1376 24.8088C13.5582 24.8088 13.9438 24.9841 14.2241 25.2586C14.5045 25.539 14.6798 25.9187 14.6798 26.3451Z" fill="white"/>
</g>
<defs>
<clipPath id="clip0_193_409">
<rect width="37" height="37" fill="white"/>
</clipPath>
</defs>
</svg>
