<svg width="254" height="254" viewBox="0 0 254 254" fill="none" xmlns="http://www.w3.org/2000/svg">
<rect width="254" height="254" rx="127" fill="white"/>
<mask id="mask0_766_5853" style="mask-type:alpha" maskUnits="userSpaceOnUse" x="0" y="0" width="254" height="254">
<rect width="254" height="254" rx="127" fill="#D9D9D9"/>
</mask>
<g mask="url(#mask0_766_5853)">
<path d="M63.4996 365.743C98.7111 365.743 127.256 321.443 127.256 266.796C127.256 212.149 98.7111 167.849 63.4996 167.849C28.2881 167.849 -0.25647 212.149 -0.25647 266.796C-0.25647 321.443 28.2881 365.743 63.4996 365.743Z" fill="#71BD5F"/>
<path d="M185.804 179.027C185.804 179.027 192.884 293.567 201.232 317.13C209.581 340.672 166.611 391.997 116.626 388.917C49.0828 384.739 38.0874 345.992 38.0874 345.992C38.0874 345.992 8.50094 276.488 56.0975 174.935C91.5797 99.2275 184.406 158.372 185.826 179.048L185.804 179.027Z" fill="#8AC67A"/>
<path d="M186.773 226.734C178.08 233.605 168.375 239.248 158.112 243.405C153.098 245.43 147.934 247.11 142.705 248.445C140.037 249.113 137.369 249.694 134.658 250.168C131.946 250.642 129.085 250.943 126.352 251.525C121.209 252.623 115.507 255.962 115.636 261.949L117.637 261.411C116.54 259.171 115.335 256.845 113.355 255.251C111.139 253.485 108.406 253.291 105.695 253.42C99.1539 253.722 92.6771 253.42 86.2004 252.343C79.7236 251.266 73.3975 249.651 67.1575 247.713C62.1009 246.14 57.1088 244.31 52.4611 241.768C47.2754 238.925 42.6061 235.199 39.3355 230.202C38.5824 229.039 36.7104 230.116 37.485 231.279C43.2301 240.088 52.8054 245.042 62.4452 248.423C74.2582 252.559 86.8674 255.509 99.4121 255.703C101.198 255.725 102.984 255.703 104.77 255.596C106.384 255.509 108.084 255.359 109.676 255.768C112.882 256.565 114.431 259.731 115.765 262.488C116.239 263.457 117.788 262.983 117.766 261.949C117.637 256.026 124.308 253.98 129.02 253.226C134.27 252.386 139.456 251.546 144.599 250.19C154.776 247.497 164.61 243.448 173.733 238.193C178.833 235.264 183.696 231.925 188.3 228.285C189.376 227.424 187.849 225.916 186.773 226.756V226.734Z" fill="#CAE4C1"/>
<path d="M56.0762 174.913C56.0762 190.852 85.1247 203.775 120.93 203.775C156.735 203.775 185.783 190.852 185.783 174.913C185.783 171.618 184.535 168.452 182.233 165.479C182.233 165.738 182.233 165.996 182.233 166.255C182.233 182.193 154.863 195.116 121.123 195.116C87.384 195.116 60.2076 182.193 60.2076 166.255C60.2076 165.781 60.2291 165.329 60.2721 164.876C57.647 167.999 56.0547 171.381 56.0547 174.935L56.0762 174.913Z" fill="#CAE4C1"/>
<path d="M50.9766 176.033C50.9766 176.033 49.4489 164.251 40.347 157.036C40.347 157.036 38.1737 111.138 9.14675 104.138C4.32685 102.975 -0.708219 104.31 -4.19404 107.821C-10.0898 113.766 -16.2438 127.012 -8.02414 155.679C5.2521 202.008 40.347 208.082 40.347 208.082L50.9766 175.99V176.033Z" fill="#A9D49E"/>
<path d="M53.6879 172.997C51.8589 172.372 49.8578 173.385 49.2338 175.215L45.3391 183.981C43.1659 188.892 41.4445 193.975 40.1965 199.187L37.8511 209.052C37.2271 210.883 38.2384 212.886 40.0674 213.51C41.8964 214.135 43.8975 213.123 44.5215 211.292L46.8669 201.427C48.1149 196.215 49.8148 191.111 52.0095 186.221L55.9042 177.455C56.5282 175.625 55.5169 173.621 53.6879 172.997Z" fill="#CAE4C1"/>
<path d="M189.828 179.027C189.828 179.027 194.885 168.301 205.773 164.23C205.773 164.23 221.954 121.218 251.734 123.523C256.683 123.91 261.051 126.732 263.289 131.147C267.076 138.621 268.862 153.138 252.229 177.864C225.332 217.86 190.087 212.82 190.087 212.82L189.85 179.005L189.828 179.027Z" fill="#A9D49E"/>
<path d="M188.171 175.301C190.108 175.28 191.7 176.852 191.722 178.769L192.733 188.31C193.292 193.652 193.379 199.015 192.948 204.356L192.131 214.458C192.152 216.396 190.581 217.99 188.666 218.012C186.73 218.033 185.137 216.461 185.116 214.544L185.933 204.442C186.364 199.101 186.299 193.716 185.718 188.396L184.707 178.855C184.685 176.917 186.256 175.323 188.171 175.301Z" fill="#CAE4C1"/>
<path d="M71.6119 91.2156C71.7626 90.6125 71.9132 89.9879 72.0423 89.3633C78.6051 58.7143 110.107 39.0714 140.963 45.0806C170.592 50.8528 190.474 78.4218 187.182 107.951C186.902 110.514 186.278 113.012 185.525 115.468C183.201 122.985 178.876 143.963 182.254 164.058C185.977 186.092 143.351 194.039 130.268 194.944C126.245 195.224 115.206 195.095 111.785 194.75C97.605 193.307 59.3255 187.75 60.0571 169.55C61.6063 131.234 70.1272 96.8802 71.6119 91.194V91.2156Z" fill="#A9D49E"/>
<path d="M149.483 103.729C151.682 103.729 153.464 101.945 153.464 99.7448C153.464 97.5442 151.682 95.7603 149.483 95.7603C147.285 95.7603 145.502 97.5442 145.502 99.7448C145.502 101.945 147.285 103.729 149.483 103.729Z" fill="#0E9561"/>
<path d="M131.366 101.231C133.564 101.231 135.347 99.4468 135.347 97.2462C135.347 95.0456 133.564 93.2616 131.366 93.2616C129.167 93.2616 127.385 95.0456 127.385 97.2462C127.385 99.4468 129.167 101.231 131.366 101.231Z" fill="#0E9561"/>
<path d="M102.799 112.26L110.044 113.282C111.103 113.431 112.082 112.693 112.232 111.633L112.247 111.526C112.396 110.466 111.658 109.486 110.599 109.336L103.355 108.315C102.296 108.165 101.316 108.904 101.167 109.964L101.152 110.07C101.003 111.131 101.74 112.111 102.799 112.26Z" fill="#CAE4C1"/>
<path d="M168.377 121.502L175.622 122.523C176.681 122.673 177.66 121.934 177.809 120.874L177.824 120.768C177.974 119.708 177.236 118.727 176.177 118.578L168.933 117.556C167.874 117.407 166.894 118.145 166.745 119.205L166.73 119.312C166.581 120.372 167.318 121.352 168.377 121.502Z" fill="#CAE4C1"/>
<path d="M156.046 85.7232C155.81 83.7848 154.411 81.9971 152.432 81.5879C150.452 81.1786 148.408 82.1048 147.418 83.8494C147.138 84.3448 147.289 85.0555 147.805 85.314C148.322 85.5724 148.989 85.4432 149.268 84.9263C149.311 84.8401 149.376 84.7755 149.419 84.6894C149.527 84.5171 149.376 84.7325 149.441 84.6463C149.548 84.5171 149.656 84.3878 149.785 84.2802C149.785 84.2802 150 84.1078 149.892 84.194C149.785 84.2802 149.979 84.1294 150 84.1078C150.151 84.0217 150.301 83.9355 150.452 83.8494C150.56 83.7848 150.301 83.8925 150.495 83.8494C150.581 83.8278 150.667 83.7848 150.753 83.7632C150.904 83.7202 151.054 83.6986 151.205 83.6555C150.947 83.6986 151.248 83.6555 151.291 83.6555C151.377 83.6555 151.442 83.6555 151.528 83.6555C151.614 83.6555 151.678 83.6555 151.764 83.6555C152.044 83.6555 151.571 83.5909 151.851 83.6555C152.001 83.6986 152.152 83.7417 152.302 83.7848C152.582 83.8709 152.13 83.6771 152.388 83.8278C152.453 83.8709 152.518 83.8925 152.604 83.9355C152.69 83.9786 152.733 84.0217 152.797 84.0648C152.819 84.0648 153.056 84.2586 152.883 84.1078C153.012 84.2155 153.12 84.3017 153.228 84.4309C153.292 84.4955 153.357 84.5602 153.421 84.6463C153.314 84.5386 153.4 84.6248 153.443 84.6894C153.55 84.8401 153.615 84.9694 153.701 85.1201C153.809 85.2925 153.701 85.0555 153.723 85.1632C153.744 85.2278 153.787 85.314 153.809 85.3786C153.83 85.4648 153.852 85.5509 153.873 85.6371C153.873 85.7017 153.916 85.9601 153.895 85.7232C153.959 86.2832 154.347 86.8217 154.971 86.8001C155.487 86.7786 156.111 86.3263 156.046 85.7232Z" fill="#168F5E"/>
<path d="M138.014 82.5567C137.778 80.6183 136.379 78.8306 134.4 78.4214C132.42 78.0122 130.376 78.9383 129.386 80.6829C129.106 81.1783 129.257 81.889 129.773 82.1475C130.29 82.406 130.957 82.2767 131.236 81.7598C131.28 81.6737 131.344 81.609 131.387 81.5229C131.495 81.3506 131.344 81.566 131.409 81.4798C131.516 81.3506 131.624 81.2214 131.753 81.1137C131.753 81.1137 131.968 80.9414 131.86 81.0275C131.753 81.1137 131.947 80.9629 131.968 80.9414C132.119 80.8552 132.269 80.7691 132.42 80.6829C132.528 80.6183 132.269 80.726 132.463 80.6829C132.549 80.6614 132.635 80.6183 132.721 80.5967C132.872 80.5537 133.022 80.5321 133.173 80.4891C132.915 80.5321 133.216 80.4891 133.259 80.4891C133.345 80.4891 133.41 80.4891 133.496 80.4891C133.582 80.4891 133.646 80.4891 133.733 80.4891C134.012 80.4891 133.539 80.4244 133.819 80.4891C133.969 80.5321 134.12 80.5752 134.27 80.6183C134.55 80.7044 134.098 80.5106 134.356 80.6614C134.421 80.7044 134.486 80.726 134.572 80.7691C134.658 80.8121 134.701 80.8552 134.765 80.8983C134.787 80.8983 135.024 81.0921 134.851 80.9414C134.981 81.0491 135.088 81.1352 135.196 81.2644C135.26 81.329 135.325 81.3937 135.389 81.4798C135.282 81.3721 135.368 81.4583 135.411 81.5229C135.518 81.6737 135.583 81.8029 135.669 81.9537C135.777 82.126 135.669 81.889 135.691 81.9967C135.712 82.0614 135.755 82.1475 135.777 82.2121C135.798 82.2983 135.82 82.3844 135.841 82.4706C135.841 82.5352 135.884 82.7937 135.863 82.5567C135.927 83.1167 136.315 83.6552 136.939 83.6336C137.455 83.6121 138.079 83.1598 138.014 82.5567Z" fill="#168F5E"/>
<path d="M143.588 112.387C144.004 112.387 144.341 112.05 144.341 111.633C144.341 111.217 144.004 110.88 143.588 110.88C143.172 110.88 142.835 111.217 142.835 111.633C142.835 112.05 143.172 112.387 143.588 112.387Z" fill="#057749"/>
<path d="M136.594 111.397C137.01 111.397 137.347 111.059 137.347 110.643C137.347 110.226 137.01 109.889 136.594 109.889C136.178 109.889 135.841 110.226 135.841 110.643C135.841 111.059 136.178 111.397 136.594 111.397Z" fill="#057749"/>
<path d="M146.299 119.946L147.117 119.602C147.762 119.322 148.558 118.482 148.279 117.836L145.094 111.547C144.814 110.9 144.061 110.599 143.416 110.857C142.77 111.137 142.469 111.891 142.727 112.537L144.406 119.365C144.685 120.011 145.611 120.226 146.256 119.968L146.299 119.946Z" fill="#057749"/>
<path d="M162.889 122.144C162.889 122.144 162.803 122.144 162.76 122.144C162.372 122.144 162.028 122.446 161.963 122.834L161.748 124.384C148.601 122.532 141.027 126.28 137.907 128.39C137.52 128.649 137.025 128.584 136.723 128.218C134.249 125.289 128.009 119.711 115.012 117.88L115.228 116.329C115.228 116.329 115.228 116.243 115.228 116.2C115.228 115.834 114.926 115.468 114.539 115.403C114.109 115.36 113.7 115.661 113.635 116.092L112.947 120.874C112.882 121.326 113.205 121.714 113.635 121.778C114.066 121.821 114.474 121.52 114.539 121.089V121.024C117.745 127.874 123.167 133.947 130.311 136.683C137.541 139.461 146.148 137.695 152.883 134.314C156.068 132.698 158.972 130.523 161.296 127.809C161.339 128.154 161.598 128.434 161.963 128.498C162.394 128.563 162.803 128.261 162.867 127.809L163.534 123.027C163.599 122.575 163.276 122.166 162.846 122.123L162.889 122.144ZM142.899 135.433C139.499 136.037 135.906 136.144 132.571 135.197C128.977 134.163 125.771 132.074 123.081 129.489C120.349 126.84 118.132 123.674 116.54 120.206C120.671 120.938 130.204 123.329 136.207 130.63C136.444 130.889 136.68 131.19 136.874 131.47C137.197 131.212 137.541 130.954 137.864 130.738C145.825 125.289 155.874 125.741 159.876 126.194C155.766 131.277 149.182 134.292 142.877 135.433H142.899Z" fill="#0E9561"/>
</g>
</svg>
