<svg width="254" height="254" viewBox="0 0 254 254" fill="none" xmlns="http://www.w3.org/2000/svg">
<rect width="254" height="254" rx="127" fill="white"/>
<mask id="mask0_766_5851" style="mask-type:alpha" maskUnits="userSpaceOnUse" x="0" y="0" width="254" height="254">
<rect width="254" height="254" rx="127" fill="#D9D9D9"/>
</mask>
<g mask="url(#mask0_766_5851)">
<path d="M69.7093 350.732C104.895 350.732 133.419 306.437 133.419 251.797C133.419 197.157 104.895 152.863 69.7093 152.863C34.5236 152.863 6 197.157 6 251.797C6 306.437 34.5236 350.732 69.7093 350.732Z" fill="#71BD5F"/>
<path d="M191.967 164.036C191.967 164.036 199.034 278.584 207.386 302.132C215.737 325.681 172.779 377.004 122.818 373.915C55.3184 369.733 44.3112 331 44.3112 331C44.3112 331 14.7372 261.491 62.3211 159.94C97.7841 84.232 190.553 143.361 191.967 164.036Z" fill="#8AC67A"/>
<path d="M192.931 211.734C184.236 218.619 174.535 224.259 164.277 228.399C159.266 230.436 154.105 232.109 148.88 233.439C146.225 234.103 143.548 234.683 140.85 235.176C138.151 235.669 135.282 235.948 132.541 236.527C127.401 237.621 121.705 240.966 121.833 246.929L123.825 246.393C122.754 244.184 121.576 241.889 119.627 240.302C117.529 238.607 114.959 238.286 112.325 238.393C105.686 238.629 99.1976 238.436 92.6232 237.363C86.0489 236.291 79.9242 234.725 73.7353 232.817C68.6172 231.251 63.5632 229.407 58.852 226.854C53.6053 224.002 48.8512 220.249 45.5533 215.187C44.8038 214.029 42.9407 215.102 43.7116 216.26C49.4937 225.117 59.1518 230.093 68.8527 233.46C80.6737 237.578 93.3085 240.516 105.858 240.688C107.635 240.709 109.413 240.666 111.19 240.58C112.967 240.495 114.659 240.345 116.287 240.881C119.242 241.824 120.698 244.891 121.962 247.465C122.433 248.43 123.975 247.958 123.953 246.929C123.825 241.009 130.506 238.95 135.196 238.2C140.443 237.363 145.625 236.527 150.765 235.154C160.937 232.452 170.766 228.399 179.868 223.144C184.964 220.206 189.825 216.882 194.43 213.236C195.5 212.378 193.98 210.876 192.909 211.713L192.931 211.734Z" fill="#E7F2E6"/>
<path d="M121.812 246.95C122.154 259.025 122.647 271.078 123.396 283.131C123.953 292.16 125.11 301.168 125.324 310.197C125.581 320.813 124.831 331.43 124.317 342.046C124.039 347.751 123.739 353.477 122.84 359.118C122.09 363.922 120.998 369.005 118.235 373.101C117.464 374.238 119.306 375.331 120.077 374.173C122.497 370.592 123.675 366.259 124.467 362.056C125.431 357.059 125.859 351.976 126.159 346.914C126.801 336.62 127.444 326.282 127.487 315.988C127.529 305.693 126.394 296.3 125.731 286.434C125.174 278.241 124.788 270.049 124.467 261.834C124.274 256.859 124.082 251.883 123.932 246.929C123.889 245.556 121.747 245.556 121.79 246.929L121.812 246.95Z" fill="#E7F2E6"/>
<path d="M62.2997 159.919C62.2997 175.854 91.3169 188.765 127.123 188.765C162.907 188.765 191.946 175.854 191.946 159.919C191.946 156.616 190.703 153.442 188.391 150.482C188.391 150.739 188.391 150.997 188.391 151.254C188.391 167.189 161.044 180.1 127.315 180.1C93.5869 180.1 66.4328 167.189 66.4328 151.254C66.4328 150.782 66.4542 150.332 66.4971 149.86C63.8844 152.991 62.2783 156.38 62.2783 159.919H62.2997Z" fill="#E7F2E6"/>
<path d="M195.736 165.388C195.736 165.388 217.429 174.653 226.487 204.357C232.655 224.581 229.807 246.714 217.729 264.043C210.062 275.067 198.712 284.332 182.844 281.587C147.574 275.518 186.634 217.654 186.634 217.654C186.634 217.654 188.476 207.338 189.418 204.485C190.532 201.161 196.742 177.012 195.736 165.366V165.388Z" fill="#C6E1C1"/>
<path d="M190.982 206.565C192.909 206.715 194.601 205.278 194.751 203.348L196.421 193.912C197.363 188.636 197.792 183.274 197.727 177.912L197.62 167.768C197.77 165.838 196.336 164.143 194.408 163.993C192.481 163.843 190.789 165.28 190.639 167.21L190.746 177.355C190.81 182.716 190.361 188.078 189.44 193.354L187.77 202.791C187.62 204.721 189.054 206.415 190.982 206.565Z" fill="#E7F2E6"/>
<path d="M77.8471 76.2114C77.997 75.5895 78.1469 74.989 78.2754 74.367C84.807 43.7194 116.308 24.074 147.146 30.0792C177.983 36.0843 196.614 63.4291 193.338 92.94C193.059 95.4922 192.438 98.0015 191.689 100.468C189.354 107.996 185.029 128.971 188.434 149.067C192.16 171.092 149.544 179.049 136.481 179.95C132.455 180.229 121.426 180.1 118.021 179.757C103.845 178.32 65.5978 172.765 66.3259 154.557C67.8892 116.231 76.3909 81.8734 77.8686 76.19L77.8471 76.2114Z" fill="#A9D49E"/>
<path d="M108.859 97.2377L116.366 98.2969C117.35 98.4357 118.26 97.7496 118.398 96.7643L118.452 96.3821C118.591 95.3968 117.906 94.4856 116.922 94.3468L109.415 93.2875C108.431 93.1487 107.522 93.8349 107.383 94.8201L107.329 95.2024C107.191 96.1876 107.876 97.0988 108.859 97.2377Z" fill="#CAE4C1"/>
<path d="M174.39 106.487L181.897 107.546C182.881 107.685 183.791 106.999 183.929 106.014L183.983 105.631C184.122 104.646 183.436 103.735 182.453 103.596L174.946 102.537C173.962 102.398 173.052 103.084 172.914 104.07L172.86 104.452C172.721 105.437 173.406 106.348 174.39 106.487Z" fill="#CAE4C1"/>
<path d="M119.157 105.894C119.092 106.344 119.414 106.752 119.863 106.816C120.292 106.88 120.72 106.559 120.763 106.13L120.934 104.95C122.754 105.143 135.154 106.816 142.413 115.652C142.649 115.931 142.884 116.21 143.077 116.51C143.398 116.231 143.741 115.995 144.062 115.781C153.485 109.347 165.798 111.148 167.64 111.449L167.469 112.628C167.404 113.079 167.704 113.486 168.154 113.55C168.582 113.615 169.01 113.315 169.075 112.864L169.739 108.081C169.803 107.631 169.482 107.224 169.053 107.159C169.01 107.159 168.968 107.159 168.925 107.159C168.539 107.159 168.197 107.46 168.132 107.867L167.918 109.411C154.77 107.567 147.21 111.299 144.084 113.422C143.698 113.679 143.184 113.615 142.884 113.25C140.422 110.312 134.168 104.757 121.191 102.913L121.405 101.347C121.405 101.347 121.405 101.261 121.405 101.218C121.405 100.832 121.105 100.489 120.698 100.425C120.27 100.361 119.842 100.682 119.799 101.133L119.114 105.915L119.157 105.894Z" fill="#0E9561"/>
<path d="M149.758 97.3793C150.172 97.3793 150.507 97.0432 150.507 96.6287C150.507 96.2141 150.172 95.878 149.758 95.878C149.344 95.878 149.008 96.2141 149.008 96.6287C149.008 97.0432 149.344 97.3793 149.758 97.3793Z" fill="#057749"/>
<path d="M142.777 96.3932C143.191 96.3932 143.526 96.0571 143.526 95.6425C143.526 95.228 143.191 94.8919 142.777 94.8919C142.363 94.8919 142.027 95.228 142.027 95.6425C142.027 96.0571 142.363 96.3932 142.777 96.3932Z" fill="#057749"/>
<path d="M152.478 104.929L153.291 104.585C153.934 104.307 154.726 103.449 154.469 102.805L151.278 96.5215C151 95.878 150.251 95.5778 149.608 95.8352C148.966 96.114 148.666 96.8646 148.923 97.508L150.593 104.328C150.872 104.972 151.814 105.207 152.456 104.929H152.478Z" fill="#057749"/>
<path d="M60.8009 164.873C60.8009 164.873 68.4674 155.822 80.01 154.707C80.01 154.707 106.736 117.347 134.896 127.276C139.565 128.928 143.055 132.767 144.083 137.635C145.797 145.828 143.784 160.305 121.341 179.907C85.0639 211.584 52.3206 197.579 52.3206 197.579L60.8223 164.851L60.8009 164.873Z" fill="#C6E1C1"/>
<path d="M60.1582 160.841C62.0213 161.313 63.1563 163.243 62.6852 165.109L61.2075 174.588C60.3724 179.886 59.066 185.097 57.2672 190.159L53.8836 199.703C53.4125 201.569 51.4852 202.705 49.6221 202.233C47.759 201.762 46.624 199.831 47.0951 197.966L50.4787 188.422C52.2775 183.36 53.5838 178.149 54.419 172.851L55.8966 163.372C56.3678 161.506 58.2951 160.369 60.1582 160.841Z" fill="#E7F2E6"/>
<path d="M163.512 85.9433L157.553 82.9179C156.445 82.3556 155.092 82.7991 154.53 83.9084C153.969 85.0177 154.412 86.3728 155.519 86.9351L161.479 89.9605C162.587 90.5228 163.94 90.0794 164.501 88.97C165.063 87.8607 164.62 86.5056 163.512 85.9433Z" fill="#0E9561"/>
<path d="M132.933 85.9327L139.495 84.6731C140.715 84.439 141.514 83.259 141.281 82.0375C141.047 80.8161 139.869 80.0157 138.649 80.2498L132.087 81.5094C130.867 81.7435 130.068 82.9235 130.302 84.1449C130.536 85.3664 131.714 86.1668 132.933 85.9327Z" fill="#0E9561"/>
<path d="M132.433 78.8066C132.84 78.4634 133.226 78.1417 133.633 77.82C133.825 77.6485 134.039 77.4983 134.254 77.3482C134.296 77.3053 134.361 77.2624 134.403 77.2195C134.318 77.2839 134.361 77.2624 134.403 77.2195C134.511 77.1337 134.639 77.0479 134.746 76.9622C135.581 76.3187 136.438 75.7182 137.316 75.1177C137.787 74.796 138.023 74.1526 137.701 73.6593C137.402 73.2089 136.738 72.9301 136.245 73.2733C134.403 74.5387 132.626 75.8898 130.913 77.3268C130.485 77.6913 130.506 78.4849 130.913 78.8495C131.363 79.2784 131.962 79.2355 132.433 78.8495V78.8066Z" fill="#168F5E"/>
<path d="M166.333 82.26C165.091 80.4156 163.742 78.614 162.329 76.8983C161.964 76.4693 161.172 76.4908 160.808 76.8983C160.38 77.3487 160.423 77.9492 160.808 78.421C161.129 78.8285 161.472 79.2145 161.793 79.622C161.879 79.7293 161.943 79.8365 162.029 79.9223C162.072 79.9652 162.114 80.0295 162.157 80.0724C162.093 79.9866 162.114 80.0295 162.157 80.0724C162.329 80.2869 162.5 80.5014 162.65 80.7373C163.271 81.5737 163.892 82.453 164.47 83.3109C164.791 83.7827 165.434 84.0186 165.926 83.6969C166.397 83.3967 166.654 82.7318 166.312 82.2386L166.333 82.26Z" fill="#168F5E"/>
<path d="M86.0275 90.881L85.7062 86.5273C85.6848 86.1842 85.2565 86.0555 85.0424 86.2914L82.1514 89.5513C81.359 90.0661 80.6737 90.9668 80.2883 92.0821C79.5602 94.2267 80.2455 96.3929 81.8087 96.9291C83.372 97.4652 85.2351 96.157 85.9632 93.9908C86.3487 92.8756 86.3273 91.7389 86.0275 90.8596V90.881Z" fill="#168F5E"/>
<path d="M96.4779 79.4925L96.1567 75.1388C96.1353 74.7957 95.707 74.667 95.4928 74.9029L92.6018 78.1628C91.8095 78.6776 91.1242 79.5783 90.7387 80.6936C90.0106 82.8383 90.6959 85.0044 92.2592 85.5406C93.8225 86.0767 95.6856 84.7685 96.4137 82.6023C96.7991 81.4871 96.7777 80.3504 96.4779 79.4711V79.4925Z" fill="#168F5E"/>
<path d="M96.4779 64.1155L96.1567 59.7618C96.1353 59.4186 95.707 59.2899 95.4928 59.5259L92.6018 62.7858C91.8095 63.3005 91.1242 64.2013 90.7387 65.3165C90.0106 67.4612 90.6959 69.6274 92.2592 70.1635C93.8225 70.6997 95.6856 69.3914 96.4137 67.2253C96.7991 66.1101 96.7777 64.9734 96.4779 64.0941V64.1155Z" fill="#168F5E"/>
</g>
</svg>
