<svg width="21" height="21" viewBox="0 0 21 21" fill="none" xmlns="http://www.w3.org/2000/svg">
<g id="Group 779">
<path id="Vector" d="M0.229161 11.8787L1.41012 9.69171L0.432614 9.16387C0.429146 9.16202 0.427528 9.16063 0.427297 9.16063C0.42591 9.15647 0.42591 9.14444 0.431458 9.1345C0.434464 9.12919 0.43562 9.1278 0.444868 9.12641L4.65058 8.4321C4.65242 8.43187 4.65335 8.43187 4.65358 8.43164C4.65474 8.43233 4.65751 8.43511 4.66052 8.44089L6.39126 12.3221C6.39588 12.3328 6.39565 12.3381 6.39057 12.3469C6.38294 12.3598 6.37068 12.3661 6.36745 12.3663C6.36698 12.3663 6.36513 12.3658 6.36236 12.3642L5.39041 11.8336L2.71592 16.7913C2.60633 16.9945 2.52657 17.2123 2.47663 17.4368L2.21353 16.9966L2.16706 16.9192L0.270083 13.7426C-0.0748635 13.1676 -0.0903537 12.4706 0.229161 11.8787ZM8.64173 19.8629C8.64173 19.8693 8.63503 19.876 8.62855 19.876H5.01147C4.34701 19.876 3.72671 19.5288 3.39286 18.9702L3.36466 18.9228C3.06248 18.379 3.05601 17.6833 3.35194 17.1347L4.31187 15.3553H8.62879C8.63526 15.3553 8.64196 15.362 8.64196 15.3685V19.8629H8.64173Z" fill="#2E2E2E"/>
<path id="Vector_2" d="M14.9728 10.6608C14.9536 10.625 14.9598 10.591 14.9651 10.5739C14.9716 10.5536 14.9862 10.526 15.0195 10.5092L18.8587 8.56542L18.8613 8.56404C18.9121 8.53791 18.9746 8.55849 19.0039 8.6112L20.7786 11.8938C21.0877 12.4654 21.0722 13.1678 20.7374 13.7273H20.737L20.7337 13.7324C20.4057 14.2799 19.7814 14.6334 19.1415 14.6334L17.1197 14.6329L14.9725 10.6608H14.9728ZM17.6165 18.9565C17.275 19.5322 16.6688 19.876 15.9954 19.876L13.5093 19.8746V20.9848C13.5093 20.9887 13.5088 20.9911 13.5091 20.9913C13.5061 20.9948 13.4952 21.0003 13.4834 21.0003C13.4767 21.0003 13.4746 20.9996 13.4693 20.9924L10.8637 17.618C10.8637 17.618 10.8628 17.6166 10.8625 17.6166C10.8625 17.6155 10.8635 17.6125 10.8667 17.6076L13.4637 14.2413C13.4709 14.232 13.4751 14.2302 13.485 14.2304C13.4998 14.2311 13.5109 14.239 13.5125 14.2415C13.5125 14.2415 13.5132 14.2431 13.5132 14.2473L13.5077 15.355C13.5077 15.355 19.1406 15.3564 19.1417 15.3564C19.3722 15.3564 19.6011 15.3233 19.8219 15.2611L19.7373 15.4026L19.7273 15.419L17.6163 18.9567L17.6165 18.9565Z" fill="#2E2E2E"/>
<path id="Vector_3" d="M14.9774 0.92112L16.2703 3.09421L17.2235 2.52268C17.2268 2.52083 17.2286 2.52013 17.2288 2.5199C17.2335 2.52059 17.2446 2.52707 17.251 2.53793C17.255 2.54441 17.2557 2.54765 17.251 2.55874L15.6895 6.51604C15.6877 6.5209 15.6861 6.52275 15.6861 6.52298C15.6856 6.52298 15.6828 6.52391 15.6775 6.52344L11.4561 6.01826C11.4461 6.0171 11.4429 6.01502 11.4383 6.00739C11.4318 5.99653 11.4306 5.98335 11.4318 5.9778C11.4323 5.97734 11.4332 5.97687 11.4343 5.97618L12.3899 5.4088L9.48512 0.536626C9.36721 0.338253 9.22109 0.158144 9.05417 0H13.3544C14.0247 0 14.6316 0.344726 14.9772 0.92112H14.9774ZM3.76322 4.11175L5.67268 0.906554C6.00722 0.34727 6.61897 0 7.26909 0C7.91067 0 8.53675 0.355593 8.86412 0.906092L8.96909 1.0825H8.97001C9.15821 1.39717 9.56835 2.08477 9.90081 2.64221L7.58468 6.52391C7.56456 6.55743 7.53381 6.56876 7.51717 6.57269C7.49775 6.57731 7.46815 6.5787 7.43856 6.55951L3.79536 4.2581C3.7468 4.22735 3.7327 4.16284 3.76299 4.11175H3.76322Z" fill="#2E2E2E"/>
</g>
</svg>
