<svg width="254" height="254" viewBox="0 0 254 254" fill="none" xmlns="http://www.w3.org/2000/svg">
<rect width="254" height="254" rx="127" fill="white"/>
<mask id="mask0_766_5852" style="mask-type:alpha" maskUnits="userSpaceOnUse" x="0" y="0" width="254" height="254">
<rect width="254" height="254" rx="127" fill="#D9D9D9"/>
</mask>
<g mask="url(#mask0_766_5852)">
<path d="M70.5259 349.858C105.61 349.858 134.052 305.757 134.052 251.355C134.052 196.954 105.61 152.853 70.5259 152.853C35.4415 152.853 7 196.954 7 251.355C7 305.757 35.4415 349.858 70.5259 349.858Z" fill="#71BD5F"/>
<path d="M192.432 163.978C192.432 163.978 199.479 278.025 207.806 301.471C216.134 324.917 173.3 376.015 123.482 372.94C56.1771 368.777 45.2015 330.213 45.2015 330.213C45.2015 330.213 15.7127 261.007 63.1596 159.899C98.5205 84.5223 191.023 143.393 192.432 163.978Z" fill="#8AC67A"/>
<path d="M193.393 211.488C184.723 218.342 175.05 223.958 164.822 228.08C159.825 230.108 154.679 231.774 149.469 233.098C146.821 233.76 144.152 234.336 141.461 234.827C138.771 235.318 135.91 235.596 133.176 236.172C128.052 237.261 122.372 240.593 122.5 246.529L124.486 245.995C123.418 243.796 122.244 241.511 120.3 239.931C118.208 238.244 115.645 237.923 113.019 238.03C106.399 238.265 99.9294 238.073 93.374 237.005C86.8186 235.938 80.7115 234.379 74.5404 232.478C69.437 230.92 64.3976 229.083 59.6999 226.542C54.4684 223.702 49.728 219.965 46.4396 214.926C45.6922 213.773 43.8345 214.841 44.6032 215.994C50.3686 224.813 59.9989 229.766 69.6719 233.119C81.4589 237.219 94.0573 240.144 106.57 240.315C108.343 240.336 110.115 240.294 111.887 240.208C113.66 240.123 115.346 239.973 116.969 240.507C119.916 241.447 121.368 244.5 122.628 247.063C123.098 248.023 124.635 247.554 124.614 246.529C124.486 240.635 131.148 238.585 135.824 237.838C141.056 237.005 146.223 236.172 151.348 234.806C161.491 232.115 171.292 228.08 180.367 222.848C185.449 219.923 190.296 216.613 194.887 212.983C195.955 212.129 194.439 210.634 193.371 211.467L193.393 211.488Z" fill="#CAE4C1"/>
<path d="M122.479 246.529C122.82 258.551 123.311 270.551 124.059 282.552C124.614 291.542 125.767 300.51 125.98 309.5C126.237 320.069 125.489 330.639 124.977 341.209C124.699 346.889 124.4 352.59 123.503 358.206C122.756 362.989 121.667 368.05 118.913 372.129C118.144 373.26 119.98 374.349 120.749 373.196C123.162 369.63 124.336 365.317 125.126 361.132C126.087 356.156 126.514 351.096 126.813 346.056C127.454 335.807 128.094 325.515 128.137 315.265C128.18 305.015 127.048 295.663 126.386 285.84C125.831 277.683 125.447 269.526 125.126 261.348C124.934 256.394 124.742 251.44 124.593 246.508C124.55 245.141 122.414 245.141 122.457 246.508L122.479 246.529Z" fill="#CAE4C1"/>
<path d="M63.1378 159.878C63.1378 175.744 92.0714 188.598 127.774 188.598C163.455 188.598 192.41 175.744 192.41 159.878C192.41 156.59 191.172 153.429 188.866 150.483C188.866 150.739 188.866 150.995 188.866 151.251C188.866 167.117 161.598 179.971 127.966 179.971C94.3349 179.971 67.259 167.117 67.259 151.251C67.259 150.782 67.2803 150.333 67.323 149.863C64.7179 152.981 63.1165 156.355 63.1165 159.878H63.1378Z" fill="#CAE4C1"/>
<path d="M196.19 165.343C196.19 165.343 217.821 174.568 226.853 204.142C233.003 224.278 230.163 246.315 218.12 263.568C210.475 274.544 199.158 283.768 183.335 281.035C148.167 274.992 187.115 217.381 187.115 217.381C187.115 217.381 188.951 207.11 189.891 204.27C191.001 200.96 197.194 176.917 196.19 165.322V165.343Z" fill="#A9D49E"/>
<path d="M59.6141 160.881C59.6141 160.881 96.8969 185.138 106.292 213.559C106.292 213.559 156.835 235.318 152.437 270.85C151.711 276.744 148.102 281.826 142.678 284.26C133.539 288.381 116.072 289.705 87.3947 268.416C41.0368 233.994 49.0229 192.057 49.0229 192.057L59.6141 160.881Z" fill="#A9D49E"/>
<path d="M191.449 206.342C193.371 206.492 195.058 205.061 195.207 203.139L196.873 193.744C197.813 188.491 198.24 183.153 198.176 177.814L198.069 167.714C198.218 165.793 196.788 164.106 194.866 163.956C192.944 163.807 191.257 165.237 191.108 167.159L191.214 177.259C191.278 182.598 190.83 187.936 189.912 193.189L188.246 202.584C188.097 204.506 189.528 206.193 191.449 206.342Z" fill="#CAE4C1"/>
<path d="M60.7674 157.956C58.9524 157.337 56.9452 158.34 56.3473 160.155L52.461 168.889C50.283 173.757 48.5747 178.839 47.3362 184.028L45.0087 193.851C44.3895 195.666 45.3931 197.673 47.2081 198.271C49.0231 198.89 51.0304 197.887 51.6282 196.072L53.9557 186.249C55.1942 181.06 56.9025 175.978 59.0805 171.11L62.9668 162.376C63.5861 160.561 62.5825 158.554 60.7674 157.956Z" fill="#CAE4C1"/>
<path d="M78.6401 76.5345C78.7896 75.9152 78.9391 75.3173 79.0672 74.6981C85.6013 44.1843 116.991 24.6461 147.739 30.625C177.271 36.369 197.065 63.8293 193.798 93.2113C193.521 95.7524 192.901 98.2507 192.154 100.706C189.826 108.201 185.513 129.085 188.908 149.093C192.624 171.023 150.131 178.945 137.105 179.841C133.091 180.119 122.094 179.991 118.699 179.649C104.563 178.219 66.4261 172.688 67.1521 154.559C68.7109 116.401 77.1881 82.1931 78.6615 76.5345H78.6401Z" fill="#A9D49E"/>
<path d="M109.759 97.5185L116.863 98.5195C117.949 98.6725 118.954 97.9162 119.107 96.8301C119.26 95.7441 118.504 94.7397 117.418 94.5866L110.313 93.5856C109.227 93.4326 108.223 94.189 108.07 95.275C107.917 96.361 108.673 97.3655 109.759 97.5185Z" fill="#CAE4C1"/>
<path d="M175.101 106.706L182.206 107.707C183.292 107.86 184.296 107.104 184.449 106.018C184.602 104.932 183.846 103.927 182.76 103.774L175.656 102.773C174.57 102.62 173.565 103.377 173.412 104.463C173.259 105.549 174.015 106.553 175.101 106.706Z" fill="#CAE4C1"/>
<path d="M119.831 106.089C119.767 106.538 120.087 106.943 120.535 107.008C120.963 107.072 121.39 106.751 121.432 106.324L121.603 105.15C123.418 105.342 135.782 107.008 143.02 115.805C143.255 116.083 143.49 116.36 143.682 116.659C144.003 116.382 144.344 116.147 144.665 115.933C154.06 109.527 166.338 111.321 168.175 111.62L168.004 112.794C167.94 113.243 168.239 113.648 168.687 113.712C169.114 113.776 169.541 113.478 169.605 113.029L170.267 108.267C170.331 107.819 170.011 107.413 169.584 107.349C169.541 107.349 169.498 107.349 169.456 107.349C169.071 107.349 168.73 107.648 168.666 108.054L168.452 109.591C155.341 107.755 147.804 111.47 144.686 113.584C144.302 113.841 143.789 113.776 143.49 113.413C141.035 110.488 134.799 104.958 121.859 103.121L122.073 101.562C122.073 101.562 122.073 101.477 122.073 101.434C122.073 101.05 121.774 100.708 121.368 100.644C120.941 100.58 120.514 100.9 120.471 101.349L119.788 106.111L119.831 106.089Z" fill="#0E9561"/>
<path d="M150.344 97.6112C150.757 97.6112 151.091 97.2766 151.091 96.8638C151.091 96.4511 150.757 96.1165 150.344 96.1165C149.931 96.1165 149.597 96.4511 149.597 96.8638C149.597 97.2766 149.931 97.6112 150.344 97.6112Z" fill="#057749"/>
<path d="M143.384 96.6292C143.796 96.6292 144.131 96.2946 144.131 95.8818C144.131 95.4691 143.796 95.1345 143.384 95.1345C142.971 95.1345 142.636 95.4691 142.636 95.8818C142.636 96.2946 142.971 96.6292 143.384 96.6292Z" fill="#057749"/>
<path d="M153.057 105.15L153.868 104.808C154.509 104.53 155.299 103.676 155.042 103.036L151.861 96.7791C151.583 96.1385 150.836 95.8396 150.195 96.0958C149.555 96.3734 149.256 97.1208 149.512 97.7614L151.177 104.552C151.455 105.192 152.395 105.427 153.035 105.15H153.057Z" fill="#057749"/>
<path d="M140.009 126.994L120.941 106.025C120.493 105.534 120.557 104.787 121.069 104.36C121.582 103.933 122.372 103.997 122.841 104.488L141.91 125.457C142.358 125.948 142.294 126.695 141.782 127.122C141.269 127.549 140.479 127.485 140.009 126.994Z" fill="#0E9561"/>
<path d="M140.543 125.265L166.765 110.915C167.363 110.595 168.132 110.787 168.473 111.342C168.815 111.898 168.602 112.645 168.025 112.965L141.803 127.315C141.205 127.635 140.437 127.443 140.095 126.888C139.753 126.332 139.967 125.585 140.543 125.265Z" fill="#0E9561"/>
<path d="M135.333 75.6179C137.426 76.0236 139.497 76.5361 141.547 77.1553C142.081 77.3261 142.743 76.9631 142.871 76.4079C142.999 75.8528 142.7 75.2762 142.123 75.084C140.073 74.4648 138.002 73.9523 135.91 73.5466C135.354 73.4398 134.735 73.6961 134.586 74.294C134.458 74.8278 134.735 75.4898 135.333 75.6179Z" fill="#168F5E"/>
<path d="M160.146 77.9883C157.968 77.5613 155.747 77.2623 153.526 77.0701C152.971 77.0274 152.437 77.604 152.458 78.1378C152.48 78.757 152.928 79.1414 153.526 79.2055C155.619 79.3976 157.476 79.6539 159.569 80.0596C160.124 80.1663 160.743 79.9101 160.893 79.3122C161.021 78.7784 160.743 78.1164 160.146 77.9883Z" fill="#168F5E"/>
<path d="M68.668 65.6242C72.7891 68.1866 77.8925 65.2612 79.8143 61.3108C82.5262 55.759 79.0243 49.5025 75.864 44.997L74.6682 46.5557C79.9852 47.6661 85.4729 44.698 87.9713 39.9362C90.8326 34.5125 89.5087 27.7862 86.1349 22.9177L84.6829 24.3697C90.2774 26.9962 96.598 29.7721 102.769 27.3378C105.374 26.3129 107.488 24.4338 108.577 21.85C109.794 18.9674 109.602 15.7857 109.09 12.7749C108.855 11.4083 106.826 12.0062 107.04 13.3515C108.385 22.1703 117.695 28.4482 126.364 26.6972C127.71 26.4196 127.133 24.3697 125.788 24.6473C118.143 26.1848 110.243 20.4194 109.09 12.7963L107.04 13.3728C107.488 15.9993 107.638 18.9247 106.463 21.3803C105.417 23.5583 103.388 25.0103 101.104 25.6723C95.7866 27.2524 90.4696 24.7754 85.7505 22.5333C84.8751 22.1276 83.6152 23.0245 84.2985 23.9854C87.1599 28.1065 88.5692 33.7652 86.3057 38.5056C84.3626 42.5413 79.7716 45.424 75.2447 44.4631C74.412 44.2923 73.4724 45.2105 74.049 46.0219C76.6541 49.716 79.8357 54.7554 78.2769 59.4958C77.1879 62.7628 73.1094 65.8164 69.7783 63.7451C68.6039 63.0191 67.5362 64.8555 68.7107 65.5815L68.668 65.6242Z" fill="#168F5E"/>
<path d="M131.086 81.8267L137.029 84.8389C138.133 85.3987 139.482 84.9572 140.042 83.8527C140.602 82.7483 140.161 81.399 139.056 80.8392L133.114 77.827C132.009 77.2672 130.66 77.7087 130.1 78.8132C129.54 79.9177 129.982 81.2669 131.086 81.8267Z" fill="#0E9561"/>
<path d="M161.606 81.8306L155.063 83.0846C153.847 83.3177 153.05 84.4926 153.283 85.7087C153.516 86.9248 154.691 87.7218 155.907 87.4887L162.45 86.2346C163.666 86.0015 164.463 84.8267 164.23 83.6105C163.997 82.3944 162.822 81.5975 161.606 81.8306Z" fill="#0E9561"/>
</g>
</svg>
